ply
format ascii 1.0
comment Created by Blender 2.69 (sub 0) - www.blender.org, source file: 'ant.blend'
element vertex 438
property float x
property float y
property float z
property float nx
property float ny
property float nz
property float s
property float t
element face 352
property list uchar uint vertex_indices
end_header
0.317541 -0.000000 -0.464816 0.537889 0.000000 -0.842982 0.729916 0.889820
0.313015 0.055351 -0.457722 0.503555 0.351451 -0.789209 0.729726 0.907917
0.351347 0.050525 -0.423868 0.764580 0.355327 -0.537675 0.716326 0.908849
0.359676 -0.000000 -0.427948 0.799860 0.000000 -0.600146 0.709777 0.894033
0.371719 0.044136 -0.382979 0.922086 0.369060 -0.116276 0.704788 0.913629
0.382054 -0.000000 -0.383870 0.990570 0.000000 -0.136937 0.695003 0.903612
0.299502 0.097926 -0.436545 0.348704 0.761376 -0.546495 0.729633 0.919378
0.333314 0.089693 -0.407484 0.630634 0.714774 -0.302225 0.719884 0.919516
0.351227 0.073543 -0.380886 0.779138 0.623768 -0.061403 0.711414 0.920320
0.317541 -0.000000 -0.464816 0.537889 0.000000 -0.842982 0.356043 0.563264
0.359676 -0.000000 -0.427948 0.799860 0.000000 -0.600146 0.374665 0.567241
0.351347 -0.050525 -0.423868 0.764580 -0.355327 -0.537675 0.368547 0.580928
0.313015 -0.055351 -0.457722 0.503555 -0.351451 -0.789209 0.356149 0.580013
0.333314 -0.089693 -0.407484 0.630634 -0.714774 -0.302225 0.365213 0.590787
0.299502 -0.097926 -0.436545 0.348704 -0.761376 -0.546495 0.356190 0.590621
0.382054 -0.000000 -0.383870 0.990570 0.000000 -0.136937 0.388303 0.576163
0.371719 -0.044136 -0.382979 0.922086 -0.369060 -0.116276 0.379207 0.585396
0.351227 -0.073544 -0.380886 0.779138 -0.623768 -0.061403 0.373049 0.591563
0.266162 -0.050525 -0.478223 0.165502 -0.355327 -0.919950 0.343796 0.581063
0.266353 -0.000000 -0.487496 0.207282 0.000000 -0.978271 0.337536 0.567542
0.220496 -0.044136 -0.479472 -0.283029 -0.369060 -0.885250 0.333269 0.585609
0.216950 -0.000000 -0.489220 -0.293130 0.000000 -0.956053 0.324172 0.576612
0.258901 -0.089693 -0.454966 0.008393 -0.714774 -0.699271 0.347195 0.590844
0.227232 -0.073544 -0.460005 -0.272561 -0.623768 -0.732505 0.339418 0.591666
0.266353 -0.000000 -0.487496 0.207282 0.000000 -0.978271 0.749893 0.894526
0.266162 0.050525 -0.478223 0.165502 0.355327 -0.919950 0.743068 0.909107
0.258901 0.089693 -0.454966 0.008393 0.714774 -0.699271 0.739352 0.919660
0.216950 -0.000000 -0.489220 -0.293130 0.000000 -0.956053 0.764292 0.904386
0.220496 0.044136 -0.479472 -0.283029 0.369060 -0.885250 0.754422 0.914067
0.227232 0.073543 -0.460005 -0.272561 0.623768 -0.732505 0.747750 0.920583
0.248563 -0.113607 -0.356791 -0.058382 -0.993988 0.092593 0.356191 0.610392
0.277070 -0.114948 -0.401390 0.103732 -0.981231 -0.162481 0.356208 0.599269
0.312530 -0.106148 -0.374654 0.411542 -0.910123 0.047517 0.365297 0.599458
0.286087 -0.105749 -0.331931 0.243721 -0.928617 0.279641 0.366427 0.610220
0.342368 -0.081881 -0.351504 0.679403 -0.696585 0.230476 0.374950 0.598599
0.317430 -0.082708 -0.310997 0.539109 -0.703024 0.463759 0.376676 0.609471
0.251078 -0.094355 -0.285869 0.158208 -0.909787 0.383648 0.366710 0.624775
0.216824 -0.101095 -0.307282 -0.123295 -0.972320 0.198401 0.356010 0.624891
0.215260 -0.079955 -0.241796 0.156621 -0.907285 0.390210 0.366166 0.641593
0.185963 -0.085666 -0.259380 -0.121036 -0.971801 0.202277 0.355676 0.641562
0.279622 -0.074136 -0.268026 0.447768 -0.683737 0.576159 0.377284 0.624543
0.239674 -0.062822 -0.227143 0.442244 -0.678762 0.586200 0.376437 0.641876
0.182571 -0.094355 -0.328694 -0.408002 -0.912809 0.016053 0.345343 0.624709
0.210107 -0.105749 -0.380190 -0.354472 -0.929197 -0.104312 0.345991 0.610209
0.154027 -0.074136 -0.346538 -0.704947 -0.688253 -0.171209 0.334880 0.624419
0.177832 -0.082708 -0.399664 -0.645466 -0.703909 -0.296396 0.335849 0.609484
0.156667 -0.079955 -0.276963 -0.404828 -0.914151 0.019471 0.345264 0.641583
0.132253 -0.062822 -0.291617 -0.704489 -0.689200 -0.169195 0.335212 0.641810
0.237883 -0.106148 -0.422285 -0.216254 -0.910123 -0.353374 0.347146 0.599475
0.204317 -0.081881 -0.439592 -0.494858 -0.696585 -0.519486 0.337568 0.598649
0.138193 0.069763 -0.185867 -0.050417 0.993957 0.097232 0.498077 0.523720
0.162987 0.065112 -0.173487 0.237312 0.927549 0.288583 0.496989 0.531545
0.186393 0.070539 -0.205036 0.195135 0.917722 0.345927 0.486046 0.531396
0.160088 0.075578 -0.219601 -0.086428 0.984222 0.154302 0.486916 0.523245
0.160088 0.075578 -0.219601 -0.086428 0.984222 0.154302 0.730552 0.990875
0.186393 0.070539 -0.205036 0.195135 0.917722 0.345927 0.719732 0.990768
0.215260 0.079955 -0.241796 0.156621 0.907285 0.390210 0.718624 0.974407
0.185963 0.085666 -0.259380 -0.121036 0.971801 0.202277 0.729958 0.974421
0.183649 0.051160 -0.163170 0.531816 0.692557 0.487320 0.496219 0.539104
0.208313 0.055424 -0.192899 0.483291 0.685110 0.544969 0.485464 0.539268
0.208313 0.055424 -0.192899 0.483291 0.685110 0.544969 0.709217 0.991014
0.239674 0.062822 -0.227143 0.442244 0.678762 0.586200 0.707524 0.974666
0.133784 0.070539 -0.234166 -0.374371 0.926664 -0.033143 0.487904 0.515127
0.113398 0.065112 -0.198248 -0.343150 0.934843 -0.091037 0.499282 0.515944
0.111864 0.055424 -0.246303 -0.678457 0.698782 -0.226600 0.488968 0.507371
0.092736 0.051160 -0.208565 -0.650655 0.703726 -0.285257 0.500491 0.508529
0.156667 0.079955 -0.276964 -0.404828 0.914151 0.019471 0.741208 0.974491
0.133784 0.070539 -0.234166 -0.374371 0.926664 -0.033143 0.741206 0.991157
0.132253 0.062822 -0.291617 -0.704489 0.689200 -0.169195 0.752068 0.974781
0.111864 0.055424 -0.246303 -0.678457 0.698782 -0.226600 0.751286 0.991737
0.094985 0.062680 -0.167156 -0.316965 0.937284 -0.144871 0.509437 0.516621
0.119269 0.067157 -0.156100 -0.019929 0.998993 0.039552 0.508056 0.524152
0.078019 0.062249 -0.138837 -0.300790 0.936460 -0.180395 0.518689 0.517277
0.102311 0.066695 -0.128219 -0.000214 0.999969 -0.003113 0.517255 0.524668
0.074748 0.049249 -0.176370 -0.626423 0.703665 -0.335276 0.510748 0.509444
0.057775 0.048910 -0.147684 -0.612232 0.701926 -0.363933 0.520007 0.510214
0.143554 0.062680 -0.145043 0.274728 0.934629 0.225715 0.506780 0.531739
0.163791 0.049249 -0.135829 0.578265 0.699759 0.419385 0.505813 0.539070
0.126603 0.062249 -0.117601 0.300363 0.937742 0.174261 0.515909 0.532102
0.146847 0.048910 -0.108753 0.612476 0.704367 0.358745 0.514839 0.539275
0.248563 0.113607 -0.356791 -0.058382 0.993988 0.092593 0.729543 0.940740
0.216824 0.101095 -0.307282 -0.123295 0.972320 0.198401 0.729673 0.956407
0.251078 0.094355 -0.285869 0.158208 0.909787 0.383648 0.718112 0.956233
0.286087 0.105749 -0.331931 0.243751 0.928617 0.279641 0.718484 0.940508
0.279622 0.074136 -0.268026 0.447768 0.683737 0.576159 0.706688 0.955935
0.317430 0.082708 -0.310997 0.539109 0.703024 0.463759 0.707414 0.939652
0.312530 0.106148 -0.374654 0.411542 0.910123 0.047517 0.719754 0.928885
0.277070 0.114948 -0.401390 0.103732 0.981231 -0.162481 0.729575 0.928722
0.342368 0.081880 -0.351504 0.679403 0.696585 0.230476 0.709328 0.927913
0.237883 0.106148 -0.422285 -0.216254 0.910123 -0.353374 0.739366 0.928985
0.210107 0.105749 -0.380190 -0.354472 0.929197 -0.104312 0.740565 0.940589
0.204317 0.081880 -0.439592 -0.494858 0.696585 -0.519486 0.749718 0.928136
0.177832 0.082708 -0.399664 -0.645466 0.703909 -0.296396 0.751527 0.939851
0.182571 0.094355 -0.328694 -0.408002 0.912809 0.016053 0.741200 0.956258
0.154027 0.074136 -0.346538 -0.704947 0.688253 -0.171209 0.752506 0.955992
0.152689 -0.000000 -0.417689 -0.896084 0.000000 -0.443861 0.778286 0.935411
0.158854 0.045017 -0.412746 -0.838069 0.355419 -0.413831 0.763680 0.938045
0.185723 0.044275 -0.455567 -0.669515 0.372417 -0.642659 0.760568 0.923926
0.180169 -0.000000 -0.463221 -0.723350 0.000000 -0.690451 0.773234 0.917274
0.152689 -0.000000 -0.417689 -0.896084 0.000000 -0.443861 0.311100 0.605271
0.180169 -0.000000 -0.463221 -0.723350 0.000000 -0.690451 0.315846 0.588505
0.185723 -0.044275 -0.455567 -0.669515 -0.372417 -0.642659 0.327543 0.594710
0.158854 -0.045017 -0.412746 -0.838069 -0.355419 -0.413831 0.324607 0.607766
0.136900 -0.040438 -0.357244 -0.893216 -0.338054 -0.296426 0.323833 0.624487
0.131191 -0.000000 -0.360813 -0.943632 0.000000 -0.330943 0.311018 0.625076
0.117604 -0.034267 -0.300409 -0.893124 -0.337138 -0.297678 0.324990 0.642640
0.112722 -0.000000 -0.303339 -0.942717 0.000000 -0.333537 0.314112 0.644136
0.131191 -0.000000 -0.360813 -0.943632 0.000000 -0.330943 0.778286 0.956810
0.136900 0.040438 -0.357244 -0.893216 0.338054 -0.296426 0.764441 0.956116
0.112722 -0.000000 -0.303339 -0.942717 0.000000 -0.333537 0.774857 0.977390
0.117604 0.034266 -0.300409 -0.893124 0.337138 -0.297678 0.763110 0.975725
0.344437 -0.000000 -0.295893 0.776879 0.000000 0.629627 0.680035 0.934864
0.337340 0.045017 -0.299375 0.725578 0.354839 0.589526 0.695153 0.937684
0.296749 0.040438 -0.257319 0.636280 0.335093 0.694845 0.694297 0.956155
0.302457 -0.000000 -0.253751 0.687429 0.000000 0.726218 0.679807 0.956953
0.254322 0.034266 -0.218351 0.628681 0.330424 0.703940 0.696125 0.975655
0.259205 -0.000000 -0.215420 0.679128 0.000000 0.734001 0.683850 0.977703
0.344437 -0.000000 -0.295893 0.776879 0.000000 0.629627 0.402034 0.605147
0.302457 -0.000000 -0.253751 0.687429 0.000000 0.726218 0.402159 0.625590
0.296749 -0.040438 -0.257319 0.636280 -0.335093 0.694845 0.388751 0.624796
0.337340 -0.045017 -0.299375 0.725578 -0.354839 0.589526 0.388031 0.607697
0.259205 -0.000000 -0.215420 0.679128 0.000000 0.734001 0.398336 0.644779
0.254322 -0.034267 -0.218351 0.628681 -0.330424 0.703940 0.386983 0.642836
0.364690 -0.044275 -0.341371 0.864650 -0.372387 0.337138 0.385081 0.594564
0.373972 -0.000000 -0.339559 0.930631 0.000000 0.365886 0.396965 0.588124
0.373972 -0.000000 -0.339559 0.930631 0.000000 0.365886 0.685589 0.916495
0.364690 0.044275 -0.341371 0.864650 0.372387 0.337138 0.698401 0.923508
0.006248 -0.000000 -0.097732 -0.835139 0.000000 -0.549974 0.539903 0.497042
0.010295 0.027288 -0.095726 -0.784204 0.342448 -0.517411 0.539391 0.504515
0.029527 0.026924 -0.126022 -0.798578 0.341838 -0.495346 0.529625 0.503879
0.025471 -0.000000 -0.127870 -0.850551 0.000000 -0.525864 0.530268 0.496496
0.045629 0.026678 -0.152993 -0.808557 0.341197 -0.479324 0.521055 0.503157
0.041580 -0.000000 -0.154763 -0.860317 0.000000 -0.509720 0.521840 0.495851
0.022437 0.050028 -0.089710 -0.590686 0.704184 -0.393902 0.538627 0.511670
0.041695 0.049361 -0.120477 -0.601459 0.703085 -0.379345 0.528712 0.510983
0.006248 -0.000000 -0.097732 -0.835139 0.000000 -0.549974 0.537326 0.488940
0.025471 -0.000000 -0.127870 -0.850551 0.000000 -0.525864 0.527676 0.488918
0.029527 -0.026924 -0.126022 -0.798578 -0.341838 -0.495346 0.527467 0.481511
0.010295 -0.027288 -0.095726 -0.784204 -0.342418 -0.517411 0.537254 0.481449
0.041695 -0.049361 -0.120477 -0.601459 -0.703085 -0.379345 0.526973 0.474365
0.022437 -0.050028 -0.089710 -0.590686 -0.704184 -0.393902 0.536911 0.474261
0.041580 -0.000000 -0.154763 -0.860317 0.000000 -0.509720 0.519224 0.489067
0.045629 -0.026678 -0.152993 -0.808557 -0.341197 -0.479324 0.518870 0.481728
0.057775 -0.048910 -0.147684 -0.612232 -0.701926 -0.363933 0.518238 0.474621
-0.016071 -0.027457 -0.056851 -0.771599 -0.343059 -0.535600 0.549973 0.481653
-0.020072 0.000000 -0.059019 -0.821100 0.000000 -0.570727 0.549951 0.489153
-0.053578 -0.027117 -0.004139 -0.763085 -0.343760 -0.547258 0.567352 0.482176
-0.057472 0.000000 -0.006402 -0.811396 0.000000 -0.584460 0.567303 0.489549
-0.004070 -0.050337 -0.050347 -0.583361 -0.705130 -0.402997 0.549746 0.474486
-0.041897 -0.049715 0.002650 -0.579455 -0.705985 -0.407147 0.567174 0.475139
-0.020072 0.000000 -0.059019 -0.821100 0.000000 -0.570727 0.552518 0.497570
-0.016071 0.027457 -0.056851 -0.771599 0.343059 -0.535600 0.552100 0.505058
-0.004070 0.050337 -0.050347 -0.583361 0.705130 -0.402997 0.551453 0.512199
-0.057472 0.000000 -0.006402 -0.811396 0.000000 -0.584460 0.569863 0.498192
-0.053578 0.027118 -0.004139 -0.763085 0.343760 -0.547258 0.569479 0.505555
-0.041897 0.049715 0.002650 -0.579455 0.705985 -0.407147 0.568889 0.512570
0.138193 -0.069763 -0.185867 -0.050417 -0.993957 0.097232 0.497141 0.459851
0.113398 -0.065112 -0.198248 -0.343150 -0.934843 -0.091037 0.497887 0.467685
0.133784 -0.070539 -0.234166 -0.374371 -0.926664 -0.033143 0.486481 0.467831
0.160088 -0.075578 -0.219601 -0.086428 -0.984222 0.154302 0.485971 0.459670
0.160088 -0.075578 -0.219601 -0.086428 -0.984222 0.154302 0.355063 0.656787
0.133784 -0.070539 -0.234166 -0.374371 -0.926664 -0.033143 0.345202 0.657007
0.092736 -0.051160 -0.208565 -0.650655 -0.703726 -0.285257 0.498657 0.475157
0.111864 -0.055424 -0.246303 -0.678457 -0.698782 -0.226600 0.487088 0.475636
0.111864 -0.055424 -0.246303 -0.678457 -0.698782 -0.226600 0.335871 0.657505
0.186393 -0.070539 -0.205036 0.195135 -0.917722 0.345927 0.485582 0.451483
0.162987 -0.065112 -0.173487 0.237312 -0.927549 0.288583 0.496514 0.451976
0.208313 -0.055424 -0.192899 0.483291 -0.685110 0.544969 0.485464 0.443591
0.183649 -0.051160 -0.163170 0.531816 -0.692557 0.487320 0.496189 0.444386
0.186393 -0.070539 -0.205036 0.195135 -0.917722 0.345927 0.365077 0.656730
0.208313 -0.055424 -0.192899 0.483291 -0.685110 0.544969 0.374806 0.656999
0.143554 -0.062680 -0.145043 0.274728 -0.934629 0.225715 0.506299 0.452358
0.119269 -0.067158 -0.156100 -0.019929 -0.998993 0.039552 0.507127 0.460007
0.126603 -0.062249 -0.117601 0.300363 -0.937742 0.174261 0.515432 0.452532
0.102311 -0.066695 -0.128219 -0.000214 -0.999969 -0.003113 0.516340 0.460032
0.163791 -0.049249 -0.135829 0.578265 -0.699759 0.419385 0.505764 0.444983
0.146847 -0.048910 -0.108753 0.612476 -0.704367 0.358745 0.514786 0.445309
0.094985 -0.062680 -0.167156 -0.316965 -0.937284 -0.144871 0.508063 0.467605
0.074748 -0.049249 -0.176370 -0.626423 -0.703665 -0.335276 0.508950 0.474846
0.078018 -0.062249 -0.138837 -0.300790 -0.936460 -0.180364 0.517338 0.467494
0.076207 -0.000000 -0.216819 -0.895321 0.000000 -0.445387 0.502883 0.493627
0.080339 0.027905 -0.214755 -0.844417 0.342967 -0.411451 0.501697 0.501174
0.098711 0.030231 -0.253586 -0.870113 0.341350 -0.355419 0.490197 0.499649
0.094327 -0.000000 -0.256013 -0.920469 0.000000 -0.390728 0.491563 0.491618
0.094327 -0.000000 -0.256013 -0.920469 0.000000 -0.390728 0.771699 0.994568
0.098711 0.030231 -0.253586 -0.870113 0.341350 -0.355419 0.761293 0.992890
0.076207 -0.000000 -0.216819 -0.895321 0.000000 -0.445387 0.500170 0.490174
0.094327 -0.000000 -0.256013 -0.920469 0.000000 -0.390728 0.488751 0.491513
0.098711 -0.030231 -0.253586 -0.870113 -0.341350 -0.355419 0.487860 0.483416
0.080339 -0.027905 -0.214755 -0.844417 -0.342967 -0.411451 0.499430 0.482570
0.094327 -0.000000 -0.256013 -0.920469 0.000000 -0.390728 0.316968 0.660046
0.098711 -0.030231 -0.253586 -0.870113 -0.341350 -0.355419 0.326605 0.658534
0.062605 -0.026863 -0.181898 -0.821314 -0.342235 -0.456343 0.509666 0.482036
0.058558 -0.000000 -0.183741 -0.872585 0.000000 -0.488418 0.510189 0.489419
0.058558 -0.000000 -0.183741 -0.872585 0.000000 -0.488418 0.512841 0.494969
0.062605 0.026863 -0.181898 -0.821314 0.342235 -0.456343 0.511885 0.502309
0.200179 -0.000000 -0.154916 0.768029 0.000000 0.640370 0.497294 0.429054
0.196046 -0.027905 -0.156979 0.718711 -0.335490 0.608966 0.496457 0.436806
0.221465 -0.030231 -0.185617 0.668477 -0.332408 0.665273 0.485932 0.435639
0.225849 -0.000000 -0.183189 0.717887 0.000000 0.696127 0.487001 0.427334
0.225849 -0.000000 -0.183189 0.717887 0.000000 0.696127 0.394731 0.660046
0.221465 -0.030231 -0.185617 0.668477 -0.332408 0.665273 0.384578 0.658092
0.200179 -0.000000 -0.154916 0.768029 0.000000 0.640370 0.496421 0.554475
0.225849 -0.000000 -0.183189 0.717887 0.000000 0.696127 0.486044 0.555588
0.221465 0.030231 -0.185617 0.668477 0.332408 0.665273 0.485464 0.547234
0.196046 0.027905 -0.156979 0.718711 0.335490 0.608966 0.496041 0.546687
0.225849 -0.000000 -0.183189 0.717887 0.000000 0.696127 0.687675 0.994215
0.221465 0.030231 -0.185617 0.668477 0.332408 0.665273 0.698654 0.992151
0.175933 0.026863 -0.130301 0.770074 0.339335 0.540147 0.505372 0.546403
0.179980 -0.000000 -0.128459 0.820490 0.000000 0.571612 0.505422 0.553882
0.158993 0.026678 -0.103445 0.810175 0.342418 0.475723 0.514193 0.546449
0.163042 -0.000000 -0.101675 0.862209 0.000000 0.506516 0.513933 0.553792
0.179980 -0.000000 -0.128459 0.820490 0.000000 0.571612 0.506244 0.430175
0.175933 -0.026863 -0.130301 0.770074 -0.339335 0.540147 0.505755 0.437638
0.163042 -0.000000 -0.101675 0.862209 0.000000 0.506516 0.514733 0.430765
0.158993 -0.026678 -0.103445 0.810175 -0.342418 0.475723 0.514562 0.438110
-0.363640 0.000000 0.412113 -0.852840 0.000000 -0.522111 0.227421 0.626325
-0.360132 0.020403 0.412542 -0.807459 0.333201 -0.486740 0.226536 0.620025
-0.329542 0.021083 0.368363 -0.770196 0.327830 -0.547075 0.241315 0.614215
-0.332749 0.000000 0.367186 -0.814997 0.000000 -0.579424 0.243742 0.620444
-0.285682 0.021539 0.308911 -0.758934 0.333903 -0.559008 0.261664 0.603437
-0.288868 0.000000 0.307401 -0.804682 0.000000 -0.593677 0.264671 0.609680
-0.350228 0.037426 0.414656 -0.631611 0.688253 -0.356822 0.226030 0.614516
-0.319921 0.038653 0.371896 -0.594317 0.686880 -0.418287 0.239474 0.608339
-0.276125 0.039487 0.313444 -0.581927 0.694327 -0.423353 0.259118 0.597343
-0.363640 0.000000 0.412113 -0.852840 0.000000 -0.522111 0.787514 0.832302
-0.332749 0.000000 0.367186 -0.814997 0.000000 -0.579424 0.786442 0.849616
-0.329542 -0.021083 0.368363 -0.770196 -0.327830 -0.547075 0.779783 0.849032
-0.360132 -0.020403 0.412542 -0.807459 -0.333201 -0.486740 0.781220 0.833218
-0.319921 -0.038652 0.371896 -0.594317 -0.686880 -0.418287 0.773627 0.848911
-0.350228 -0.037426 0.414656 -0.631611 -0.688253 -0.356822 0.775790 0.834275
-0.288868 0.000000 0.307401 -0.804682 0.000000 -0.593677 0.781973 0.872723
-0.285682 -0.021538 0.308911 -0.758934 -0.333903 -0.559008 0.775138 0.871586
-0.276125 -0.039487 0.313444 -0.581927 -0.694327 -0.423353 0.768574 0.870849
-0.376787 -0.018500 0.442571 -0.880703 -0.367443 -0.298837 0.780153 0.823802
-0.381024 0.000000 0.443691 -0.944731 0.000000 -0.327830 0.785075 0.820936
-0.380646 -0.017360 0.461963 -0.891324 -0.426984 0.152226 0.777996 0.819112
-0.385284 0.000000 0.464624 -0.979400 0.000000 0.201758 0.781257 0.815099
-0.366562 -0.033997 0.442522 -0.695456 -0.695975 -0.178747 0.776011 0.826074
-0.371324 -0.029202 0.456700 -0.731925 -0.676504 0.081088 0.775685 0.822324
-0.381024 0.000000 0.443691 -0.944731 0.000000 -0.327830 0.215825 0.627169
-0.376787 0.018500 0.442571 -0.880703 0.367443 -0.298837 0.217197 0.621639
-0.366562 0.033998 0.442522 -0.695456 0.695975 -0.178747 0.218218 0.617026
-0.385284 0.000000 0.464624 -0.979400 0.000000 0.201758 0.209150 0.625137
-0.380646 0.017361 0.461963 -0.891324 0.426984 0.152226 0.212090 0.620883
-0.371324 0.029202 0.456700 -0.731925 0.676504 0.081088 0.214526 0.617764
0.066956 -0.068220 -0.067650 0.009125 -0.999847 -0.013428 0.535615 0.459739
0.042673 -0.063672 -0.079683 -0.285592 -0.937346 -0.199500 0.536309 0.467125
0.061975 -0.062823 -0.111236 -0.290384 -0.936705 -0.195532 0.526199 0.467239
0.086311 -0.067310 -0.100147 0.009980 -0.999756 -0.019105 0.525321 0.459827
0.110646 -0.062823 -0.089058 0.311533 -0.937284 0.156133 0.524515 0.452426
0.091239 -0.063672 -0.055618 0.305216 -0.936796 0.170934 0.534973 0.452397
0.130926 -0.049361 -0.079817 0.625233 -0.703757 0.337291 0.523916 0.445336
0.111475 -0.050028 -0.045591 0.613056 -0.702750 0.360881 0.534491 0.445385
0.063937 -0.064066 -0.013489 0.288369 -0.936338 0.200110 0.548272 0.452730
0.039935 -0.068642 -0.026498 0.000702 -0.999969 0.003082 0.548758 0.460031
0.024297 -0.063274 0.041123 0.269021 -0.935484 0.229011 0.565996 0.453690
0.000935 -0.067794 0.027544 -0.009980 -0.999725 0.020661 0.566369 0.460905
0.083940 -0.050337 -0.002648 0.587176 -0.702017 0.402966 0.547932 0.445747
0.043766 -0.049715 0.052438 0.558214 -0.700949 0.443831 0.565792 0.446776
0.015932 -0.064066 -0.039506 -0.286111 -0.938047 -0.195410 0.549290 0.467381
-0.022428 -0.063274 0.013966 -0.289254 -0.938475 -0.188574 0.566799 0.468150
0.127664 -0.000000 -0.037569 0.858699 0.000000 0.512436 0.534255 0.431012
0.123617 -0.027288 -0.039575 0.807337 -0.342143 0.480728 0.534254 0.438363
0.143094 -0.026924 -0.074272 0.823450 -0.342570 0.452254 0.523621 0.438263
0.147150 -0.000000 -0.072424 0.875759 0.000000 0.482711 0.523613 0.430952
0.127664 -0.000000 -0.037569 0.858699 0.000000 0.512436 0.533437 0.554691
0.147150 -0.000000 -0.072424 0.875759 0.000000 0.482711 0.522808 0.554126
0.143094 0.026924 -0.074272 0.823450 0.342570 0.452254 0.523246 0.546828
0.123617 0.027288 -0.039575 0.807337 0.342143 0.480728 0.533867 0.547352
0.130926 0.049360 -0.079817 0.625233 0.703757 0.337291 0.523955 0.539784
0.111475 0.050028 -0.045591 0.613056 0.702750 0.360881 0.534516 0.540356
0.095941 0.027457 0.003856 0.775903 0.341685 0.530259 0.547467 0.547784
0.099941 -0.000000 0.006024 0.825892 0.000000 0.563799 0.547225 0.555172
0.055447 0.027118 0.059228 0.741203 0.341014 0.578173 0.565567 0.547748
0.059341 -0.000000 0.061491 0.789697 0.000000 0.613483 0.565610 0.555068
0.083940 0.050337 -0.002648 0.587176 0.702017 0.402966 0.547955 0.540783
0.043766 0.049715 0.052438 0.558214 0.700949 0.443831 0.565846 0.540803
0.099941 -0.000000 0.006024 0.825892 0.000000 0.563799 0.548047 0.431340
0.095941 -0.027457 0.003856 0.775903 -0.341685 0.530259 0.547855 0.438730
0.059341 -0.000000 0.061491 0.789697 0.000000 0.613483 0.566393 0.432522
0.055447 -0.027118 0.059228 0.741203 -0.341014 0.578173 0.565921 0.439827
0.066956 0.068220 -0.067650 0.009125 0.999847 -0.013428 0.536480 0.526092
0.091239 0.063672 -0.055618 0.305216 0.936796 0.170934 0.535409 0.533383
0.110646 0.062822 -0.089058 0.311533 0.937284 0.156133 0.524970 0.532741
0.086311 0.067310 -0.100147 0.009980 0.999756 -0.019105 0.526209 0.525399
0.061975 0.062822 -0.111236 -0.290384 0.936705 -0.195532 0.527520 0.518051
0.042673 0.063672 -0.079683 -0.285592 0.937346 -0.199500 0.537607 0.518758
0.015932 0.064066 -0.039506 -0.286111 0.938047 -0.195410 0.550580 0.519265
0.039935 0.068642 -0.026498 0.000702 0.999969 0.003082 0.549618 0.526571
-0.022428 0.063274 0.013966 -0.289254 0.938475 -0.188574 0.568105 0.519525
0.000935 0.067794 0.027544 -0.009980 0.999725 0.020661 0.567251 0.526732
0.063938 0.064066 -0.013489 0.288369 0.936338 0.200110 0.548704 0.533831
0.024297 0.063274 0.041123 0.269021 0.935484 0.229011 0.566455 0.533913
-0.359370 0.000000 0.483144 -0.141606 0.000000 0.989898 0.771028 0.811266
-0.356790 -0.020464 0.479655 -0.145085 -0.396252 0.906583 0.770410 0.817424
-0.335876 -0.018971 0.478512 0.184210 -0.310129 0.932646 0.764928 0.818286
-0.336778 0.000000 0.481697 0.185614 0.000000 0.982604 0.763483 0.812526
-0.313657 -0.017361 0.471285 0.414075 -0.271584 0.868770 0.758937 0.821089
-0.312890 0.000000 0.473857 0.427717 0.000000 0.903897 0.755877 0.816405
-0.349087 -0.037263 0.469241 -0.120853 -0.759667 0.638936 0.769371 0.822377
-0.330414 -0.034586 0.469242 0.198157 -0.629353 0.751396 0.765028 0.823200
-0.315137 -0.029202 0.465945 0.380383 -0.496841 0.780023 0.760899 0.824176
-0.359370 0.000000 0.483144 -0.141606 0.000000 0.989898 0.202605 0.616389
-0.336778 0.000000 0.481697 0.185614 0.000000 0.982604 0.201703 0.608792
-0.335876 0.018971 0.478512 0.184179 0.310129 0.932646 0.207638 0.608567
-0.356790 0.020464 0.479655 -0.145085 0.396252 0.906583 0.208345 0.614071
-0.330414 0.034586 0.469242 0.198157 0.629353 0.751396 0.212383 0.607286
-0.349087 0.037264 0.469241 -0.120853 0.759667 0.638936 0.212809 0.611687
-0.312890 0.000000 0.473857 0.427717 0.000000 0.903897 0.203298 0.600405
-0.313657 0.017361 0.471285 0.414075 0.271584 0.868770 0.208651 0.602030
-0.315137 0.029202 0.465945 0.380383 0.496841 0.780023 0.212164 0.603049
-0.372847 0.018971 0.474232 -0.579272 0.452773 0.677786 0.209626 0.618152
-0.376803 0.000000 0.477614 -0.628285 0.000000 0.777947 0.205342 0.621877
-0.363889 0.034586 0.464006 -0.489547 0.779229 0.391278 0.213495 0.615217
-0.376803 0.000000 0.477614 -0.628285 0.000000 0.777947 0.777062 0.812357
-0.372847 -0.018971 0.474232 -0.579272 -0.452773 0.677786 0.774686 0.817511
-0.363889 -0.034586 0.464006 -0.489547 -0.779229 0.391278 0.772952 0.822047
-0.315719 -0.051129 0.424812 -0.022523 -0.995880 0.087680 0.765542 0.835729
-0.334550 -0.047688 0.419285 -0.332530 -0.932096 -0.143376 0.770741 0.835107
-0.303885 -0.049194 0.377784 -0.301309 -0.932157 -0.200690 0.767665 0.849135
-0.284643 -0.052708 0.384849 -0.008820 -0.999634 0.024659 0.761496 0.849350
-0.260197 -0.050257 0.320998 -0.293649 -0.934690 -0.200262 0.762029 0.870433
-0.241083 -0.053846 0.330063 -0.011536 -0.999634 0.023286 0.755195 0.870022
-0.265400 -0.049194 0.391915 0.277505 -0.925718 0.256905 0.755254 0.849317
-0.296358 -0.047688 0.429621 0.271859 -0.906156 0.323893 0.760121 0.836162
-0.249365 -0.038652 0.397803 0.552232 -0.675863 0.488083 0.749143 0.848804
-0.280148 -0.037426 0.433531 0.533555 -0.650227 0.540788 0.754636 0.835921
-0.221969 -0.050257 0.339128 0.266427 -0.930601 0.250954 0.748347 0.869439
-0.206041 -0.039487 0.346682 0.542589 -0.687429 0.482650 0.741784 0.868525
-0.317635 -0.043489 0.454171 0.239723 -0.833796 0.497269 0.763385 0.828292
-0.336299 -0.046733 0.451951 -0.062227 -0.953520 0.294748 0.767927 0.827556
-0.301785 -0.033997 0.455634 0.467147 -0.590289 0.658223 0.758614 0.828288
-0.352837 -0.043489 0.446858 -0.398175 -0.916105 0.046480 0.772016 0.827033
-0.267798 0.000000 0.437511 0.719535 0.000000 0.694418 0.743211 0.831244
-0.270776 -0.020403 0.436364 0.682180 -0.306253 0.663900 0.749058 0.834236
-0.239743 -0.021083 0.401336 0.711936 -0.319468 0.625324 0.742969 0.847364
-0.236536 0.000000 0.402513 0.751244 0.000000 0.659993 0.736600 0.844963
-0.196484 -0.021538 0.351214 0.709189 -0.328715 0.623646 0.735294 0.866919
-0.193298 0.000000 0.352725 0.751366 0.000000 0.659871 0.728691 0.864586
-0.267798 0.000000 0.437511 0.719535 0.000000 0.694418 0.213995 0.584091
-0.236536 0.000000 0.402513 0.751244 0.000000 0.659993 0.225312 0.573902
-0.239743 0.021083 0.401336 0.711936 0.319468 0.625324 0.229401 0.579343
-0.270776 0.020403 0.436364 0.682180 0.306253 0.663900 0.218505 0.588865
-0.249365 0.038652 0.397803 0.552232 0.675863 0.488083 0.232513 0.584867
-0.280148 0.037426 0.433531 0.533555 0.650227 0.540788 0.221685 0.593748
-0.193298 0.000000 0.352725 0.751366 0.000000 0.659871 0.241933 0.560814
-0.196484 0.021539 0.351214 0.709189 0.328715 0.623646 0.246022 0.566498
-0.206041 0.039487 0.346682 0.542589 0.687429 0.482650 0.249381 0.572278
-0.293685 0.018500 0.458458 0.587756 0.284433 0.757378 0.212081 0.595972
-0.291573 0.000000 0.460211 0.617481 0.000000 0.786554 0.207013 0.592586
-0.301785 0.033998 0.455634 0.467147 0.590289 0.658223 0.215472 0.599704
-0.291573 0.000000 0.460211 0.617481 0.000000 0.786554 0.749411 0.822161
-0.293685 -0.018500 0.458458 0.587756 -0.284433 0.757378 0.754082 0.826079
-0.315719 0.051129 0.424812 -0.022492 0.995880 0.087680 0.224555 0.604271
-0.296358 0.047688 0.429621 0.271859 0.906156 0.323893 0.223453 0.598946
-0.265400 0.049194 0.391915 0.277505 0.925718 0.256905 0.234717 0.590589
-0.284643 0.052708 0.384849 -0.008820 0.999634 0.024659 0.236497 0.596571
-0.221969 0.050257 0.339128 0.266427 0.930601 0.250954 0.252097 0.578322
-0.241083 0.053846 0.330063 -0.011536 0.999634 0.023286 0.254575 0.584731
-0.303885 0.049194 0.377784 -0.301309 0.932157 -0.200690 0.238019 0.602553
-0.334550 0.047688 0.419285 -0.332530 0.932096 -0.143376 0.225414 0.609436
-0.260197 0.050257 0.320998 -0.293649 0.934690 -0.200262 0.256885 0.591176
-0.352837 0.043489 0.446858 -0.398175 0.916105 0.046480 0.218020 0.612922
-0.336299 0.046733 0.451951 -0.062227 0.953520 0.294748 0.217377 0.608850
-0.317635 0.043489 0.454170 0.239723 0.833796 0.497269 0.216812 0.604283
-0.170577 0.000000 0.147632 -0.804010 0.000000 -0.594562 0.621010 0.500211
-0.167089 0.024375 0.149690 -0.756920 0.342814 -0.556322 0.620626 0.506816
-0.106230 0.025957 0.067665 -0.758599 0.343760 -0.553453 0.593302 0.506125
-0.109935 0.000000 0.065448 -0.806116 0.000000 -0.591723 0.593686 0.499092
-0.156624 0.044687 0.155865 -0.577654 0.704703 -0.411908 0.620035 0.513123
-0.095114 0.047588 0.074317 -0.578021 0.705802 -0.409497 0.592721 0.512837
-0.170577 0.000000 0.147632 -0.804010 0.000000 -0.594562 0.618482 0.490534
-0.109935 0.000000 0.065448 -0.806116 0.000000 -0.591723 0.591138 0.490049
-0.106230 -0.025957 0.067665 -0.758599 -0.343760 -0.553453 0.591167 0.483005
-0.167089 -0.024374 0.149690 -0.756920 -0.342814 -0.556322 0.618486 0.483918
-0.095114 -0.047588 0.074317 -0.578021 -0.705802 -0.409497 0.590981 0.476270
-0.156624 -0.044687 0.155865 -0.577654 -0.704703 -0.411908 0.618266 0.477587
-0.229219 -0.022769 0.233063 -0.756981 -0.339854 -0.558061 0.646324 0.484841
-0.232516 0.000000 0.231249 -0.803522 0.000000 -0.595233 0.646345 0.491022
-0.285682 -0.021538 0.308911 -0.758934 -0.333903 -0.559008 0.671641 0.485669
-0.288868 0.000000 0.307401 -0.804682 0.000000 -0.593677 0.671710 0.491513
-0.219327 -0.041742 0.238504 -0.578814 -0.701376 -0.415937 0.646032 0.478931
-0.276125 -0.039487 0.313444 -0.581927 -0.694327 -0.423353 0.671206 0.480107
-0.232516 0.000000 0.231249 -0.803522 0.000000 -0.595233 0.648853 0.501359
-0.229219 0.022769 0.233063 -0.756981 0.339854 -0.558061 0.648469 0.507528
-0.219327 0.041743 0.238504 -0.578814 0.701376 -0.415937 0.647831 0.513409
-0.288868 0.000000 0.307401 -0.804682 0.000000 -0.593677 0.674201 0.502356
-0.285682 0.021539 0.308911 -0.758934 0.333903 -0.559008 0.673790 0.508186
-0.276125 0.039487 0.313444 -0.581927 0.694327 -0.423353 0.673029 0.513713
-0.118251 -0.060936 0.178506 -0.019684 -0.999207 0.034181 0.617400 0.464706
-0.139181 -0.056874 0.166156 -0.293039 -0.938017 -0.184942 0.617857 0.471278
-0.076588 -0.060567 0.085404 -0.292184 -0.938353 -0.184667 0.590615 0.469561
-0.054357 -0.064893 0.098707 -0.017731 -0.999329 0.031190 0.590208 0.462581
-0.032126 -0.060567 0.112011 0.255348 -0.934751 0.246956 0.589874 0.455609
-0.097320 -0.056874 0.190855 0.251473 -0.933927 0.254006 0.617024 0.458133
-0.013600 -0.047588 0.123098 0.537614 -0.700125 0.469832 0.589744 0.448919
-0.079878 -0.044687 0.201147 0.530137 -0.698294 0.480911 0.616870 0.451821
-0.163272 -0.053127 0.269334 0.254769 -0.932463 0.256050 0.644344 0.460838
-0.183056 -0.056922 0.258453 -0.017762 -0.999298 0.032563 0.644884 0.466953
-0.221969 -0.050257 0.339128 0.266427 -0.930601 0.250954 0.668671 0.463275
-0.241083 -0.053846 0.330063 -0.011536 -0.999634 0.023286 0.669516 0.468958
-0.146785 -0.041742 0.278402 0.531388 -0.694174 0.485458 0.644047 0.454951
-0.206041 -0.039487 0.346682 0.542589 -0.687429 0.482650 0.668112 0.457771
-0.202840 -0.053127 0.247571 -0.293435 -0.937071 -0.189154 0.645498 0.473061
-0.260197 -0.050257 0.320998 -0.293649 -0.934690 -0.200262 0.670428 0.474630
-0.065924 0.000000 0.209380 0.751885 0.000000 0.659261 0.617883 0.438925
-0.069412 -0.024374 0.207321 0.705679 -0.338694 0.622303 0.617154 0.445500
-0.002485 -0.025957 0.129750 0.716330 -0.340281 0.609119 0.590014 0.442213
0.001220 0.000000 0.131967 0.763634 0.000000 0.645619 0.590692 0.435212
-0.065924 0.000000 0.209380 0.751885 0.000000 0.659261 0.617386 0.551694
0.001220 0.000000 0.131967 0.763634 0.000000 0.645619 0.590025 0.553807
-0.002485 0.025957 0.129750 0.716330 0.340281 0.609119 0.589758 0.546779
-0.069412 0.024375 0.207321 0.705679 0.338694 0.622303 0.617044 0.545088
-0.013600 0.047588 0.123098 0.537614 0.700125 0.469832 0.589882 0.540068
-0.079878 0.044687 0.201147 0.530137 0.698294 0.480911 0.617131 0.538762
-0.136893 0.022769 0.283843 0.703116 0.335002 0.627186 0.644282 0.543145
-0.133596 0.000000 0.285657 0.747734 0.000000 0.663991 0.644596 0.549320
-0.196484 0.021539 0.351214 0.709189 0.328715 0.623646 0.668313 0.541396
-0.193298 0.000000 0.352725 0.751366 0.000000 0.659871 0.668554 0.547237
-0.146785 0.041743 0.278402 0.531388 0.694174 0.485458 0.644444 0.537231
-0.206041 0.039487 0.346682 0.542589 0.687429 0.482650 0.668630 0.535827
-0.133596 0.000000 0.285657 0.747734 0.000000 0.663991 0.644908 0.442891
-0.136893 -0.022769 0.283843 0.703116 -0.335002 0.627186 0.644233 0.449037
-0.193298 0.000000 0.352725 0.751366 0.000000 0.659871 0.668705 0.446375
-0.196484 -0.021538 0.351214 0.709189 -0.328715 0.623646 0.668121 0.452192
-0.118251 0.060936 0.178506 -0.019684 0.999207 0.034181 0.618416 0.525931
-0.097320 0.056874 0.190855 0.251473 0.933927 0.254006 0.617655 0.532470
-0.032126 0.060567 0.112011 0.255348 0.934751 0.246956 0.590405 0.533397
-0.054357 0.064893 0.098707 -0.017731 0.999329 0.031190 0.591146 0.526457
-0.076588 0.060567 0.085404 -0.292184 0.938353 -0.184667 0.591962 0.519513
-0.139181 0.056874 0.166156 -0.293039 0.938017 -0.184942 0.619257 0.519397
-0.202840 0.053127 0.247571 -0.293405 0.937071 -0.189154 0.646953 0.519238
-0.183056 0.056922 0.258453 -0.017762 0.999298 0.032563 0.645983 0.525299
-0.260197 0.050257 0.320998 -0.293649 0.934690 -0.200262 0.671931 0.519134
-0.241083 0.053846 0.330063 -0.011536 0.999634 0.023286 0.670688 0.524743
-0.163272 0.053127 0.269334 0.254769 0.932463 0.256050 0.645085 0.531371
-0.221969 0.050257 0.339128 0.266427 0.930601 0.250954 0.669512 0.530366
4 0 1 2 3
4 3 2 4 5
4 1 6 7 2
4 2 7 8 4
4 9 10 11 12
4 12 11 13 14
4 10 15 16 11
4 11 16 17 13
4 9 12 18 19
4 19 18 20 21
4 12 14 22 18
4 18 22 23 20
4 0 24 25 1
4 1 25 26 6
4 24 27 28 25
4 25 28 29 26
4 30 31 32 33
4 33 32 34 35
4 31 14 13 32
4 32 13 17 34
4 30 33 36 37
4 37 36 38 39
4 33 35 40 36
4 36 40 41 38
4 30 37 42 43
4 43 42 44 45
4 37 39 46 42
4 42 46 47 44
4 30 43 48 31
4 31 48 22 14
4 43 45 49 48
4 48 49 23 22
4 50 51 52 53
4 54 55 56 57
4 51 58 59 52
4 55 60 61 56
4 50 53 62 63
4 63 62 64 65
4 54 57 66 67
4 67 66 68 69
4 50 63 70 71
4 71 70 72 73
4 63 65 74 70
4 70 74 75 72
4 50 71 76 51
4 51 76 77 58
4 71 73 78 76
4 76 78 79 77
4 80 81 82 83
4 83 82 84 85
4 81 57 56 82
4 82 56 61 84
4 80 83 86 87
4 87 86 7 6
4 83 85 88 86
4 86 88 8 7
4 80 87 89 90
4 90 89 91 92
4 87 6 26 89
4 89 26 29 91
4 80 90 93 81
4 81 93 66 57
4 90 92 94 93
4 93 94 68 66
4 95 96 97 98
4 98 97 28 27
4 96 92 91 97
4 97 91 29 28
4 99 100 101 102
4 102 101 49 45
4 100 21 20 101
4 101 20 23 49
4 99 102 103 104
4 104 103 105 106
4 102 45 44 103
4 103 44 47 105
4 95 107 108 96
4 96 108 94 92
4 107 109 110 108
4 108 110 68 94
4 111 112 113 114
4 114 113 115 116
4 112 85 84 113
4 113 84 61 115
4 117 118 119 120
4 120 119 40 35
4 118 121 122 119
4 119 122 41 40
4 117 120 123 124
4 124 123 16 15
4 120 35 34 123
4 123 34 17 16
4 111 125 126 112
4 112 126 88 85
4 125 5 4 126
4 126 4 8 88
4 127 128 129 130
4 130 129 131 132
4 128 133 134 129
4 129 134 75 131
4 135 136 137 138
4 138 137 139 140
4 136 141 142 137
4 137 142 143 139
4 135 138 144 145
4 145 144 146 147
4 138 140 148 144
4 144 148 149 146
4 127 150 151 128
4 128 151 152 133
4 150 153 154 151
4 151 154 155 152
4 156 157 158 159
4 160 161 46 39
4 157 162 163 158
4 161 164 47 46
4 156 159 165 166
4 166 165 167 168
4 160 39 38 169
4 169 38 41 170
4 156 166 171 172
4 172 171 173 174
4 166 168 175 171
4 171 175 176 173
4 156 172 177 157
4 157 177 178 162
4 172 174 179 177
4 177 179 143 178
4 180 181 182 183
4 184 185 110 109
4 181 65 64 182
4 185 69 68 110
4 186 187 188 189
4 189 188 163 162
4 190 106 105 191
4 191 105 47 164
4 186 189 192 193
4 193 192 142 141
4 189 162 178 192
4 192 178 143 142
4 180 194 195 181
4 181 195 74 65
4 194 132 131 195
4 195 131 75 74
4 196 197 198 199
4 200 201 122 121
4 197 168 167 198
4 201 170 41 122
4 202 203 204 205
4 205 204 59 58
4 206 116 115 207
4 207 115 61 60
4 202 205 208 209
4 209 208 210 211
4 205 58 77 208
4 208 77 79 210
4 196 212 213 197
4 197 213 175 168
4 212 214 215 213
4 213 215 176 175
4 216 217 218 219
4 219 218 220 221
4 217 222 223 218
4 218 223 224 220
4 225 226 227 228
4 228 227 229 230
4 226 231 232 227
4 227 232 233 229
4 225 228 234 235
4 235 234 236 237
4 228 230 238 234
4 234 238 239 236
4 216 240 241 217
4 217 241 242 222
4 240 243 244 241
4 241 244 245 242
4 246 247 248 249
4 249 248 179 174
4 247 140 139 248
4 248 139 143 179
4 246 249 250 251
4 251 250 252 253
4 249 174 173 250
4 250 173 176 252
4 246 251 254 255
4 255 254 256 257
4 251 253 258 254
4 254 258 259 256
4 246 255 260 247
4 247 260 148 140
4 255 257 261 260
4 260 261 149 148
4 262 263 264 265
4 265 264 215 214
4 263 253 252 264
4 264 252 176 215
4 266 267 268 269
4 269 268 270 271
4 267 211 210 268
4 268 210 79 270
4 266 269 272 273
4 273 272 274 275
4 269 271 276 272
4 272 276 277 274
4 262 278 279 263
4 263 279 258 253
4 278 280 281 279
4 279 281 259 258
4 282 283 284 285
4 285 284 78 73
4 283 271 270 284
4 284 270 79 78
4 282 285 286 287
4 287 286 134 133
4 285 73 72 286
4 286 72 75 134
4 282 287 288 289
4 289 288 290 291
4 287 133 152 288
4 288 152 155 290
4 282 289 292 283
4 283 292 276 271
4 289 291 293 292
4 292 293 277 276
4 294 295 296 297
4 297 296 298 299
4 295 300 301 296
4 296 301 302 298
4 303 304 305 306
4 306 305 307 308
4 304 309 310 305
4 305 310 311 307
4 303 306 312 313
4 313 312 244 243
4 306 308 314 312
4 312 314 245 244
4 294 315 316 295
4 295 316 317 300
4 315 237 236 316
4 316 236 239 317
4 318 319 320 321
4 321 320 322 323
4 319 230 229 320
4 320 229 233 322
4 318 321 324 325
4 325 324 326 327
4 321 323 328 324
4 324 328 329 326
4 318 325 330 331
4 331 330 301 300
4 325 327 332 330
4 330 332 302 301
4 318 331 333 319
4 319 333 238 230
4 331 300 317 333
4 333 317 239 238
4 334 335 336 337
4 337 336 338 339
4 335 327 326 336
4 336 326 329 338
4 340 341 342 343
4 343 342 344 345
4 341 346 347 342
4 342 347 348 344
4 340 343 349 350
4 350 349 310 309
4 343 345 351 349
4 349 351 311 310
4 334 352 353 335
4 335 353 332 327
4 352 299 298 353
4 353 298 302 332
4 354 355 356 357
4 357 356 358 359
4 355 345 344 356
4 356 344 348 358
4 354 357 360 361
4 361 360 223 222
4 357 359 362 360
4 360 362 224 223
4 354 361 363 364
4 364 363 314 308
4 361 222 242 363
4 363 242 245 314
4 354 364 365 355
4 355 365 351 345
4 364 308 307 365
4 365 307 311 351
4 366 367 368 369
4 369 368 154 153
4 367 370 371 368
4 368 371 155 154
4 372 373 374 375
4 375 374 376 377
4 373 147 146 374
4 374 146 149 376
4 372 375 378 379
4 379 378 380 381
4 375 377 382 378
4 378 382 383 380
4 366 384 385 367
4 367 385 386 370
4 384 387 388 385
4 385 388 389 386
4 390 391 392 393
4 393 392 261 257
4 391 377 376 392
4 392 376 149 261
4 390 393 394 395
4 395 394 396 397
4 393 257 256 394
4 394 256 259 396
4 390 395 398 399
4 399 398 400 401
4 395 397 402 398
4 398 402 403 400
4 390 399 404 391
4 391 404 382 377
4 399 401 405 404
4 404 405 383 382
4 406 407 408 409
4 409 408 281 280
4 407 397 396 408
4 408 396 259 281
4 410 411 412 413
4 413 412 414 415
4 411 275 274 412
4 412 274 277 414
4 410 413 416 417
4 417 416 418 419
4 413 415 420 416
4 416 420 421 418
4 406 422 423 407
4 407 423 402 397
4 422 424 425 423
4 423 425 403 402
4 426 427 428 429
4 429 428 293 291
4 427 415 414 428
4 428 414 277 293
4 426 429 430 431
4 431 430 371 370
4 429 291 290 430
4 430 290 155 371
4 426 431 432 433
4 433 432 434 435
4 431 370 386 432
4 432 386 389 434
4 426 433 436 427
4 427 436 420 415
4 433 435 437 436
4 436 437 421 420
