ply
format ascii 1.0
comment Created by Blender 2.69 (sub 0) - www.blender.org, source file: 'ant.blend'
element vertex 438
property float x
property float y
property float z
property float nx
property float ny
property float nz
property float s
property float t
element face 352
property list uchar uint vertex_indices
end_header
-0.317541 0.000000 -0.464816 -0.537889 0.000000 -0.842982 0.907986 0.875277
-0.313015 -0.055351 -0.457722 -0.503555 -0.351451 -0.789209 0.918867 0.882338
-0.351347 -0.050525 -0.423868 -0.764580 -0.355327 -0.537675 0.914247 0.890839
-0.359676 0.000000 -0.427948 -0.799860 0.000000 -0.600146 0.902754 0.889043
-0.371719 -0.044136 -0.382979 -0.922086 -0.369060 -0.116276 0.912636 0.899695
-0.382054 0.000000 -0.383870 -0.990570 0.000000 -0.136937 0.902754 0.901670
-0.299502 -0.097926 -0.436545 -0.348704 -0.761376 -0.546495 0.925819 0.886814
-0.333314 -0.089693 -0.407484 -0.630634 -0.714774 -0.302225 0.922120 0.892829
-0.351227 -0.073543 -0.380886 -0.779138 -0.623768 -0.061403 0.919297 0.898304
-0.317541 0.000000 -0.464816 -0.537889 0.000000 -0.842982 0.965645 0.787439
-0.359676 0.000000 -0.427948 -0.799860 0.000000 -0.600146 0.975968 0.797940
-0.351347 0.050525 -0.423868 -0.764580 0.355327 -0.537675 0.966167 0.804204
-0.313015 0.055351 -0.457722 -0.503555 0.351451 -0.789209 0.958520 0.798278
-0.333314 0.089693 -0.407484 -0.630634 0.714774 -0.302225 0.959758 0.809191
-0.299502 0.097926 -0.436545 -0.348704 0.761376 -0.546495 0.953953 0.805171
-0.382054 0.000000 -0.383870 -0.990570 0.000000 -0.136937 0.981044 0.809501
-0.371719 0.044136 -0.382979 -0.922086 0.369060 -0.116276 0.971203 0.811666
-0.351227 0.073543 -0.380886 -0.779138 0.623768 -0.061403 0.964544 0.813069
-0.266162 0.050525 -0.478223 -0.165502 0.355327 -0.919950 0.950091 0.793607
-0.266353 0.000000 -0.487496 -0.207282 0.000000 -0.978271 0.951930 0.782221
-0.220496 0.044136 -0.479472 0.283029 0.369060 -0.885250 0.941348 0.791941
-0.216950 0.000000 -0.489220 0.293130 0.000000 -0.956053 0.939457 0.782221
-0.258901 0.089693 -0.454966 -0.008393 0.714774 -0.699271 0.948022 0.801398
-0.227232 0.073543 -0.460005 0.272561 0.623768 -0.732505 0.942644 0.798525
-0.266353 0.000000 -0.487496 -0.207282 0.000000 -0.978271 0.918448 0.864986
-0.266162 -0.050525 -0.478223 -0.165502 -0.355327 -0.919950 0.924708 0.874673
-0.258901 -0.089693 -0.454966 -0.008393 -0.714774 -0.699271 0.929734 0.880976
-0.216950 0.000000 -0.489220 0.293130 0.000000 -0.956053 0.929869 0.859973
-0.220496 -0.044136 -0.479472 0.283029 -0.369060 -0.885250 0.932044 0.869634
-0.227232 -0.073543 -0.460005 0.272561 -0.623768 -0.732505 0.933504 0.876184
-0.248563 0.113607 -0.356791 0.058382 0.993988 0.092593 0.945273 0.818111
-0.277070 0.114948 -0.401390 -0.103732 0.981231 -0.162481 0.950191 0.810817
-0.312530 0.106148 -0.374654 -0.411542 0.910123 0.047517 0.956060 0.814902
-0.286087 0.105749 -0.331931 -0.243721 0.928617 0.279641 0.952116 0.822499
-0.342368 0.081880 -0.351504 -0.679403 0.696585 0.230476 0.962775 0.818500
-0.317430 0.082708 -0.310997 -0.539109 0.703024 0.463759 0.959257 0.826431
-0.251078 0.094355 -0.285869 -0.158208 0.909787 0.383648 0.945891 0.832398
-0.216824 0.101095 -0.307282 0.123295 0.972320 0.198401 0.938637 0.827663
-0.215260 0.079955 -0.241796 -0.156621 0.907285 0.390210 0.937884 0.843829
-0.185963 0.085666 -0.259380 0.121036 0.971801 0.202277 0.930597 0.838832
-0.279622 0.074136 -0.268026 -0.447768 0.683737 0.576159 0.953189 0.836850
-0.239674 0.062822 -0.227143 -0.442244 0.678762 0.586200 0.945081 0.848635
-0.182571 0.094355 -0.328694 0.408002 0.912809 0.016053 0.931668 0.822645
-0.210107 0.105749 -0.380190 0.354472 0.929197 -0.104312 0.938678 0.813442
-0.154027 0.074136 -0.346538 0.704947 0.688253 -0.171209 0.925020 0.817615
-0.177832 0.082708 -0.399664 0.645466 0.703909 -0.296396 0.932441 0.808420
-0.156667 0.079955 -0.276963 0.404828 0.914151 0.019471 0.923595 0.833747
-0.132253 0.062822 -0.291617 0.704489 0.689200 -0.169195 0.916990 0.828944
-0.237883 0.106148 -0.422285 0.216254 0.910123 -0.353374 0.944201 0.806970
-0.204317 0.081881 -0.439592 0.494858 0.696585 -0.519486 0.938377 0.802206
-0.138193 -0.069763 -0.185867 0.050417 -0.993957 0.097232 0.875323 0.801634
-0.162987 -0.065112 -0.173487 -0.237312 -0.927549 0.288583 0.869020 0.801259
-0.186393 -0.070539 -0.205036 -0.195135 -0.917722 0.345927 0.868365 0.792449
-0.160088 -0.075578 -0.219601 0.086428 -0.984222 0.154302 0.875058 0.792611
-0.215260 -0.079955 -0.241796 -0.156621 -0.907285 0.390210 0.867609 0.782221
-0.185963 -0.085666 -0.259380 0.121036 -0.971801 0.202277 0.874837 0.782221
-0.183649 -0.051160 -0.163170 -0.531816 -0.692557 0.487320 0.862969 0.801199
-0.208313 -0.055424 -0.192899 -0.483291 -0.685110 0.544969 0.861942 0.792634
-0.239674 -0.062822 -0.227143 -0.442244 -0.678762 0.586200 0.860649 0.782582
-0.133784 -0.070539 -0.234166 0.374371 -0.926664 -0.033143 0.881718 0.792985
-0.113398 -0.065112 -0.198248 0.343150 -0.934843 -0.091037 0.881584 0.802184
-0.111864 -0.055424 -0.246303 0.678457 -0.698782 -0.226600 0.888048 0.793545
-0.092736 -0.051160 -0.208565 0.650655 -0.703726 -0.285257 0.887526 0.802820
-0.156667 -0.079955 -0.276964 0.404828 -0.914151 0.019471 0.882030 0.782460
-0.132253 -0.062822 -0.291617 0.704489 -0.689200 -0.169195 0.888883 0.782962
-0.094985 -0.062680 -0.167156 0.316965 -0.937284 -0.144871 0.881548 0.810256
-0.119269 -0.067158 -0.156100 0.019929 -0.998993 0.039552 0.875548 0.809567
-0.078018 -0.062249 -0.138837 0.300790 -0.936460 -0.180395 0.881503 0.817543
-0.102311 -0.066695 -0.128219 0.000214 -0.999969 -0.003113 0.875653 0.816813
-0.074748 -0.049249 -0.176370 0.626423 -0.703665 -0.335276 0.887246 0.810946
-0.057775 -0.048910 -0.147684 0.612232 -0.701926 -0.363933 0.887079 0.818222
-0.143554 -0.062680 -0.145043 -0.274728 -0.934629 0.225715 0.869503 0.809013
-0.163791 -0.049249 -0.135829 -0.578265 -0.699759 0.419385 0.863691 0.808735
-0.126603 -0.062249 -0.117601 -0.300363 -0.937742 0.174261 0.869771 0.816184
-0.146847 -0.048910 -0.108753 -0.612476 -0.704367 0.358745 0.864119 0.815788
-0.248563 -0.113607 -0.356791 0.058382 -0.993988 0.092593 0.938969 0.895175
-0.216824 -0.101095 -0.307282 0.123295 -0.972320 0.198401 0.948884 0.901254
-0.251078 -0.094355 -0.285869 -0.158208 -0.909787 0.383648 0.944146 0.908504
-0.286087 -0.105749 -0.331931 -0.243721 -0.928617 0.279641 0.934467 0.901943
-0.279622 -0.074136 -0.268026 -0.447768 -0.683737 0.576159 0.939253 0.915515
-0.317430 -0.082708 -0.310997 -0.539109 -0.703024 0.463759 0.929509 0.908414
-0.185963 -0.085666 -0.259380 0.121036 -0.971801 0.202277 0.960735 0.908249
-0.215260 -0.079955 -0.241796 -0.156621 -0.907285 0.390210 0.956072 0.915753
-0.239674 -0.062822 -0.227143 -0.442244 -0.678762 0.586200 0.951414 0.923047
-0.312530 -0.106148 -0.374654 -0.411542 -0.910123 0.047517 0.927803 0.896572
-0.277070 -0.114948 -0.401390 -0.103732 -0.981231 -0.162481 0.931534 0.890472
-0.342368 -0.081880 -0.351504 -0.679403 -0.696585 0.230476 0.923099 0.902566
-0.237883 -0.106148 -0.422285 0.216254 -0.910123 -0.353374 0.935472 0.884542
-0.210107 -0.105749 -0.380190 0.354472 -0.929197 -0.104312 0.943131 0.888249
-0.204317 -0.081880 -0.439592 0.494858 -0.696585 -0.519486 0.938891 0.877839
-0.177832 -0.082708 -0.399664 0.645466 -0.703909 -0.296396 0.946824 0.881143
-0.182571 -0.094355 -0.328694 0.408002 -0.912809 0.016053 0.953249 0.893857
-0.156667 -0.079955 -0.276964 0.404828 -0.914151 0.019471 0.965103 0.900778
-0.154027 -0.074136 -0.346538 0.704947 -0.688253 -0.171209 0.957315 0.886579
-0.132253 -0.062822 -0.291617 0.704489 -0.689200 -0.169195 0.969220 0.893726
-0.152689 0.000000 -0.417689 0.896084 0.000000 -0.443861 0.953993 0.863002
-0.158854 -0.045017 -0.412746 0.838069 -0.355419 -0.413831 0.950234 0.872948
-0.185723 -0.044275 -0.455567 0.669515 -0.372417 -0.642659 0.940388 0.869588
-0.180169 0.000000 -0.463221 0.723350 0.000000 -0.690451 0.941058 0.859367
-0.152689 0.000000 -0.417689 0.896084 0.000000 -0.443861 0.918585 0.794691
-0.180169 0.000000 -0.463221 0.723350 0.000000 -0.690451 0.928968 0.786163
-0.185723 0.044275 -0.455567 0.669515 0.372417 -0.642659 0.933689 0.795253
-0.158854 0.045017 -0.412746 0.838069 0.355419 -0.413831 0.926024 0.802287
-0.136900 0.040438 -0.357244 0.893216 0.338054 -0.296426 0.917955 0.812555
-0.131191 0.000000 -0.360813 0.943632 0.000000 -0.330943 0.909673 0.807072
-0.117604 0.034267 -0.300409 0.893124 0.337138 -0.297678 0.910178 0.824503
-0.112722 0.000000 -0.303339 0.942717 0.000000 -0.333537 0.902754 0.820242
-0.131191 0.000000 -0.360813 0.943632 0.000000 -0.330943 0.967130 0.870758
-0.136900 -0.040438 -0.357244 0.893216 -0.338054 -0.296426 0.961750 0.879107
-0.112722 0.000000 -0.303339 0.942717 0.000000 -0.333537 0.978758 0.880035
-0.117604 -0.034267 -0.300409 0.893124 -0.337138 -0.297678 0.973673 0.886921
-0.344437 0.000000 -0.295893 -0.776879 0.000000 0.629627 0.915605 0.923033
-0.337340 -0.045017 -0.299375 -0.725578 -0.354839 0.589526 0.923378 0.915081
-0.296749 -0.040438 -0.257319 -0.636280 -0.335093 0.694845 0.934229 0.923169
-0.302457 0.000000 -0.253751 -0.687429 0.000000 0.726218 0.928683 0.932118
-0.254322 -0.034267 -0.218351 -0.628681 -0.330424 0.703940 0.946800 0.930470
-0.259205 0.000000 -0.215420 -0.679128 0.000000 0.734001 0.942511 0.938580
-0.344437 0.000000 -0.295893 -0.776879 0.000000 0.629627 0.977865 0.834229
-0.302457 0.000000 -0.253751 -0.687429 0.000000 0.726218 0.969542 0.847804
-0.296749 0.040438 -0.257319 -0.636280 0.335093 0.694845 0.960866 0.841839
-0.337340 0.045017 -0.299375 -0.725578 0.354839 0.589526 0.967551 0.830072
-0.259205 0.000000 -0.215420 -0.679128 0.000000 0.734001 0.959478 0.859280
-0.254322 0.034267 -0.218351 -0.628681 0.330424 0.703940 0.952290 0.853578
-0.364690 0.044275 -0.341371 -0.864650 0.372387 0.337138 0.971156 0.820161
-0.373972 0.000000 -0.339559 -0.930631 0.000000 0.365886 0.981653 0.820951
-0.373972 0.000000 -0.339559 -0.930631 0.000000 0.365886 0.906799 0.912398
-0.364690 -0.044275 -0.341371 -0.864650 -0.372387 0.337138 0.916093 0.907455
-0.006248 0.000000 -0.097732 0.835139 0.000000 -0.549974 0.898263 0.833021
-0.010295 -0.027288 -0.095726 0.784204 -0.342418 -0.517411 0.892455 0.832994
-0.029527 -0.026924 -0.126022 0.798578 -0.341838 -0.495346 0.892467 0.825396
-0.025471 0.000000 -0.127870 0.850551 0.000000 -0.525864 0.898218 0.825543
-0.045629 -0.026678 -0.152993 0.808557 -0.341197 -0.479324 0.892622 0.818709
-0.041580 0.000000 -0.154763 0.860317 0.000000 -0.509720 0.898328 0.818989
-0.022437 -0.050028 -0.089710 0.590686 -0.704184 -0.393902 0.886874 0.832761
-0.041695 -0.049361 -0.120477 0.601459 -0.703085 -0.379345 0.886908 0.825034
-0.006248 0.000000 -0.097732 0.835139 0.000000 -0.549974 0.794645 0.833021
-0.025471 0.000000 -0.127870 0.850551 0.000000 -0.525864 0.794690 0.825544
-0.029527 0.026924 -0.126022 0.798578 0.341838 -0.495346 0.800440 0.825397
-0.010295 0.027288 -0.095726 0.784204 0.342418 -0.517411 0.800452 0.832995
-0.041695 0.049361 -0.120477 0.601459 0.703085 -0.379345 0.805999 0.825036
-0.022437 0.050028 -0.089710 0.590686 0.704184 -0.393902 0.806032 0.832763
-0.041580 0.000000 -0.154763 0.860317 0.000000 -0.509720 0.794581 0.818991
-0.045629 0.026678 -0.152993 0.808557 0.341197 -0.479324 0.800286 0.818710
-0.057775 0.048910 -0.147684 0.612232 0.701926 -0.363933 0.805829 0.818224
0.016071 0.027457 -0.056851 0.771599 0.343059 -0.535600 0.800229 0.842853
0.020072 0.000000 -0.059019 0.821100 0.000000 -0.570727 0.794420 0.842796
0.053578 0.027118 -0.004139 0.763085 0.343760 -0.547258 0.799719 0.856306
0.057472 0.000000 -0.006402 0.811396 0.000000 -0.584460 0.794013 0.856223
0.004070 0.050337 -0.050347 0.583361 0.705130 -0.402997 0.805784 0.842718
0.041897 0.049715 0.002650 0.579455 0.705985 -0.407147 0.805168 0.856213
0.020072 0.000000 -0.059019 0.821100 0.000000 -0.570727 0.898485 0.842797
0.016071 -0.027457 -0.056851 0.771599 -0.343059 -0.535600 0.892676 0.842853
0.004070 -0.050337 -0.050347 0.583361 -0.705130 -0.402997 0.887121 0.842716
0.057472 0.000000 -0.006402 0.811396 0.000000 -0.584460 0.898890 0.856225
0.053578 -0.027118 -0.004139 0.763085 -0.343760 -0.547258 0.893184 0.856307
0.041897 -0.049715 0.002650 0.579455 -0.705985 -0.407147 0.887734 0.856212
-0.138193 0.069763 -0.185867 0.050417 0.993957 0.097232 0.817586 0.801636
-0.113398 0.065112 -0.198248 0.343150 0.934843 -0.091037 0.811325 0.802186
-0.133784 0.070539 -0.234166 0.374371 0.926664 -0.033143 0.811191 0.792986
-0.160088 0.075578 -0.219601 0.086428 0.984222 0.154302 0.817851 0.792612
-0.156667 0.079955 -0.276963 0.404828 0.914151 0.019471 0.810879 0.782460
-0.185963 0.085666 -0.259380 0.121036 0.971801 0.202277 0.818073 0.782221
-0.092736 0.051160 -0.208565 0.650655 0.703726 -0.285257 0.805383 0.802822
-0.111864 0.055424 -0.246303 0.678457 0.698782 -0.226600 0.804860 0.793546
-0.132253 0.062822 -0.291617 0.704489 0.689200 -0.169195 0.804025 0.782962
-0.186393 0.070539 -0.205036 -0.195135 0.917722 0.345927 0.824545 0.792450
-0.162987 0.065112 -0.173487 -0.237312 0.927549 0.288583 0.823890 0.801261
-0.208313 0.055424 -0.192899 -0.483291 0.685110 0.544969 0.830969 0.792636
-0.183649 0.051160 -0.163170 -0.531816 0.692557 0.487320 0.829941 0.801201
-0.215260 0.079955 -0.241796 -0.156621 0.907285 0.390210 0.825302 0.782221
-0.239674 0.062822 -0.227143 -0.442244 0.678762 0.586200 0.832263 0.782582
-0.143554 0.062680 -0.145043 -0.274728 0.934629 0.225715 0.823407 0.809015
-0.119269 0.067158 -0.156100 0.019929 0.998993 0.039552 0.817361 0.809570
-0.126603 0.062249 -0.117601 -0.300363 0.937742 0.174261 0.823137 0.816187
-0.102311 0.066695 -0.128219 0.000214 0.999969 -0.003113 0.817255 0.816816
-0.163791 0.049249 -0.135829 -0.578265 0.699759 0.419385 0.829219 0.808738
-0.146847 0.048910 -0.108753 -0.612476 0.704367 0.358745 0.828791 0.815791
-0.094985 0.062680 -0.167156 0.316965 0.937284 -0.144871 0.811361 0.810258
-0.074748 0.049249 -0.176370 0.626423 0.703665 -0.335276 0.805662 0.810948
-0.078018 0.062249 -0.138837 0.300790 0.936460 -0.180395 0.811405 0.817545
-0.076207 0.000000 -0.216819 0.895321 0.000000 -0.445387 0.899306 0.804202
-0.080339 -0.027905 -0.214755 0.844417 -0.342967 -0.411451 0.893371 0.803509
-0.098711 -0.030231 -0.253586 0.870113 -0.341350 -0.355419 0.894275 0.794357
-0.094327 0.000000 -0.256013 0.920469 0.000000 -0.390728 0.900600 0.795360
-0.117604 -0.034267 -0.300409 0.893124 -0.337138 -0.297678 0.895661 0.783879
-0.112722 0.000000 -0.303339 0.942717 0.000000 -0.333537 0.902668 0.785136
-0.076207 0.000000 -0.216819 0.895321 0.000000 -0.445387 0.793602 0.804204
-0.094327 0.000000 -0.256013 0.920469 0.000000 -0.390728 0.792308 0.795362
-0.098711 0.030231 -0.253586 0.870113 0.341350 -0.355419 0.798633 0.794359
-0.080339 0.027905 -0.214755 0.844417 0.342967 -0.411451 0.799537 0.803510
-0.112722 0.000000 -0.303339 0.942717 0.000000 -0.333537 0.790240 0.785137
-0.117604 0.034267 -0.300409 0.893124 0.337138 -0.297678 0.797246 0.783880
-0.062605 0.026863 -0.181898 0.821314 0.342235 -0.456343 0.800031 0.811531
-0.058558 0.000000 -0.183741 0.872585 0.000000 -0.488418 0.794281 0.811980
-0.058558 0.000000 -0.183741 0.872585 0.000000 -0.488418 0.898627 0.811978
-0.062605 -0.026863 -0.181898 0.821314 -0.342235 -0.456343 0.892877 0.811529
-0.200179 0.000000 -0.154916 -0.768029 0.000000 0.640370 0.841894 0.802651
-0.196046 0.027905 -0.156979 -0.718711 0.335490 0.608966 0.835907 0.801681
-0.221465 0.030231 -0.185617 -0.668477 0.332408 0.665273 0.837319 0.793439
-0.225849 0.000000 -0.183189 -0.717887 0.000000 0.696127 0.843750 0.794809
-0.254322 0.034267 -0.218351 -0.628681 0.330424 0.703940 0.839218 0.783616
-0.259205 0.000000 -0.215420 -0.679128 0.000000 0.734001 0.846413 0.785307
-0.200179 0.000000 -0.154916 -0.768029 0.000000 0.640370 0.851018 0.802648
-0.225849 0.000000 -0.183189 -0.717887 0.000000 0.696127 0.849162 0.794807
-0.221465 -0.030231 -0.185617 -0.668477 -0.332408 0.665273 0.855593 0.793437
-0.196046 -0.027905 -0.156979 -0.718711 -0.335490 0.608966 0.857004 0.801678
-0.259205 0.000000 -0.215420 -0.679128 0.000000 0.734001 0.846500 0.785306
-0.254322 -0.034267 -0.218351 -0.628681 -0.330424 0.703940 0.853694 0.783616
-0.175933 -0.026863 -0.130301 -0.770074 -0.339335 0.540147 0.857949 0.808911
-0.179980 0.000000 -0.128459 -0.820490 0.000000 0.571612 0.852184 0.809500
-0.158993 -0.026678 -0.103445 -0.810175 -0.342418 0.475723 0.858514 0.815745
-0.163042 0.000000 -0.101675 -0.862209 0.000000 0.506516 0.852838 0.816026
-0.179980 0.000000 -0.128459 -0.820490 0.000000 0.571612 0.840727 0.809504
-0.175933 0.026863 -0.130301 -0.770074 0.339335 0.540147 0.834962 0.808914
-0.163042 0.000000 -0.101675 -0.862209 0.000000 0.506516 0.840072 0.816030
-0.158993 0.026678 -0.103445 -0.810175 0.342418 0.475723 0.834396 0.815749
0.363640 -0.000000 0.412113 0.852840 0.000000 -0.522111 0.841604 0.955901
0.360132 -0.020403 0.412542 0.807459 -0.333201 -0.486740 0.837831 0.958389
0.329542 -0.021083 0.368363 0.770196 -0.327830 -0.547075 0.829595 0.950677
0.332749 -0.000000 0.367186 0.814997 0.000000 -0.579424 0.832853 0.947220
0.285682 -0.021539 0.308911 0.758934 -0.333903 -0.559008 0.816474 0.940904
0.288868 -0.000000 0.307401 0.804682 0.000000 -0.593677 0.819563 0.937071
0.350228 -0.037426 0.414656 0.631611 -0.688253 -0.356822 0.834450 0.960394
0.319921 -0.038652 0.371896 0.594317 -0.686880 -0.418287 0.826386 0.953650
0.276125 -0.039487 0.313444 0.581927 -0.694327 -0.423353 0.813339 0.944396
0.363640 -0.000000 0.412113 0.852840 0.000000 -0.522111 0.885995 0.982085
0.332749 -0.000000 0.367186 0.814997 0.000000 -0.579424 0.873987 0.979307
0.329542 0.021083 0.368363 0.770196 0.327830 -0.547075 0.875176 0.974708
0.360132 0.020403 0.412542 0.807459 0.333201 -0.486740 0.886090 0.977566
0.319921 0.038652 0.371896 0.594317 0.686880 -0.418287 0.875981 0.970408
0.350228 0.037426 0.414656 0.631611 0.688253 -0.356822 0.885985 0.973638
0.288868 -0.000000 0.307401 0.804682 0.000000 -0.593677 0.858316 0.973470
0.285682 0.021539 0.308911 0.758934 0.333903 -0.559008 0.859913 0.968813
0.276125 0.039487 0.313444 0.581927 0.694327 -0.423353 0.861198 0.964299
0.376787 0.018500 0.442571 0.880703 0.367443 -0.298837 0.892814 0.977921
0.381024 -0.000000 0.443691 0.944731 0.000000 -0.327830 0.894246 0.981706
0.380646 0.017361 0.461963 0.891324 0.426984 0.152226 0.896353 0.976959
0.385284 -0.000000 0.464624 0.979400 0.000000 0.201758 0.898784 0.979713
0.366562 0.033997 0.442522 0.695456 0.695975 -0.178747 0.891707 0.974752
0.371324 0.029202 0.456700 0.731925 0.676504 0.081088 0.894373 0.974963
0.381024 -0.000000 0.443691 0.944731 0.000000 -0.327830 0.845681 0.963085
0.376787 -0.018500 0.442571 0.880703 -0.367443 -0.298837 0.841714 0.963891
0.366562 -0.033998 0.442522 0.695456 -0.695975 -0.178747 0.838442 0.964642
0.385284 -0.000000 0.464624 0.979400 0.000000 0.201758 0.846413 0.967988
0.380646 -0.017361 0.461963 0.891324 -0.426984 0.152226 0.842786 0.967399
0.371324 -0.029202 0.456700 0.731925 -0.676504 0.081088 0.840042 0.966787
-0.066956 0.068220 -0.067650 -0.009125 0.999847 -0.013428 0.817322 0.831849
-0.042673 0.063672 -0.079683 0.285592 0.937346 -0.199500 0.811578 0.832336
-0.061975 0.062823 -0.111236 0.290384 0.936705 -0.195532 0.811553 0.824468
-0.086311 0.067310 -0.100147 -0.009980 0.999756 -0.019105 0.817337 0.823837
-0.110646 0.062822 -0.089058 -0.311533 0.937284 0.156133 0.823112 0.823280
-0.091239 0.063672 -0.055618 -0.305216 0.936796 0.170934 0.823029 0.831413
-0.130926 0.049361 -0.079817 -0.625233 0.703757 0.337291 0.828635 0.822900
-0.111475 0.050028 -0.045591 -0.613056 0.702750 0.360881 0.828475 0.831108
-0.063937 0.064066 -0.013489 -0.288369 0.936338 0.200110 0.822657 0.841726
-0.039935 0.068642 -0.026498 -0.000702 0.999969 0.003082 0.816995 0.842047
-0.024297 0.063274 0.041123 -0.269021 0.935484 0.229011 0.821781 0.855446
-0.000935 0.067794 0.027544 0.009980 0.999725 0.020661 0.816193 0.855684
-0.083940 0.050337 -0.002648 -0.587176 0.702017 0.402966 0.828070 0.841520
-0.043766 0.049715 0.052438 -0.558214 0.700949 0.443831 0.827134 0.855338
-0.015932 0.064066 -0.039506 0.286111 0.938047 -0.195410 0.811294 0.842408
0.022428 0.063274 0.013966 0.289254 0.938475 -0.188574 0.810581 0.855968
-0.127664 0.000000 -0.037569 -0.858699 0.000000 0.512436 0.839598 0.831085
-0.123617 0.027288 -0.039575 -0.807337 0.342143 0.480728 0.833916 0.831001
-0.143094 0.026924 -0.074272 -0.823450 0.342570 0.452254 0.834126 0.822770
-0.147150 0.000000 -0.072424 -0.875759 0.000000 0.482711 0.839777 0.822873
-0.127664 0.000000 -0.037569 -0.858699 0.000000 0.512436 0.853311 0.831078
-0.147150 0.000000 -0.072424 -0.875759 0.000000 0.482711 0.853133 0.822867
-0.143094 -0.026924 -0.074272 -0.823450 -0.342570 0.452254 0.858783 0.822765
-0.123617 -0.027288 -0.039575 -0.807337 -0.342143 0.480728 0.858992 0.830995
-0.130926 -0.049361 -0.079817 -0.625233 -0.703757 0.337291 0.864274 0.822895
-0.111475 -0.050028 -0.045591 -0.613056 -0.702750 0.360881 0.864433 0.831103
-0.095941 -0.027457 0.003856 -0.775903 -0.341685 0.530259 0.859405 0.841515
-0.099941 -0.000000 0.006024 -0.825892 0.000000 0.563799 0.853695 0.841726
-0.055447 -0.027118 0.059228 -0.741203 -0.341014 0.578173 0.860393 0.855482
-0.059341 -0.000000 0.061491 -0.789697 0.000000 0.613483 0.854748 0.855900
-0.083940 -0.050337 -0.002648 -0.587176 -0.702017 0.402966 0.864836 0.841514
-0.043766 -0.049715 0.052438 -0.558214 -0.700949 0.443831 0.865768 0.855332
-0.099941 -0.000000 0.006024 -0.825892 0.000000 0.563799 0.839212 0.841735
-0.095941 0.027457 0.003856 -0.775903 0.341685 0.530259 0.833501 0.841522
-0.059341 -0.000000 0.061491 -0.789697 0.000000 0.613483 0.838155 0.855909
-0.055447 0.027118 0.059228 -0.741203 0.341014 0.578173 0.832509 0.855489
-0.066956 -0.068220 -0.067650 -0.009125 -0.999847 -0.013428 0.875585 0.831845
-0.091239 -0.063672 -0.055618 -0.305216 -0.936796 0.170934 0.869878 0.831409
-0.110646 -0.062822 -0.089058 -0.311533 -0.937284 0.156133 0.869796 0.823276
-0.086311 -0.067310 -0.100147 -0.009980 -0.999756 -0.019105 0.875571 0.823834
-0.061975 -0.062822 -0.111236 0.290384 -0.936705 -0.195532 0.881354 0.824466
-0.042673 -0.063672 -0.079683 0.285592 -0.937346 -0.199500 0.881329 0.832334
-0.015932 -0.064066 -0.039506 0.286111 -0.938017 -0.195410 0.881611 0.842406
-0.039935 -0.068642 -0.026498 -0.000702 -0.999969 0.003082 0.875910 0.842043
0.022428 -0.063274 0.013966 0.289254 -0.938475 -0.188574 0.882321 0.855966
-0.000935 -0.067794 0.027544 0.009980 -0.999725 0.020661 0.876709 0.855681
-0.063937 -0.064066 -0.013489 -0.288369 -0.936338 0.200110 0.870248 0.841721
-0.024297 -0.063274 0.041123 -0.269021 -0.935484 0.229011 0.871121 0.855441
0.359370 -0.000000 0.483144 0.141606 0.000000 0.989898 0.902668 0.972994
0.356790 0.020464 0.479655 0.145085 0.396252 0.906583 0.898424 0.971840
0.335876 0.018971 0.478512 -0.184210 0.310129 0.932646 0.898462 0.967897
0.336778 -0.000000 0.481697 -0.185614 0.000000 0.982604 0.902668 0.967558
0.313657 0.017361 0.471285 -0.414075 0.271584 0.868770 0.897199 0.963370
0.312890 -0.000000 0.473857 -0.427717 0.000000 0.903897 0.900840 0.961774
0.349087 0.037264 0.469241 0.120853 0.759667 0.638936 0.895075 0.970532
0.330414 0.034586 0.469242 -0.198157 0.629353 0.751396 0.895006 0.967392
0.315137 0.029202 0.465945 -0.380383 0.496841 0.780023 0.894805 0.964384
0.359370 -0.000000 0.483144 0.141606 0.000000 0.989898 0.842794 0.974857
0.336778 -0.000000 0.481697 -0.185614 0.000000 0.982604 0.838194 0.977752
0.335876 -0.018971 0.478512 -0.184210 -0.310129 0.932646 0.836240 0.974012
0.356790 -0.020464 0.479655 0.145085 -0.396252 0.906583 0.839557 0.971879
0.330414 -0.034586 0.469242 -0.198157 -0.629353 0.751396 0.833971 0.971357
0.349087 -0.037264 0.469241 0.120853 -0.759667 0.638936 0.836665 0.969742
0.312890 -0.000000 0.473857 -0.427717 0.000000 0.903897 0.832325 0.979286
0.313657 -0.017361 0.471285 -0.414075 -0.271584 0.868770 0.831736 0.975355
0.315137 -0.029202 0.465945 -0.380383 -0.496841 0.780023 0.831319 0.972790
0.372847 -0.018971 0.474232 0.579272 -0.452773 0.677786 0.841785 0.969813
0.376803 -0.000000 0.477614 0.628285 0.000000 0.777947 0.845482 0.971427
0.363889 -0.034586 0.464006 0.489547 -0.779229 0.391278 0.838722 0.968225
0.376803 -0.000000 0.477614 0.628285 0.000000 0.777947 0.901197 0.977094
0.372847 0.018971 0.474232 0.579272 0.452773 0.677786 0.897862 0.974826
0.363889 0.034586 0.464006 0.489547 0.779229 0.391278 0.894887 0.973080
0.315719 0.051129 0.424812 0.022523 0.995880 0.087680 0.886165 0.966285
0.334550 0.047688 0.419285 0.332530 0.932096 -0.143376 0.885993 0.970001
0.303885 0.049194 0.377784 0.301309 0.932157 -0.200690 0.876522 0.966204
0.284643 0.052708 0.384849 0.008820 0.999634 0.024659 0.877094 0.961855
0.260197 0.050257 0.320998 0.293649 0.934690 -0.200262 0.862256 0.959761
0.241083 0.053846 0.330063 0.011536 0.999634 0.023286 0.863344 0.955019
0.265400 0.049194 0.391915 -0.277505 0.925718 0.256905 0.877847 0.957485
0.296358 0.047688 0.429621 -0.271859 0.906156 0.323893 0.886496 0.962436
0.249365 0.038652 0.397803 -0.552232 0.675863 0.488083 0.878922 0.953262
0.280148 0.037426 0.433531 -0.533555 0.650227 0.540788 0.887307 0.958620
0.221969 0.050257 0.339128 -0.266427 0.930601 0.250954 0.864554 0.950289
0.206041 0.039487 0.346682 -0.542589 0.687429 0.482650 0.865963 0.945796
0.317635 0.043489 0.454171 -0.239723 0.833796 0.497269 0.891630 0.965644
0.336299 0.046733 0.451951 0.062227 0.953520 0.294748 0.891614 0.968913
0.301785 0.033997 0.455634 -0.467147 0.590289 0.658223 0.892191 0.962301
0.352837 0.043489 0.446858 0.398175 0.916105 0.046480 0.891502 0.971841
0.267798 -0.000000 0.437511 -0.719535 0.000000 0.694418 0.891923 0.951161
0.270776 0.020403 0.436364 -0.682180 0.306253 0.663900 0.889141 0.954908
0.239743 0.021083 0.401336 -0.711936 0.319468 0.625324 0.880654 0.949104
0.236536 -0.000000 0.402513 -0.751244 0.000000 0.659993 0.883082 0.944922
0.196484 0.021539 0.351214 -0.709189 0.328715 0.623646 0.867848 0.941436
0.193298 -0.000000 0.352725 -0.751366 0.000000 0.659871 0.870256 0.937082
0.267798 -0.000000 0.437511 -0.719535 0.000000 0.694418 0.818594 0.977396
0.236536 -0.000000 0.402513 -0.751244 0.000000 0.659993 0.808604 0.973239
0.239743 -0.021083 0.401336 -0.711936 -0.319468 0.625324 0.810849 0.968956
0.270776 -0.020403 0.436364 -0.682180 -0.306253 0.663900 0.820282 0.973045
0.249365 -0.038652 0.397803 -0.552232 -0.675863 0.488083 0.813445 0.965275
0.280148 -0.037426 0.433531 -0.533555 -0.650227 0.540788 0.822446 0.969516
0.193298 -0.000000 0.352725 -0.751366 0.000000 0.659871 0.795136 0.966564
0.196484 -0.021539 0.351214 -0.709189 -0.328715 0.623646 0.797537 0.962207
0.206041 -0.039487 0.346682 -0.542589 -0.687429 0.482650 0.800222 0.958288
0.293685 -0.018500 0.458458 -0.587756 -0.284433 0.757378 0.826802 0.975001
0.291573 -0.000000 0.460211 -0.617481 0.000000 0.786554 0.826175 0.979286
0.301785 -0.033998 0.455634 -0.467147 -0.590289 0.658223 0.828164 0.971687
0.291573 -0.000000 0.460211 -0.617481 0.000000 0.786554 0.897563 0.956569
0.293685 0.018500 0.458458 -0.587756 0.284433 0.757378 0.894270 0.959384
0.315719 -0.051129 0.424812 0.022523 -0.995880 0.087680 0.828324 0.964465
0.296358 -0.047688 0.429621 -0.271859 -0.906156 0.323893 0.825243 0.966796
0.265400 -0.049194 0.391915 -0.277505 -0.925718 0.256905 0.816445 0.962115
0.284643 -0.052708 0.384849 0.008820 -0.999634 0.024659 0.819742 0.959149
0.221969 -0.050257 0.339128 -0.266427 -0.930601 0.250954 0.803273 0.954702
0.241083 -0.053846 0.330063 0.011536 -0.999634 0.023286 0.806631 0.951157
0.303885 -0.049194 0.377784 0.301309 -0.932157 -0.200690 0.823116 0.956348
0.334550 -0.047688 0.419285 0.332530 -0.932096 -0.143376 0.831377 0.962339
0.260197 -0.050257 0.320998 0.293649 -0.934690 -0.200262 0.810062 0.947710
0.352837 -0.043489 0.446858 0.398175 -0.916105 0.046480 0.835869 0.966020
0.336299 -0.046733 0.451951 0.062227 -0.953520 0.294748 0.833452 0.967675
0.317635 -0.043489 0.454170 -0.239723 -0.833796 0.497269 0.830693 0.969431
0.170577 -0.000000 0.147632 0.804010 0.000000 -0.594562 0.899973 0.895819
0.167089 -0.024375 0.149690 0.756920 -0.342814 -0.556322 0.894854 0.895864
0.106230 -0.025957 0.067665 0.758599 -0.343760 -0.553453 0.893974 0.874733
0.109935 -0.000000 0.065448 0.806116 0.000000 -0.591723 0.899424 0.874666
0.156624 -0.044687 0.155865 0.577654 -0.704703 -0.411908 0.889954 0.895734
0.095114 -0.047588 0.074317 0.578021 -0.705802 -0.409497 0.888761 0.874631
0.170577 -0.000000 0.147632 0.804010 0.000000 -0.594562 0.792918 0.895813
0.109935 -0.000000 0.065448 0.806116 0.000000 -0.591723 0.793473 0.874662
0.106230 0.025957 0.067665 0.758599 0.343760 -0.553453 0.798923 0.874730
0.167089 0.024374 0.149690 0.756920 0.342814 -0.556322 0.798036 0.895860
0.095114 0.047588 0.074317 0.578021 0.705802 -0.409497 0.804136 0.874630
0.156624 0.044687 0.155865 0.577654 0.704703 -0.411908 0.802935 0.895732
0.229219 0.022769 0.233063 0.756981 0.339854 -0.558061 0.797138 0.917390
0.232516 -0.000000 0.231249 0.803522 0.000000 -0.595233 0.792356 0.917365
0.285682 0.021539 0.308911 0.758934 0.333903 -0.559008 0.796329 0.936970
0.288868 -0.000000 0.307401 0.804682 0.000000 -0.593677 0.791807 0.936984
0.219327 0.041743 0.238504 0.578814 0.701376 -0.415937 0.801711 0.917203
0.276125 0.039487 0.313444 0.581927 0.694327 -0.423353 0.800635 0.936670
0.232516 -0.000000 0.231249 0.803522 0.000000 -0.595233 0.900527 0.917374
0.229219 -0.022769 0.233063 0.756981 -0.339854 -0.558061 0.895744 0.917396
0.219327 -0.041743 0.238504 0.578814 -0.701376 -0.415937 0.891171 0.917208
0.288868 -0.000000 0.307401 0.804682 0.000000 -0.593677 0.901068 0.936995
0.285682 -0.021539 0.308911 0.758934 -0.333903 -0.559008 0.896545 0.936979
0.276125 -0.039487 0.313444 0.581927 -0.694327 -0.423353 0.892239 0.936677
0.118251 0.060936 0.178506 0.019684 0.999207 0.034181 0.812907 0.895148
0.139181 0.056874 0.166156 0.293039 0.938017 -0.184942 0.807820 0.895457
0.076588 0.060567 0.085404 0.292184 0.938353 -0.184667 0.809329 0.874391
0.054357 0.064893 0.098707 0.017731 0.999329 0.031190 0.814733 0.874123
0.032126 0.060567 0.112011 -0.255348 0.934751 0.246956 0.820130 0.873912
0.097320 0.056874 0.190855 -0.251473 0.933927 0.254006 0.817994 0.894900
0.013600 0.047588 0.123098 -0.537614 0.700125 0.469832 0.825307 0.873857
0.079878 0.044687 0.201147 -0.530137 0.698294 0.480911 0.822879 0.894824
0.163272 0.053127 0.269334 -0.254769 0.932463 0.256050 0.815719 0.916018
0.183056 0.056922 0.258453 0.017762 0.999298 0.032563 0.810985 0.916395
0.221969 0.050257 0.339128 -0.266427 0.930601 0.250954 0.813672 0.934821
0.241083 0.053846 0.330063 0.011536 0.999634 0.023286 0.809271 0.935436
0.146785 0.041743 0.278402 -0.531388 0.694174 0.485458 0.820275 0.915827
0.206041 0.039487 0.346682 -0.542589 0.687429 0.482650 0.817933 0.934424
0.202840 0.053127 0.247571 0.293435 0.937071 -0.189154 0.806256 0.916829
0.260197 0.050257 0.320998 0.293649 0.934690 -0.200262 0.804876 0.936104
0.065924 -0.000000 0.209380 -0.751885 0.000000 0.659261 0.832848 0.895694
0.069412 0.024374 0.207321 -0.705679 0.338694 0.622303 0.827767 0.895086
0.002485 0.025957 0.129750 -0.716330 0.340281 0.609119 0.830493 0.874112
-0.001220 -0.000000 0.131967 -0.763634 0.000000 0.645619 0.835904 0.874684
0.065924 -0.000000 0.209380 -0.751885 0.000000 0.659261 0.860041 0.895685
-0.001220 -0.000000 0.131967 -0.763634 0.000000 0.645619 0.856992 0.874675
0.002485 -0.025957 0.129750 -0.716330 -0.340281 0.609119 0.862403 0.874104
0.069412 -0.024375 0.207321 -0.705679 -0.338694 0.622303 0.865122 0.895080
0.013600 -0.047588 0.123098 -0.537614 -0.700125 0.469832 0.867589 0.873851
0.079878 -0.044687 0.201147 -0.530137 -0.698294 0.480911 0.870010 0.894819
0.136893 -0.022769 0.283843 -0.703116 -0.335002 0.627186 0.868031 0.916006
0.133596 -0.000000 0.285657 -0.747734 0.000000 0.663991 0.863281 0.916567
0.196484 -0.021539 0.351214 -0.709189 -0.328715 0.623646 0.870623 0.934467
0.193298 -0.000000 0.352725 -0.751366 0.000000 0.659871 0.866127 0.934955
0.146785 -0.041743 0.278402 -0.531388 -0.694174 0.485458 0.872605 0.915825
0.206041 -0.039487 0.346682 -0.542589 -0.687429 0.482650 0.874940 0.934424
0.133596 -0.000000 0.285657 -0.747734 0.000000 0.663991 0.829599 0.916574
0.136893 0.022769 0.283843 -0.703116 0.335002 0.627186 0.824849 0.916010
0.193298 -0.000000 0.352725 -0.751366 0.000000 0.659871 0.826745 0.934959
0.196484 0.021539 0.351214 -0.709189 0.328715 0.623646 0.822250 0.934469
0.118251 -0.060936 0.178506 0.019684 -0.999207 0.034181 0.879982 0.895147
0.097320 -0.056874 0.190855 -0.251473 -0.933927 0.254006 0.874895 0.894897
0.032126 -0.060567 0.112011 -0.255348 -0.934751 0.246956 0.872767 0.873908
0.054357 -0.064893 0.098707 0.017731 -0.999329 0.031190 0.878164 0.874120
0.076588 -0.060567 0.085404 0.292184 -0.938353 -0.184667 0.883567 0.874391
0.139181 -0.056874 0.166156 0.293039 -0.938017 -0.184942 0.885070 0.895458
0.202840 -0.053127 0.247571 0.293435 -0.937071 -0.189154 0.886625 0.916832
0.183056 -0.056922 0.258453 0.017762 -0.999298 0.032563 0.881896 0.916396
0.260197 -0.050257 0.320998 0.293649 -0.934690 -0.200262 0.887997 0.936109
0.241083 -0.053846 0.330063 0.011536 -0.999634 0.023286 0.883603 0.935440
0.163272 -0.053127 0.269334 -0.254769 -0.932463 0.256050 0.877162 0.916017
0.221969 -0.050257 0.339128 -0.266427 -0.930601 0.250954 0.879201 0.934823
4 0 1 2 3
4 3 2 4 5
4 1 6 7 2
4 2 7 8 4
4 9 10 11 12
4 12 11 13 14
4 10 15 16 11
4 11 16 17 13
4 9 12 18 19
4 19 18 20 21
4 12 14 22 18
4 18 22 23 20
4 0 24 25 1
4 1 25 26 6
4 24 27 28 25
4 25 28 29 26
4 30 31 32 33
4 33 32 34 35
4 31 14 13 32
4 32 13 17 34
4 30 33 36 37
4 37 36 38 39
4 33 35 40 36
4 36 40 41 38
4 30 37 42 43
4 43 42 44 45
4 37 39 46 42
4 42 46 47 44
4 30 43 48 31
4 31 48 22 14
4 43 45 49 48
4 48 49 23 22
4 50 51 52 53
4 53 52 54 55
4 51 56 57 52
4 52 57 58 54
4 50 53 59 60
4 60 59 61 62
4 53 55 63 59
4 59 63 64 61
4 50 60 65 66
4 66 65 67 68
4 60 62 69 65
4 65 69 70 67
4 50 66 71 51
4 51 71 72 56
4 66 68 73 71
4 71 73 74 72
4 75 76 77 78
4 78 77 79 80
4 76 81 82 77
4 77 82 83 79
4 75 78 84 85
4 85 84 7 6
4 78 80 86 84
4 84 86 8 7
4 75 85 87 88
4 88 87 89 90
4 85 6 26 87
4 87 26 29 89
4 75 88 91 76
4 76 91 92 81
4 88 90 93 91
4 91 93 94 92
4 95 96 97 98
4 98 97 28 27
4 96 90 89 97
4 97 89 29 28
4 99 100 101 102
4 102 101 49 45
4 100 21 20 101
4 101 20 23 49
4 99 102 103 104
4 104 103 105 106
4 102 45 44 103
4 103 44 47 105
4 95 107 108 96
4 96 108 93 90
4 107 109 110 108
4 108 110 94 93
4 111 112 113 114
4 114 113 115 116
4 112 80 79 113
4 113 79 83 115
4 117 118 119 120
4 120 119 40 35
4 118 121 122 119
4 119 122 41 40
4 117 120 123 124
4 124 123 16 15
4 120 35 34 123
4 123 34 17 16
4 111 125 126 112
4 112 126 86 80
4 125 5 4 126
4 126 4 8 86
4 127 128 129 130
4 130 129 131 132
4 128 133 134 129
4 129 134 70 131
4 135 136 137 138
4 138 137 139 140
4 136 141 142 137
4 137 142 143 139
4 135 138 144 145
4 145 144 146 147
4 138 140 148 144
4 144 148 149 146
4 127 150 151 128
4 128 151 152 133
4 150 153 154 151
4 151 154 155 152
4 156 157 158 159
4 159 158 160 161
4 157 162 163 158
4 158 163 164 160
4 156 159 165 166
4 166 165 167 168
4 159 161 169 165
4 165 169 170 167
4 156 166 171 172
4 172 171 173 174
4 166 168 175 171
4 171 175 176 173
4 156 172 177 157
4 157 177 178 162
4 172 174 179 177
4 177 179 143 178
4 180 181 182 183
4 183 182 184 185
4 181 62 61 182
4 182 61 64 184
4 186 187 188 189
4 189 188 163 162
4 187 190 191 188
4 188 191 164 163
4 186 189 192 193
4 193 192 142 141
4 189 162 178 192
4 192 178 143 142
4 180 194 195 181
4 181 195 69 62
4 194 132 131 195
4 195 131 70 69
4 196 197 198 199
4 199 198 200 201
4 197 168 167 198
4 198 167 170 200
4 202 203 204 205
4 205 204 57 56
4 203 206 207 204
4 204 207 58 57
4 202 205 208 209
4 209 208 210 211
4 205 56 72 208
4 208 72 74 210
4 196 212 213 197
4 197 213 175 168
4 212 214 215 213
4 213 215 176 175
4 216 217 218 219
4 219 218 220 221
4 217 222 223 218
4 218 223 224 220
4 225 226 227 228
4 228 227 229 230
4 226 231 232 227
4 227 232 233 229
4 225 228 234 235
4 235 234 236 237
4 228 230 238 234
4 234 238 239 236
4 216 240 241 217
4 217 241 242 222
4 240 243 244 241
4 241 244 245 242
4 246 247 248 249
4 249 248 179 174
4 247 140 139 248
4 248 139 143 179
4 246 249 250 251
4 251 250 252 253
4 249 174 173 250
4 250 173 176 252
4 246 251 254 255
4 255 254 256 257
4 251 253 258 254
4 254 258 259 256
4 246 255 260 247
4 247 260 148 140
4 255 257 261 260
4 260 261 149 148
4 262 263 264 265
4 265 264 215 214
4 263 253 252 264
4 264 252 176 215
4 266 267 268 269
4 269 268 270 271
4 267 211 210 268
4 268 210 74 270
4 266 269 272 273
4 273 272 274 275
4 269 271 276 272
4 272 276 277 274
4 262 278 279 263
4 263 279 258 253
4 278 280 281 279
4 279 281 259 258
4 282 283 284 285
4 285 284 73 68
4 283 271 270 284
4 284 270 74 73
4 282 285 286 287
4 287 286 134 133
4 285 68 67 286
4 286 67 70 134
4 282 287 288 289
4 289 288 290 291
4 287 133 152 288
4 288 152 155 290
4 282 289 292 283
4 283 292 276 271
4 289 291 293 292
4 292 293 277 276
4 294 295 296 297
4 297 296 298 299
4 295 300 301 296
4 296 301 302 298
4 303 304 305 306
4 306 305 307 308
4 304 309 310 305
4 305 310 311 307
4 303 306 312 313
4 313 312 244 243
4 306 308 314 312
4 312 314 245 244
4 294 315 316 295
4 295 316 317 300
4 315 237 236 316
4 316 236 239 317
4 318 319 320 321
4 321 320 322 323
4 319 230 229 320
4 320 229 233 322
4 318 321 324 325
4 325 324 326 327
4 321 323 328 324
4 324 328 329 326
4 318 325 330 331
4 331 330 301 300
4 325 327 332 330
4 330 332 302 301
4 318 331 333 319
4 319 333 238 230
4 331 300 317 333
4 333 317 239 238
4 334 335 336 337
4 337 336 338 339
4 335 327 326 336
4 336 326 329 338
4 340 341 342 343
4 343 342 344 345
4 341 346 347 342
4 342 347 348 344
4 340 343 349 350
4 350 349 310 309
4 343 345 351 349
4 349 351 311 310
4 334 352 353 335
4 335 353 332 327
4 352 299 298 353
4 353 298 302 332
4 354 355 356 357
4 357 356 358 359
4 355 345 344 356
4 356 344 348 358
4 354 357 360 361
4 361 360 223 222
4 357 359 362 360
4 360 362 224 223
4 354 361 363 364
4 364 363 314 308
4 361 222 242 363
4 363 242 245 314
4 354 364 365 355
4 355 365 351 345
4 364 308 307 365
4 365 307 311 351
4 366 367 368 369
4 369 368 154 153
4 367 370 371 368
4 368 371 155 154
4 372 373 374 375
4 375 374 376 377
4 373 147 146 374
4 374 146 149 376
4 372 375 378 379
4 379 378 380 381
4 375 377 382 378
4 378 382 383 380
4 366 384 385 367
4 367 385 386 370
4 384 387 388 385
4 385 388 389 386
4 390 391 392 393
4 393 392 261 257
4 391 377 376 392
4 392 376 149 261
4 390 393 394 395
4 395 394 396 397
4 393 257 256 394
4 394 256 259 396
4 390 395 398 399
4 399 398 400 401
4 395 397 402 398
4 398 402 403 400
4 390 399 404 391
4 391 404 382 377
4 399 401 405 404
4 404 405 383 382
4 406 407 408 409
4 409 408 281 280
4 407 397 396 408
4 408 396 259 281
4 410 411 412 413
4 413 412 414 415
4 411 275 274 412
4 412 274 277 414
4 410 413 416 417
4 417 416 418 419
4 413 415 420 416
4 416 420 421 418
4 406 422 423 407
4 407 423 402 397
4 422 424 425 423
4 423 425 403 402
4 426 427 428 429
4 429 428 293 291
4 427 415 414 428
4 428 414 277 293
4 426 429 430 431
4 431 430 371 370
4 429 291 290 430
4 430 290 155 371
4 426 431 432 433
4 433 432 434 435
4 431 370 386 432
4 432 386 389 434
4 426 433 436 427
4 427 436 420 415
4 433 435 437 436
4 436 437 421 420
