ply
format ascii 1.0
comment Created by Blender 2.69 (sub 0) - www.blender.org, source file: 'ant.blend'
element vertex 438
property float x
property float y
property float z
property float nx
property float ny
property float nz
property float s
property float t
element face 352
property list uchar uint vertex_indices
end_header
0.047725 0.000084 0.390593 0.999023 0.000000 -0.043672 0.432316 0.650295
0.045544 0.013117 0.390293 0.937803 0.345897 -0.029237 0.430651 0.645979
0.045853 0.011608 0.409751 0.925138 0.361309 0.116306 0.436627 0.644043
0.047947 0.000129 0.410951 0.993774 0.000000 0.111362 0.439000 0.647242
0.042976 0.010637 0.423202 0.817408 0.400464 0.414014 0.440142 0.641811
0.044851 0.000166 0.425387 0.884854 0.000061 0.465804 0.443089 0.643831
0.039126 0.023975 0.389993 0.713645 0.700308 0.015625 0.429305 0.642093
0.040068 0.021163 0.408552 0.710379 0.686941 0.152989 0.434883 0.641158
0.039142 0.017851 0.418776 0.684255 0.650655 0.329234 0.437851 0.640444
0.047725 0.000084 0.390593 0.999023 0.000000 -0.043672 0.364476 0.691297
0.047947 0.000129 0.410951 0.993774 0.000000 0.111362 0.371160 0.694345
0.045853 -0.011356 0.409751 0.924955 -0.361248 0.117985 0.368774 0.697538
0.045544 -0.012951 0.390293 0.937803 -0.345958 -0.027863 0.362796 0.695605
0.040068 -0.020917 0.408552 0.710105 -0.686544 0.156072 0.367020 0.700420
0.039126 -0.023811 0.389993 0.713584 -0.700278 0.018372 0.361437 0.699485
0.044851 0.000166 0.425387 0.884854 0.000061 0.465804 0.375252 0.697752
0.042976 -0.010315 0.423202 0.816889 -0.400006 0.415509 0.372295 0.699766
0.039142 -0.017553 0.418776 0.683645 -0.649861 0.332102 0.369995 0.701133
0.043243 -0.013929 0.364131 0.937010 -0.341746 -0.071841 0.353834 0.693771
0.045535 0.000037 0.364131 0.996582 0.000000 -0.082492 0.355175 0.688796
0.045535 0.000037 0.364131 0.996582 0.000000 -0.082492 0.939648 0.403063
0.043243 -0.013929 0.364131 0.937010 -0.341746 -0.071841 0.944218 0.403157
0.040460 -0.014677 0.332198 0.937529 -0.343455 -0.055208 0.944401 0.413536
0.042888 -0.000003 0.332198 0.997986 -0.000031 -0.063326 0.939587 0.413410
0.036364 -0.025567 0.364131 0.710013 -0.703299 -0.034852 0.352676 0.698522
0.036364 -0.025567 0.364131 0.710013 -0.703299 -0.034852 0.948571 0.403356
0.033175 -0.026906 0.332198 0.707846 -0.705863 -0.026124 0.949016 0.413748
0.045535 0.000037 0.364131 0.996582 0.000000 -0.082492 0.423009 0.652794
0.043243 0.014003 0.364131 0.936979 0.341655 -0.072878 0.421685 0.647811
0.036365 0.025641 0.364131 0.709983 0.703207 -0.036958 0.420542 0.643055
0.045535 0.000037 0.364131 0.996582 0.000000 -0.082492 0.900847 0.484084
0.042888 -0.000003 0.332198 0.997986 -0.000031 -0.063326 0.890497 0.484147
0.040460 0.014672 0.332198 0.937498 0.343394 -0.055849 0.890381 0.479332
0.043243 0.014003 0.364131 0.936979 0.341655 -0.072878 0.900764 0.479513
0.033175 0.026901 0.332198 0.707877 0.705771 -0.027467 0.890178 0.474714
0.036365 0.025641 0.364131 0.709983 0.703207 -0.036958 0.900573 0.475158
0.015935 -0.032486 0.390593 -0.000885 -0.989563 0.143895 0.360175 0.707202
0.028594 -0.030320 0.390293 0.356212 -0.930967 0.079806 0.360618 0.703268
0.031086 -0.026626 0.409751 0.372600 -0.898556 0.231788 0.366440 0.703375
0.020226 -0.028517 0.410951 0.000580 -0.949553 0.313578 0.366260 0.706443
0.033190 -0.020507 0.423202 0.415143 -0.764214 0.493515 0.370477 0.703261
0.023596 -0.021952 0.425387 0.009491 -0.793573 0.608356 0.370524 0.705873
0.008805 -0.026626 0.409751 -0.350475 -0.859493 0.372051 0.365908 0.709665
0.003136 -0.030320 0.390293 -0.348827 -0.912564 0.213294 0.360010 0.711223
-0.000737 -0.020917 0.408552 -0.646870 -0.635639 0.421247 0.366097 0.712889
-0.007536 -0.023811 0.389993 -0.684652 -0.672903 0.280007 0.360394 0.715161
0.012982 -0.020507 0.423202 -0.364666 -0.704581 0.608722 0.370065 0.708738
0.004963 -0.017553 0.418776 -0.591266 -0.578356 0.562029 0.369343 0.711362
-0.002612 -0.032550 0.364131 -0.348033 -0.928068 0.132481 0.351276 0.713188
0.011145 -0.034877 0.364131 -0.001434 -0.997223 0.074221 0.351276 0.708207
0.011145 -0.034877 0.364131 -0.001434 -0.997223 0.074221 0.957379 0.403884
-0.002612 -0.032550 0.364131 -0.348033 -0.928068 0.132481 0.961878 0.404053
-0.008106 -0.034243 0.332198 -0.347453 -0.931822 0.104587 0.963133 0.414428
0.006464 -0.036689 0.332198 -0.001831 -0.998230 0.059297 0.958378 0.414266
-0.014075 -0.025567 0.364131 -0.698630 -0.689016 0.192755 0.351846 0.717935
-0.014075 -0.025567 0.364131 -0.698630 -0.689016 0.192755 0.966214 0.404042
-0.020247 -0.026906 0.332198 -0.702170 -0.695486 0.152226 0.967687 0.414414
0.024901 -0.032550 0.364131 0.348613 -0.937040 0.019532 0.351784 0.703250
0.021034 -0.034243 0.332198 0.345775 -0.938139 0.016724 0.953609 0.414016
0.024901 -0.032550 0.364131 0.348613 -0.937040 0.019532 0.952888 0.403627
-0.015854 0.000084 0.390593 -0.945677 0.000000 0.325083 0.363796 0.723148
-0.013814 -0.012951 0.390293 -0.890744 -0.325968 0.316691 0.361705 0.719035
-0.005962 -0.011356 0.409751 -0.826441 -0.321482 0.462172 0.367793 0.715876
-0.007496 0.000129 0.410951 -0.877804 0.000000 0.478988 0.370414 0.718902
0.003196 -0.010315 0.423202 -0.675100 -0.339457 0.654927 0.371709 0.712526
0.002341 0.000166 0.425387 -0.713340 0.000061 0.700766 0.374858 0.714407
-0.015854 0.000084 0.390593 -0.945677 0.000000 0.325083 0.431655 0.618417
-0.007496 0.000129 0.410951 -0.877804 0.000000 0.478988 0.438268 0.622674
-0.005962 0.011608 0.409751 -0.826991 0.321787 0.460982 0.435655 0.625705
-0.013814 0.013117 0.390293 -0.891079 0.326121 0.315531 0.429573 0.622536
-0.000737 0.021163 0.408552 -0.647603 0.636494 0.418836 0.433966 0.628693
-0.007536 0.023975 0.389993 -0.685141 0.673391 0.277627 0.428270 0.626414
0.002341 0.000166 0.425387 -0.713340 0.000061 0.700766 0.442704 0.627176
0.003196 0.010637 0.423202 -0.675771 0.339976 0.653981 0.439562 0.629061
0.004963 0.017851 0.418776 -0.592120 0.579394 0.560015 0.437204 0.630223
-0.020954 0.014003 0.364131 -0.915403 0.332347 0.226966 0.420987 0.619022
-0.023246 0.000037 0.364131 -0.971618 0.000000 0.236488 0.422851 0.614397
-0.023246 0.000037 0.364131 -0.971618 0.000000 0.236488 0.900908 0.448619
-0.020954 0.014003 0.364131 -0.915403 0.332347 0.226966 0.900235 0.453153
-0.027532 0.014672 0.332198 -0.924131 0.337168 0.179601 0.889857 0.451470
-0.029960 -0.000003 0.332198 -0.982330 0.000000 0.187078 0.890524 0.446720
-0.014075 0.025641 0.364131 -0.698935 0.689230 0.190802 0.419722 0.623632
-0.014075 0.025641 0.364131 -0.698935 0.689230 0.190802 0.899893 0.457513
-0.020247 0.026901 0.332198 -0.702353 0.695608 0.150975 0.889520 0.456030
-0.023246 0.000037 0.364131 -0.971618 0.000000 0.236488 0.354994 0.727157
-0.020954 -0.013929 0.364131 -0.915189 -0.332316 0.227912 0.353120 0.722540
-0.023246 0.000037 0.364131 -0.971618 0.000000 0.236488 0.975106 0.403015
-0.029960 -0.000003 0.332198 -0.982330 0.000000 0.187078 0.976994 0.413401
-0.027532 -0.014677 0.332198 -0.924009 -0.337168 0.180212 0.972245 0.414072
-0.020954 -0.013929 0.364131 -0.915189 -0.332316 0.227912 0.970574 0.403695
0.015935 0.032654 0.390593 -0.000916 0.990112 0.140080 0.428054 0.634374
0.003136 0.030486 0.390293 -0.349162 0.913236 0.209906 0.427890 0.630353
0.008805 0.026878 0.409751 -0.351024 0.860714 0.368603 0.433780 0.631916
0.020226 0.028775 0.410951 0.000519 0.950835 0.309580 0.434132 0.635136
0.012982 0.020828 0.423202 -0.365368 0.706198 0.606433 0.437924 0.632847
0.023596 0.022285 0.425387 0.009491 0.795495 0.605823 0.438381 0.635708
0.031086 0.026878 0.409751 0.372936 0.899441 0.227821 0.434309 0.638203
0.028594 0.030486 0.390293 0.356334 0.931242 0.076174 0.428494 0.638309
0.033190 0.020828 0.423202 0.415815 0.765709 0.490677 0.438334 0.638317
0.024901 0.032624 0.364131 0.348643 0.937071 0.016724 0.419660 0.638323
0.011145 0.034951 0.364131 -0.001465 0.997436 0.071261 0.419157 0.633364
0.011145 0.034951 0.364131 -0.001465 0.997436 0.071261 0.900053 0.466348
0.024901 0.032624 0.364131 0.348643 0.937071 0.016724 0.900307 0.470841
0.021034 0.034238 0.332198 0.345805 0.938169 0.014954 0.889916 0.470118
0.006464 0.036684 0.332198 -0.001831 0.998321 0.057436 0.889668 0.465345
-0.002612 0.032624 0.364131 -0.348186 0.928373 0.129765 0.419157 0.628383
-0.008106 0.034238 0.332198 -0.347545 0.931974 0.102847 0.889507 0.460587
-0.002612 0.032624 0.364131 -0.348186 0.928373 0.129765 0.899885 0.461849
-0.041985 -0.000038 0.254177 -0.992615 0.000000 0.121220 0.980736 0.438618
-0.039237 -0.016538 0.254177 -0.932066 -0.342509 0.117801 0.975386 0.439170
-0.033699 -0.015584 0.295427 -0.928556 -0.340403 0.147923 0.973876 0.425924
-0.036285 -0.000026 0.295427 -0.988220 0.000000 0.152837 0.978914 0.425300
-0.030993 -0.030287 0.254177 -0.704245 -0.702384 0.103275 0.970269 0.439472
-0.025942 -0.028548 0.295427 -0.703055 -0.699545 0.127689 0.969047 0.426256
-0.041985 -0.000038 0.254177 -0.992615 0.000000 0.121220 0.865306 0.442968
-0.036285 -0.000026 0.295427 -0.988220 0.000000 0.152837 0.878625 0.444794
-0.033699 0.015531 0.295427 -0.928587 0.340403 0.147618 0.878003 0.449833
-0.039237 0.016461 0.254177 -0.932096 0.342479 0.117649 0.864755 0.448319
-0.025942 0.028495 0.295427 -0.703116 0.699576 0.127049 0.877673 0.454664
-0.030993 0.030211 0.254177 -0.704276 0.702384 0.103030 0.864453 0.453437
-0.043927 0.017343 0.208810 -0.934843 0.343822 0.088443 0.850224 0.447009
-0.046824 -0.000042 0.208810 -0.995849 0.000000 0.090854 0.850673 0.441365
-0.047550 0.018058 0.159688 -0.936827 0.344676 0.059206 0.834523 0.445981
-0.050567 -0.000042 0.159688 -0.998138 0.000000 0.060793 0.834845 0.440102
-0.035234 0.031831 0.208810 -0.705527 0.704306 0.078280 0.849974 0.452397
-0.038500 0.033142 0.159688 -0.706626 0.705618 0.052370 0.834343 0.451587
-0.046824 -0.000042 0.208810 -0.995849 0.000000 0.090854 0.982335 0.453250
-0.043927 -0.017428 0.208810 -0.934812 -0.343852 0.088473 0.976692 0.453698
-0.035234 -0.031916 0.208810 -0.705527 -0.704306 0.078341 0.971305 0.453947
-0.050567 -0.000042 0.159688 -0.998138 0.000000 0.060793 0.983594 0.469079
-0.047550 -0.018143 0.159688 -0.936827 -0.344676 0.059206 0.977714 0.469398
-0.038500 -0.033227 0.159688 -0.706626 -0.705618 0.052370 0.972109 0.469577
0.026306 0.000196 0.436996 0.023164 0.000244 0.999725 0.445889 0.636383
0.025626 0.012154 0.434083 0.019745 0.458846 0.888272 0.441975 0.636122
0.014255 0.011365 0.431341 -0.398358 0.398816 0.825983 0.441475 0.632779
0.014166 0.000189 0.434083 -0.416761 0.000153 0.908994 0.445198 0.631919
0.026306 0.000196 0.436996 0.023164 0.000244 0.999725 0.378055 0.705201
0.014166 0.000189 0.434083 -0.416761 0.000153 0.908994 0.377360 0.709666
0.014255 -0.011002 0.431341 -0.397809 -0.397931 0.826655 0.373629 0.708807
0.025626 -0.011777 0.434083 0.019684 -0.457625 0.888913 0.374132 0.705461
0.035717 -0.011002 0.431341 0.486831 -0.452284 0.747246 0.373888 0.702522
0.037086 0.000189 0.434083 0.529099 0.000214 0.848537 0.377311 0.701342
0.037086 0.000189 0.434083 0.529099 0.000214 0.848537 0.445144 0.640242
0.035717 0.011365 0.431341 0.487472 0.453261 0.746239 0.441731 0.639056
0.039360 -0.000042 0.050153 0.999969 0.000000 -0.005188 0.799615 0.486498
0.036236 0.018702 0.050153 0.938322 0.345653 -0.004425 0.799574 0.480380
0.036584 0.018488 0.107171 0.938292 0.345744 -0.003784 0.817897 0.480282
0.039672 -0.000042 0.107171 0.999969 0.000000 -0.005249 0.817991 0.486325
0.036920 0.018058 0.159688 0.938292 0.345805 -0.001770 0.834753 0.480089
0.039937 -0.000042 0.159688 0.999969 0.000000 -0.004212 0.834911 0.485986
0.026864 0.034322 0.050153 0.706809 0.707358 -0.001648 0.799527 0.474529
0.027319 0.033929 0.107171 0.706687 0.707511 0.001190 0.817800 0.474509
0.027870 0.033142 0.159688 0.706534 0.707633 0.006409 0.834598 0.474458
0.039360 -0.000042 0.050153 0.999969 0.000000 -0.005188 0.937181 0.504289
0.039672 -0.000042 0.107171 0.999969 0.000000 -0.005249 0.937364 0.485912
0.036584 -0.018572 0.107171 0.938292 -0.345744 -0.003784 0.943407 0.486009
0.036236 -0.018787 0.050153 0.938322 -0.345653 -0.004425 0.943299 0.504333
0.027319 -0.034014 0.107171 0.706687 -0.707511 0.001190 0.949180 0.486108
0.026864 -0.034407 0.050153 0.706809 -0.707358 -0.001648 0.949151 0.504383
0.039937 -0.000042 0.159688 0.999969 0.000000 -0.004212 0.937712 0.468992
0.036920 -0.018143 0.159688 0.938292 -0.345805 -0.001770 0.943609 0.469153
0.027870 -0.033227 0.159688 0.706534 -0.707633 0.006409 0.949239 0.469311
0.035914 -0.018858 -0.012472 0.938353 -0.345592 -0.003937 0.943268 0.524483
0.039050 -0.000042 -0.012472 0.999969 0.000000 -0.004303 0.937125 0.524471
0.035657 -0.018858 -0.081809 0.938383 -0.345531 -0.002655 0.943281 0.546811
0.038793 -0.000042 -0.081809 0.999969 0.000000 -0.002838 0.937136 0.546812
0.026506 -0.034538 -0.012472 0.706931 -0.707236 -0.002564 0.949152 0.524501
0.026249 -0.034538 -0.081809 0.707022 -0.707144 -0.002014 0.949171 0.546814
0.039050 -0.000042 -0.012472 0.999969 0.000000 -0.004303 0.779434 0.486544
0.035914 0.018774 -0.012472 0.938353 0.345592 -0.003937 0.779426 0.480401
0.026506 0.034453 -0.012472 0.706931 0.707236 -0.002564 0.779411 0.474519
0.038793 -0.000042 -0.081809 0.999969 0.000000 -0.002838 0.757096 0.486522
0.035657 0.018774 -0.081809 0.938383 0.345531 -0.002655 0.757101 0.480378
0.026249 0.034453 -0.081809 0.707022 0.707144 -0.002014 0.757100 0.474489
0.040460 -0.000038 0.254177 0.999878 0.000000 -0.014039 0.865331 0.484918
0.037712 0.016461 0.254177 0.938292 0.345622 -0.009308 0.865118 0.479535
0.038706 0.015531 0.295427 0.938231 0.344981 -0.025849 0.878442 0.479347
0.041292 -0.000026 0.295427 0.999481 0.000000 -0.031922 0.878621 0.484435
0.029467 0.030211 0.254177 0.706595 0.707541 0.007263 0.864889 0.474381
0.030949 0.028495 0.295427 0.707083 0.707114 -0.003967 0.878217 0.474467
0.040460 -0.000038 0.254177 0.999878 0.000000 -0.014039 0.938800 0.438572
0.041292 -0.000026 0.295427 0.999481 0.000000 -0.031922 0.939292 0.425284
0.038706 -0.015584 0.295427 0.938231 -0.345012 -0.025544 0.944379 0.425471
0.037711 -0.016538 0.254177 0.938292 -0.345653 -0.009156 0.944182 0.438792
0.030949 -0.028548 0.295427 0.707053 -0.707114 -0.003327 0.949256 0.425703
0.029467 -0.030287 0.254177 0.706565 -0.707572 0.007538 0.949334 0.439025
0.037206 -0.017428 0.208810 0.938292 -0.345805 -0.002045 0.943893 0.453386
0.040104 -0.000042 0.208810 0.999969 0.000000 -0.005615 0.938228 0.453176
0.028513 -0.031916 0.208810 0.706442 -0.707663 0.010102 0.949307 0.453594
0.040104 -0.000042 0.208810 0.999969 0.000000 -0.005615 0.850726 0.485480
0.037206 0.017343 0.208810 0.938292 0.345805 -0.002075 0.850521 0.479814
0.028513 0.031831 0.208810 0.706473 0.707633 0.010041 0.850317 0.474399
-0.000763 -0.041287 0.254177 -0.001038 -0.998566 0.053224 0.959822 0.439427
0.015726 -0.038537 0.254177 0.344584 -0.938231 0.030610 0.954474 0.439248
0.018019 -0.036327 0.295427 0.344920 -0.938200 0.028199 0.954120 0.425952
0.002503 -0.038920 0.295427 -0.001312 -0.998230 0.059267 0.959177 0.426168
-0.013012 -0.036327 0.295427 -0.346171 -0.933592 0.092502 0.964219 0.426294
-0.017252 -0.038537 0.254177 -0.345744 -0.935118 0.077517 0.965157 0.439522
-0.020746 -0.040609 0.208810 -0.345775 -0.936369 0.059969 0.965930 0.453995
-0.003360 -0.043506 0.208810 -0.000824 -0.999084 0.042665 0.960323 0.453924
-0.023416 -0.042277 0.159688 -0.345958 -0.937376 0.040040 0.966518 0.469612
-0.005315 -0.045294 0.159688 -0.000702 -0.999573 0.028413 0.960689 0.469559
0.014025 -0.040609 0.208810 0.344584 -0.938353 0.026582 0.954706 0.453780
0.012786 -0.042277 0.159688 0.344768 -0.938505 0.017548 0.954851 0.469452
-0.000763 0.041210 0.254177 -0.001038 0.998596 0.052858 0.864494 0.463889
-0.017252 0.038460 0.254177 -0.345744 0.935118 0.077151 0.864402 0.458551
-0.013012 0.036274 0.295427 -0.346202 0.933653 0.091647 0.877636 0.459495
0.002503 0.038867 0.295427 -0.001343 0.998291 0.058351 0.877760 0.464540
0.018019 0.036274 0.295427 0.344920 0.938200 0.027314 0.877973 0.469600
0.015726 0.038460 0.254177 0.344584 0.938261 0.030244 0.864671 0.469239
0.014025 0.040524 0.208810 0.344584 0.938353 0.026490 0.850134 0.468999
-0.003360 0.043422 0.208810 -0.000824 0.999084 0.042573 0.849993 0.463381
0.012786 0.042193 0.159688 0.344768 0.938505 0.017548 0.834460 0.468846
-0.005315 0.045210 0.159688 -0.000702 0.999573 0.028413 0.834355 0.463008
-0.020746 0.040524 0.208810 -0.345775 0.936369 0.059877 0.849924 0.457773
-0.023416 0.042193 0.159688 -0.345958 0.937376 0.040040 0.834306 0.457178
-0.008478 0.046997 -0.237329 -0.000031 1.000000 0.000000 0.707018 0.462397
-0.027294 0.043861 -0.237329 -0.345531 0.938383 0.000214 0.707019 0.456255
-0.027217 0.043861 -0.158964 -0.345561 0.938383 0.000488 0.732252 0.456282
-0.008401 0.046997 -0.158964 -0.000031 1.000000 0.000000 0.732252 0.462424
-0.027063 0.043861 -0.081809 -0.345592 0.938353 0.000977 0.757085 0.456325
-0.008247 0.046997 -0.081809 -0.000061 1.000000 0.000000 0.757088 0.462463
-0.042974 0.034453 -0.237329 -0.707114 0.707053 0.000458 0.707021 0.450366
-0.042897 0.034453 -0.158964 -0.707144 0.707053 0.001038 0.732253 0.450395
-0.042743 0.034453 -0.081809 -0.707144 0.707022 0.002014 0.757086 0.450441
0.010415 0.043861 -0.158964 0.345439 0.938414 -0.000488 0.732253 0.468567
0.010338 0.043861 -0.237329 0.345470 0.938414 -0.000214 0.707017 0.468541
0.026095 0.034453 -0.158964 0.707053 0.707144 -0.001038 0.732253 0.474455
0.026017 0.034453 -0.237329 0.707053 0.707114 -0.000458 0.707015 0.474430
0.010569 0.043861 -0.081809 0.345408 0.938444 -0.000977 0.757095 0.468603
0.010312 0.043861 -0.310292 0.345470 0.938414 -0.000031 0.683519 0.468525
-0.008504 0.046997 -0.310292 0.000000 1.000000 0.000000 0.683520 0.462382
-0.008504 0.046997 -0.310292 0.000000 1.000000 0.000000 0.088123 0.596739
0.010312 0.043861 -0.310292 0.345470 0.938414 -0.000031 0.088215 0.590037
0.010312 0.043861 -0.371245 0.345500 0.938414 0.000000 0.108984 0.590655
-0.008504 0.046997 -0.371245 0.000000 1.000000 0.000000 0.108765 0.596881
0.025992 0.034453 -0.310292 0.707083 0.707114 -0.000122 0.683516 0.474414
0.025992 0.034453 -0.310292 0.707083 0.707114 -0.000122 0.088437 0.583602
0.025992 0.034453 -0.371245 0.707083 0.707083 0.000000 0.109417 0.584643
-0.027320 0.043861 -0.310292 -0.345500 0.938383 0.000031 0.683523 0.456239
-0.043000 0.034453 -0.310292 -0.707114 0.707083 0.000122 0.683525 0.450350
-0.027320 0.043861 -0.371245 -0.345500 0.938414 0.000000 0.108898 0.603109
-0.027320 0.043861 -0.310292 -0.345500 0.938383 0.000031 0.088123 0.603441
-0.043000 0.034453 -0.371245 -0.707083 0.707083 0.000000 0.109248 0.609126
-0.043000 0.034453 -0.310292 -0.707114 0.707083 0.000122 0.088257 0.609879
-0.007501 -0.046903 0.050153 -0.000366 -0.999969 0.006134 0.961075 0.504475
0.011243 -0.043779 0.050153 0.345134 -0.938536 0.002289 0.954991 0.504433
0.011877 -0.043279 0.107171 0.344981 -0.938566 0.008148 0.954937 0.486200
-0.006652 -0.046367 0.107171 -0.000519 -0.999878 0.014924 0.960929 0.486272
-0.025182 -0.043279 0.107171 -0.345988 -0.937956 0.022065 0.966914 0.486308
-0.026245 -0.043779 0.050153 -0.345866 -0.938200 0.010132 0.967154 0.504497
-0.040624 -0.034014 0.107171 -0.707175 -0.706381 0.029664 0.972654 0.486288
-0.041866 -0.034407 0.050153 -0.707297 -0.706748 0.014344 0.972982 0.504490
-0.026806 -0.043946 -0.012472 -0.345714 -0.938322 0.003418 0.967280 0.524556
-0.007990 -0.047082 -0.012472 -0.000214 -0.999969 0.001404 0.961156 0.524544
-0.027063 -0.043946 -0.081809 -0.345592 -0.938353 0.000977 0.967337 0.546838
-0.008247 -0.047082 -0.081809 -0.000061 -1.000000 0.000000 0.961198 0.546831
-0.042485 -0.034538 -0.012472 -0.707236 -0.706931 0.005524 0.973150 0.524556
-0.042743 -0.034538 -0.081809 -0.707144 -0.707022 0.002014 0.973222 0.546839
0.010826 -0.043946 -0.012472 0.345286 -0.938475 -0.000519 0.955029 0.524523
0.010569 -0.043946 -0.081809 0.345408 -0.938444 -0.000977 0.955058 0.546822
-0.054362 -0.000042 0.050153 -0.999847 0.000000 0.017457 0.984923 0.504338
-0.051238 -0.018787 0.050153 -0.938322 -0.345347 0.016846 0.978819 0.504437
-0.049889 -0.018572 0.107171 -0.937925 -0.345134 0.033967 0.978407 0.486180
-0.052977 -0.000042 0.107171 -0.999359 0.000000 0.035005 0.984433 0.485986
-0.054362 -0.000042 0.050153 -0.999847 0.000000 0.017457 0.799588 0.438759
-0.052977 -0.000042 0.107171 -0.999359 0.000000 0.035005 0.817938 0.439257
-0.049889 0.018488 0.107171 -0.937925 0.345134 0.033967 0.817741 0.445283
-0.051238 0.018702 0.050153 -0.938322 0.345347 0.016846 0.799486 0.444863
-0.040624 0.033929 0.107171 -0.707175 0.706381 0.029664 0.817631 0.451035
-0.041866 0.034322 0.050153 -0.707297 0.706748 0.014344 0.799430 0.450699
-0.051893 0.018774 -0.012472 -0.938414 0.345408 0.006836 0.779390 0.444649
-0.055029 -0.000042 -0.012472 -0.999969 0.000000 0.007172 0.779432 0.438515
-0.052151 0.018774 -0.081809 -0.938414 0.345470 0.002655 0.757095 0.444557
-0.055287 -0.000042 -0.081809 -0.999969 0.000000 0.002838 0.757111 0.438417
-0.042485 0.034453 -0.012472 -0.707236 0.706931 0.005524 0.779367 0.450522
-0.055029 -0.000042 -0.012472 -0.999969 0.000000 0.007172 0.985159 0.524495
-0.051893 -0.018858 -0.012472 -0.938414 -0.345408 0.006836 0.979025 0.524535
-0.055287 -0.000042 -0.081809 -0.999969 0.000000 0.002838 0.985248 0.546819
-0.052151 -0.018858 -0.081809 -0.938414 -0.345470 0.002655 0.979107 0.546833
-0.007501 0.046819 0.050153 -0.000366 0.999969 0.006134 0.799440 0.462606
-0.026245 0.043695 0.050153 -0.345866 0.938200 0.010132 0.799421 0.456527
-0.025182 0.043194 0.107171 -0.345988 0.937956 0.022065 0.817610 0.456775
-0.006652 0.046282 0.107171 -0.000519 0.999878 0.014924 0.817643 0.462760
0.011878 0.043194 0.107171 0.344981 0.938566 0.008148 0.817711 0.468752
0.011243 0.043695 0.050153 0.345134 0.938536 0.002289 0.799479 0.468689
0.010826 0.043861 -0.012472 0.345286 0.938475 -0.000519 0.779391 0.468642
-0.007990 0.046997 -0.012472 -0.000214 0.999969 0.001404 0.779374 0.462515
-0.026806 0.043861 -0.012472 -0.345714 0.938322 0.003418 0.779364 0.456392
-0.054063 -0.000042 -0.440870 -0.986267 0.000000 -0.165136 0.424084 0.600187
-0.051014 -0.018248 -0.440695 -0.922910 -0.345531 -0.169683 0.427124 0.594820
-0.052408 -0.018858 -0.413578 -0.937864 -0.345866 -0.027863 0.435195 0.597532
-0.055544 -0.000042 -0.413578 -0.999603 0.000000 -0.027223 0.433377 0.603925
-0.052408 -0.018858 -0.371245 -0.938414 -0.345500 0.000000 0.449246 0.599712
-0.055544 -0.000042 -0.371245 -1.000000 0.000000 0.000000 0.448482 0.606444
-0.041889 -0.033427 -0.440520 -0.696219 -0.696219 -0.174780 0.429087 0.590186
-0.043000 -0.034538 -0.413578 -0.706809 -0.706809 -0.028718 0.436470 0.591918
-0.043000 -0.034538 -0.371245 -0.707083 -0.707083 0.000000 0.449818 0.593488
-0.054063 -0.000042 -0.440870 -0.986267 0.000000 -0.165136 0.134888 0.616176
-0.055544 -0.000042 -0.413578 -0.999603 0.000000 -0.027223 0.125545 0.619787
-0.052408 0.018774 -0.413578 -0.937864 0.345866 -0.027863 0.123814 0.613370
-0.051014 0.018164 -0.440695 -0.922910 0.345531 -0.169683 0.131921 0.610768
-0.043000 0.034453 -0.413578 -0.706809 0.706809 -0.028718 0.122616 0.607739
-0.041889 0.033343 -0.440520 -0.696219 0.696219 -0.174780 0.130021 0.606108
-0.055544 -0.000042 -0.371245 -1.000000 0.000000 0.000000 0.110407 0.622100
-0.052408 0.018774 -0.371245 -0.938414 0.345500 0.000000 0.109735 0.615358
-0.046833 0.016334 -0.456002 -0.802454 0.314097 -0.507309 0.136141 0.608586
-0.049620 -0.000042 -0.456702 -0.857356 0.000000 -0.514695 0.139697 0.612595
-0.038557 0.015115 -0.463853 -0.501511 0.252846 -0.827357 0.138434 0.606111
-0.040778 -0.000042 -0.465128 -0.527512 0.000000 -0.849513 0.142540 0.609174
-0.038557 0.030011 -0.455302 -0.612842 0.612842 -0.498825 0.133851 0.604838
-0.034056 0.025510 -0.461269 -0.446486 0.446486 -0.775414 0.135991 0.603942
-0.049620 -0.000042 -0.456702 -0.857356 0.000000 -0.514695 0.419323 0.596541
-0.046833 -0.016419 -0.456002 -0.802454 -0.314097 -0.507309 0.422934 0.592580
-0.038557 -0.030095 -0.455302 -0.612842 -0.612842 -0.498825 0.425276 0.588863
-0.040778 -0.000042 -0.465128 -0.527512 0.000000 -0.849513 0.416527 0.593080
-0.038557 -0.015200 -0.463853 -0.501511 -0.252846 -0.827357 0.420675 0.590074
-0.034056 -0.025595 -0.461269 -0.446486 -0.446486 -0.775414 0.423148 0.587938
0.038561 -0.000042 -0.237329 0.999969 0.000000 -0.000641 0.707007 0.486462
0.035425 0.018774 -0.237329 0.938383 0.345500 -0.000610 0.707012 0.480319
0.035503 0.018774 -0.158964 0.938383 0.345531 -0.001373 0.732251 0.480345
0.038638 -0.000042 -0.158964 0.999969 0.000000 -0.001465 0.732245 0.486488
0.038561 -0.000042 -0.237329 0.999969 0.000000 -0.000641 0.937173 0.596909
0.038638 -0.000042 -0.158964 0.999969 0.000000 -0.001465 0.937159 0.571667
0.035502 -0.018858 -0.158964 0.938383 -0.345531 -0.001373 0.943303 0.571664
0.035425 -0.018858 -0.237329 0.938383 -0.345500 -0.000610 0.943318 0.596907
0.026095 -0.034538 -0.158964 0.707053 -0.707144 -0.001038 0.949193 0.571664
0.026017 -0.034538 -0.237329 0.707053 -0.707114 -0.000458 0.949208 0.596907
0.035400 -0.018858 -0.310292 0.938383 -0.345500 -0.000153 0.943324 0.620409
0.038536 -0.000042 -0.310292 1.000000 0.000000 -0.000153 0.937180 0.620410
0.038536 -0.000042 -0.310292 1.000000 0.000000 -0.000153 0.470407 0.555045
0.035400 -0.018858 -0.310292 0.938383 -0.345500 -0.000153 0.470715 0.561799
0.035400 -0.018858 -0.371245 0.938414 -0.345500 0.000000 0.449498 0.562773
0.038536 -0.000042 -0.371245 1.000000 0.000000 0.000000 0.448826 0.556031
0.025992 -0.034538 -0.310292 0.707083 -0.707114 -0.000122 0.949214 0.620408
0.025992 -0.034538 -0.310292 0.707083 -0.707114 -0.000122 0.470976 0.568252
0.025992 -0.034538 -0.371245 0.707083 -0.707083 0.000000 0.449985 0.569005
0.038536 -0.000042 -0.310292 1.000000 0.000000 -0.000153 0.683510 0.486446
0.035400 0.018774 -0.310292 0.938383 0.345500 -0.000153 0.683514 0.480303
0.038536 -0.000042 -0.310292 1.000000 0.000000 -0.000153 0.089187 0.570404
0.038536 -0.000042 -0.371245 1.000000 0.000000 0.000000 0.110753 0.571686
0.035400 0.018774 -0.371245 0.938414 0.345500 0.000000 0.109989 0.578418
0.035400 0.018774 -0.310292 0.938383 0.345500 -0.000153 0.088786 0.577154
-0.008478 -0.047082 -0.237329 -0.000031 -0.999969 0.000000 0.961242 0.596909
0.010338 -0.043946 -0.237329 0.345470 -0.938414 -0.000214 0.955098 0.596907
0.010415 -0.043946 -0.158964 0.345439 -0.938414 -0.000488 0.955083 0.571667
-0.008401 -0.047082 -0.158964 -0.000031 -1.000000 0.000000 0.961226 0.571671
-0.027217 -0.043946 -0.158964 -0.345561 -0.938383 0.000488 0.967369 0.571674
-0.027294 -0.043946 -0.237329 -0.345531 -0.938383 0.000214 0.967386 0.596910
-0.042897 -0.034538 -0.158964 -0.707144 -0.707053 0.001038 0.973257 0.571675
-0.042974 -0.034538 -0.237329 -0.707114 -0.707053 0.000458 0.973275 0.596911
-0.027320 -0.043946 -0.310292 -0.345531 -0.938383 0.000031 0.967392 0.620410
-0.008504 -0.047082 -0.310292 0.000000 -0.999969 0.000000 0.961247 0.620409
-0.008504 -0.047082 -0.310292 0.000000 -0.999969 0.000000 0.471110 0.581391
-0.027320 -0.043946 -0.310292 -0.345531 -0.938383 0.000031 0.471018 0.588092
-0.027320 -0.043946 -0.371245 -0.345500 -0.938414 0.000000 0.450250 0.587476
-0.008504 -0.047082 -0.371245 0.000000 -1.000000 0.000000 0.450469 0.581250
-0.043000 -0.034538 -0.310292 -0.707114 -0.707083 0.000122 0.973281 0.620410
-0.043000 -0.034538 -0.310292 -0.707114 -0.707083 0.000122 0.470796 0.594527
0.010312 -0.043946 -0.310292 0.345470 -0.938414 -0.000031 0.955103 0.620409
0.010312 -0.043946 -0.371245 0.345500 -0.938414 0.000000 0.450335 0.575022
0.010312 -0.043946 -0.310292 0.345470 -0.938414 -0.000031 0.471110 0.574689
-0.055518 -0.000042 -0.237329 -0.999969 0.000000 0.000641 0.985308 0.596907
-0.052382 -0.018858 -0.237329 -0.938414 -0.345470 0.000610 0.979164 0.596910
-0.052305 -0.018858 -0.158964 -0.938414 -0.345470 0.001373 0.979146 0.571673
-0.055441 -0.000042 -0.158964 -0.999969 0.000000 0.001465 0.985289 0.571667
-0.055518 -0.000042 -0.237329 -0.999969 0.000000 0.000641 0.707030 0.438335
-0.055441 -0.000042 -0.158964 -0.999969 0.000000 0.001465 0.732266 0.438365
-0.052305 0.018774 -0.158964 -0.938414 0.345470 0.001373 0.732258 0.444507
-0.052382 0.018774 -0.237329 -0.938414 0.345470 0.000610 0.707025 0.444478
-0.052408 0.018774 -0.310292 -0.938414 0.345500 0.000153 0.683528 0.444461
-0.055544 -0.000042 -0.310292 -1.000000 0.000000 0.000153 0.683532 0.438317
-0.055544 -0.000042 -0.310292 -1.000000 0.000000 0.000153 0.088826 0.623085
-0.052408 0.018774 -0.310292 -0.938414 0.345500 0.000153 0.088517 0.616331
-0.055544 -0.000042 -0.310292 -1.000000 0.000000 0.000153 0.985315 0.620408
-0.052408 -0.018858 -0.310292 -0.938414 -0.345500 0.000153 0.979171 0.620409
-0.055544 -0.000042 -0.310292 -1.000000 0.000000 0.000153 0.470047 0.607724
-0.052408 -0.018858 -0.310292 -0.938414 -0.345500 0.000153 0.470448 0.600975
-0.008504 -0.000042 -0.471905 0.000000 0.000000 -0.999969 0.146183 0.597138
-0.008504 0.017554 -0.470204 0.000000 0.221442 -0.975158 0.140009 0.597095
0.007873 0.016334 -0.468604 0.226142 0.226142 -0.947478 0.139790 0.592209
0.009092 -0.000042 -0.470204 0.221442 0.000000 -0.975158 0.145118 0.590394
0.021549 0.015115 -0.463853 0.501511 0.252846 -0.827357 0.138559 0.588058
0.023770 -0.000042 -0.465128 0.527512 0.000000 -0.849513 0.142706 0.585053
-0.008504 0.032232 -0.465128 0.000000 0.527512 -0.849513 0.135804 0.597067
0.006653 0.030011 -0.463853 0.252846 0.501511 -0.827357 0.135920 0.593236
0.017048 0.025510 -0.461269 0.446486 0.446486 -0.775414 0.136086 0.590194
-0.008504 -0.000042 -0.471905 0.000000 0.000000 -0.999969 0.413049 0.580994
0.009092 -0.000042 -0.470204 0.221442 0.000000 -0.975158 0.414207 0.574265
0.007873 -0.016419 -0.468604 0.226142 -0.226142 -0.947478 0.419510 0.576153
-0.008504 -0.017639 -0.470204 0.000000 -0.221442 -0.975158 0.419223 0.581036
0.006653 -0.030095 -0.463853 0.252846 -0.501511 -0.827357 0.423365 0.577233
-0.008504 -0.032317 -0.465128 0.000000 -0.527512 -0.849513 0.423429 0.581065
0.023770 -0.000042 -0.465128 0.527512 0.000000 -0.849513 0.416693 0.568957
0.021549 -0.015200 -0.463853 0.501511 -0.252846 -0.827357 0.420799 0.572020
0.017048 -0.025595 -0.461269 0.446486 -0.446486 -0.775414 0.423242 0.574189
-0.024881 -0.016419 -0.468604 -0.226142 -0.226142 -0.947478 0.419443 0.585923
-0.026100 -0.000042 -0.470204 -0.221442 0.000000 -0.975158 0.414114 0.587738
-0.023661 -0.030095 -0.463853 -0.252846 -0.501511 -0.827357 0.423313 0.584896
-0.026100 -0.000042 -0.470204 -0.221442 0.000000 -0.975158 0.145025 0.603866
-0.024881 0.016334 -0.468604 -0.226142 0.226142 -0.947478 0.139723 0.601979
-0.023661 0.030011 -0.463853 -0.252846 0.501511 -0.827357 0.135868 0.600899
-0.008504 0.045516 -0.440870 0.000000 0.986267 -0.165136 0.128978 0.597020
-0.026710 0.042468 -0.440695 -0.345531 0.922910 -0.169683 0.129188 0.601606
-0.027320 0.043861 -0.413578 -0.345866 0.937864 -0.027863 0.121938 0.602411
-0.008504 0.046997 -0.413578 0.000000 0.999603 -0.027223 0.121727 0.596970
0.010312 0.043861 -0.413578 0.345866 0.937864 -0.027863 0.122013 0.591532
0.009702 0.042468 -0.440695 0.345531 0.922910 -0.169683 0.129251 0.592436
0.025992 0.034453 -0.413578 0.706809 0.706809 -0.028718 0.122764 0.586214
0.024881 0.033343 -0.440520 0.696219 0.696219 -0.174780 0.130146 0.587946
0.007873 0.038286 -0.456002 0.314097 0.802454 -0.507309 0.133104 0.593148
-0.008504 0.041074 -0.456702 0.000000 0.857356 -0.514695 0.132891 0.597046
0.021549 0.030011 -0.455302 0.612842 0.612842 -0.498825 0.133958 0.589269
-0.024881 0.038286 -0.456002 -0.314097 0.802454 -0.507309 0.133050 0.600948
0.037055 -0.000042 -0.440870 0.986267 0.000000 -0.165136 0.135151 0.577946
0.034006 0.018164 -0.440695 0.922910 0.345531 -0.169683 0.132110 0.583312
0.035400 0.018774 -0.413578 0.937864 0.345866 -0.027863 0.124039 0.580599
0.038536 -0.000042 -0.413578 0.999603 0.000000 -0.027223 0.125858 0.574207
0.037055 -0.000042 -0.440870 0.986267 0.000000 -0.165136 0.424345 0.561955
0.038536 -0.000042 -0.413578 0.999603 0.000000 -0.027223 0.433688 0.558344
0.035400 -0.018858 -0.413578 0.937864 -0.345866 -0.027863 0.435419 0.564761
0.034006 -0.018248 -0.440695 0.922910 -0.345531 -0.169683 0.427312 0.567363
0.025992 -0.034538 -0.413578 0.706809 -0.706809 -0.028718 0.436617 0.570392
0.024881 -0.033427 -0.440520 0.696219 -0.696219 -0.174780 0.429212 0.572023
0.029825 -0.016419 -0.456002 0.802454 -0.314097 -0.507309 0.423092 0.569545
0.032612 -0.000042 -0.456702 0.857356 0.000000 -0.514695 0.419536 0.565535
0.021549 -0.030095 -0.455302 0.612842 -0.612842 -0.498825 0.425382 0.573293
0.032612 -0.000042 -0.456702 0.857356 0.000000 -0.514695 0.139911 0.581592
0.029825 0.016334 -0.456002 0.802454 0.314097 -0.507309 0.136299 0.585553
-0.008504 -0.045601 -0.440870 0.000000 -0.986267 -0.165136 0.430256 0.581112
0.009702 -0.042552 -0.440695 0.345531 -0.922910 -0.169683 0.430046 0.576525
0.010312 -0.043946 -0.413578 0.345866 -0.937864 -0.027863 0.437295 0.575720
-0.008504 -0.047082 -0.413578 0.000000 -0.999603 -0.027223 0.437507 0.581161
-0.027320 -0.043946 -0.413578 -0.345866 -0.937864 -0.027863 0.437221 0.586599
-0.026710 -0.042552 -0.440695 -0.345531 -0.922910 -0.169683 0.429983 0.585695
-0.024881 -0.038371 -0.456002 -0.314097 -0.802454 -0.507309 0.426129 0.584984
-0.008504 -0.041158 -0.456702 0.000000 -0.857356 -0.514695 0.426342 0.581085
0.007873 -0.038371 -0.456002 0.314097 -0.802454 -0.507309 0.426183 0.577184
4 0 1 2 3
4 3 2 4 5
4 1 6 7 2
4 2 7 8 4
4 9 10 11 12
4 12 11 13 14
4 10 15 16 11
4 11 16 17 13
4 9 12 18 19
4 20 21 22 23
4 12 14 24 18
4 21 25 26 22
4 0 27 28 1
4 1 28 29 6
4 30 31 32 33
4 33 32 34 35
4 36 37 38 39
4 39 38 40 41
4 37 14 13 38
4 38 13 17 40
4 36 39 42 43
4 43 42 44 45
4 39 41 46 42
4 42 46 47 44
4 36 43 48 49
4 50 51 52 53
4 43 45 54 48
4 51 55 56 52
4 36 49 57 37
4 37 57 24 14
4 50 53 58 59
4 59 58 26 25
4 60 61 62 63
4 63 62 64 65
4 61 45 44 62
4 62 44 47 64
4 66 67 68 69
4 69 68 70 71
4 67 72 73 68
4 68 73 74 70
4 66 69 75 76
4 77 78 79 80
4 69 71 81 75
4 78 82 83 79
4 60 84 85 61
4 61 85 54 45
4 86 87 88 89
4 89 88 56 55
4 90 91 92 93
4 93 92 94 95
4 91 71 70 92
4 92 70 74 94
4 90 93 96 97
4 97 96 7 6
4 93 95 98 96
4 96 98 8 7
4 90 97 99 100
4 101 102 103 104
4 97 6 29 99
4 102 35 34 103
4 90 100 105 91
4 91 105 81 71
4 101 104 106 107
4 107 106 83 82
4 108 109 110 111
4 111 110 88 87
4 109 112 113 110
4 110 113 56 88
4 114 115 116 117
4 117 116 118 119
4 115 80 79 116
4 116 79 83 118
4 114 117 120 121
4 121 120 122 123
4 117 119 124 120
4 120 124 125 122
4 108 126 127 109
4 109 127 128 112
4 126 129 130 127
4 127 130 131 128
4 132 133 134 135
4 135 134 73 72
4 133 95 94 134
4 134 94 74 73
4 136 137 138 139
4 139 138 46 41
4 137 65 64 138
4 138 64 47 46
4 136 139 140 141
4 141 140 16 15
4 139 41 40 140
4 140 40 17 16
4 132 142 143 133
4 133 143 98 95
4 142 5 4 143
4 143 4 8 98
4 144 145 146 147
4 147 146 148 149
4 145 150 151 146
4 146 151 152 148
4 153 154 155 156
4 156 155 157 158
4 154 159 160 155
4 155 160 161 157
4 153 156 162 163
4 163 162 164 165
4 156 158 166 162
4 162 166 167 164
4 144 168 169 145
4 145 169 170 150
4 168 171 172 169
4 169 172 173 170
4 174 175 176 177
4 177 176 32 31
4 175 178 179 176
4 176 179 34 32
4 180 181 182 183
4 183 182 184 185
4 181 23 22 182
4 182 22 26 184
4 180 183 186 187
4 187 186 160 159
4 183 185 188 186
4 186 188 161 160
4 174 189 190 175
4 175 190 191 178
4 189 149 148 190
4 190 148 152 191
4 192 193 194 195
4 195 194 58 53
4 193 185 184 194
4 194 184 26 58
4 192 195 196 197
4 197 196 113 112
4 195 53 52 196
4 196 52 56 113
4 192 197 198 199
4 199 198 200 201
4 197 112 128 198
4 198 128 131 200
4 192 199 202 193
4 193 202 188 185
4 199 201 203 202
4 202 203 161 188
4 204 205 206 207
4 207 206 106 104
4 205 119 118 206
4 206 118 83 106
4 204 207 208 209
4 209 208 179 178
4 207 104 103 208
4 208 103 34 179
4 204 209 210 211
4 211 210 212 213
4 209 178 191 210
4 210 191 152 212
4 204 211 214 205
4 205 214 124 119
4 211 213 215 214
4 214 215 125 124
4 216 217 218 219
4 219 218 220 221
4 217 222 223 218
4 218 223 224 220
4 216 219 225 226
4 226 225 227 228
4 219 221 229 225
4 225 229 173 227
4 216 226 230 231
4 232 233 234 235
4 226 228 236 230
4 233 237 238 234
4 216 231 239 217
4 217 239 240 222
4 232 235 241 242
4 242 241 243 244
4 245 246 247 248
4 248 247 203 201
4 246 158 157 247
4 247 157 161 203
4 245 248 249 250
4 250 249 251 252
4 248 201 200 249
4 249 200 131 251
4 245 250 253 254
4 254 253 255 256
4 250 252 257 253
4 253 257 258 255
4 245 254 259 246
4 246 259 166 158
4 254 256 260 259
4 259 260 167 166
4 261 262 263 264
4 264 263 130 129
4 262 252 251 263
4 263 251 131 130
4 265 266 267 268
4 268 267 269 270
4 266 123 122 267
4 267 122 125 269
4 265 268 271 272
4 272 271 273 274
4 268 270 275 271
4 271 275 224 273
4 261 276 277 262
4 262 277 257 252
4 276 278 279 277
4 277 279 258 257
4 280 281 282 283
4 283 282 215 213
4 281 270 269 282
4 282 269 125 215
4 280 283 284 285
4 285 284 151 150
4 283 213 212 284
4 284 212 152 151
4 280 285 286 287
4 287 286 229 221
4 285 150 170 286
4 286 170 173 229
4 280 287 288 281
4 281 288 275 270
4 287 221 220 288
4 288 220 224 275
4 289 290 291 292
4 292 291 293 294
4 290 295 296 291
4 291 296 297 293
4 298 299 300 301
4 301 300 302 303
4 299 304 305 300
4 300 305 243 302
4 298 301 306 307
4 307 306 308 309
4 301 303 310 306
4 306 310 311 308
4 289 312 313 290
4 290 313 314 295
4 312 315 316 313
4 313 316 317 314
4 318 319 320 321
4 321 320 172 171
4 319 228 227 320
4 320 227 173 172
4 322 323 324 325
4 325 324 326 327
4 323 165 164 324
4 324 164 167 326
4 322 325 328 329
4 330 331 332 333
4 325 327 334 328
4 331 335 336 332
4 318 337 338 319
4 319 338 236 228
4 339 340 341 342
4 342 341 238 237
4 343 344 345 346
4 346 345 260 256
4 344 327 326 345
4 345 326 167 260
4 343 346 347 348
4 348 347 349 350
4 346 256 255 347
4 347 255 258 349
4 343 348 351 352
4 353 354 355 356
4 348 350 357 351
4 354 358 297 355
4 343 352 359 344
4 344 359 334 327
4 353 356 360 361
4 361 360 336 335
4 362 363 364 365
4 365 364 279 278
4 363 350 349 364
4 364 349 258 279
4 366 367 368 369
4 369 368 223 222
4 367 274 273 368
4 368 273 224 223
4 366 369 370 371
4 372 373 305 304
4 369 222 240 370
4 373 244 243 305
4 362 374 375 363
4 363 375 357 350
4 376 294 293 377
4 377 293 297 358
4 378 379 380 381
4 381 380 382 383
4 379 384 385 380
4 380 385 386 382
4 387 388 389 390
4 390 389 391 392
4 388 393 394 389
4 389 394 395 391
4 387 390 396 397
4 397 396 316 315
4 390 392 398 396
4 396 398 317 316
4 378 399 400 379
4 379 400 401 384
4 399 309 308 400
4 400 308 311 401
4 402 403 404 405
4 405 404 241 235
4 403 303 302 404
4 404 302 243 241
4 402 405 406 407
4 407 406 408 409
4 405 235 234 406
4 406 234 238 408
4 402 407 410 411
4 411 410 385 384
4 407 409 412 410
4 410 412 386 385
4 402 411 413 403
4 403 413 310 303
4 411 384 401 413
4 413 401 311 310
4 414 415 416 417
4 417 416 341 340
4 415 409 408 416
4 416 408 238 341
4 418 419 420 421
4 421 420 422 423
4 419 333 332 420
4 420 332 336 422
4 418 421 424 425
4 425 424 394 393
4 421 423 426 424
4 424 426 395 394
4 414 427 428 415
4 415 428 412 409
4 427 383 382 428
4 428 382 386 412
4 429 430 431 432
4 432 431 360 356
4 430 423 422 431
4 431 422 336 360
4 429 432 433 434
4 434 433 296 295
4 432 356 355 433
4 433 355 297 296
4 429 434 435 436
4 436 435 398 392
4 434 295 314 435
4 435 314 317 398
4 429 436 437 430
4 430 437 426 423
4 436 392 391 437
4 437 391 395 426
