ply
format ascii 1.0
comment Created by Blender 2.69 (sub 0) - www.blender.org, source file: 'ant.blend'
element vertex 438
property float x
property float y
property float z
property float nx
property float ny
property float nz
property float s
property float t
element face 352
property list uchar uint vertex_indices
end_header
-0.047725 -0.000084 0.390593 -0.999023 0.000000 -0.043672 0.845150 0.618552
-0.045544 -0.013117 0.390293 -0.937803 -0.345897 -0.029237 0.843510 0.612418
-0.045853 -0.011608 0.409751 -0.925138 -0.361309 0.116306 0.851892 0.610514
-0.047947 -0.000129 0.410951 -0.993774 0.000000 0.111362 0.854787 0.615213
-0.042976 -0.010637 0.423202 -0.817408 -0.400464 0.414014 0.856978 0.607823
-0.044851 -0.000166 0.425387 -0.884854 -0.000061 0.465804 0.860850 0.610935
-0.039126 -0.023975 0.389993 -0.713645 -0.700308 0.015625 0.842210 0.607022
-0.040068 -0.021163 0.408552 -0.710379 -0.686941 0.152989 0.849830 0.606373
-0.039142 -0.017851 0.418776 -0.684255 -0.650655 0.329234 0.853963 0.605704
-0.047725 -0.000084 0.390593 -0.999023 0.000000 -0.043672 0.756901 0.559926
-0.047947 -0.000129 0.410951 -0.993774 0.000000 0.111362 0.766499 0.563397
-0.045853 0.011356 0.409751 -0.924955 0.361248 0.117985 0.763517 0.568051
-0.045544 0.012951 0.390293 -0.937803 0.345958 -0.027863 0.755153 0.566034
-0.040068 0.020917 0.408552 -0.710105 0.686544 0.156072 0.761382 0.572164
-0.039126 0.023811 0.389993 -0.713584 0.700278 0.018372 0.753761 0.571411
-0.044851 -0.000166 0.425387 -0.884854 -0.000061 0.465804 0.772514 0.567758
-0.042976 0.010315 0.423202 -0.816889 0.400006 0.415509 0.768579 0.570811
-0.039142 0.017553 0.418776 -0.683645 0.649861 0.332102 0.765519 0.572889
-0.043243 0.013929 0.364131 -0.937010 0.341746 -0.071841 0.742988 0.564817
-0.045535 -0.000037 0.364131 -0.996582 0.000000 -0.082492 0.743764 0.557921
-0.040460 0.014677 0.332198 -0.937529 0.343455 -0.055208 0.727451 0.564511
-0.042888 0.000003 0.332198 -0.997986 0.000031 -0.063326 0.727772 0.557146
-0.036365 0.025567 0.364131 -0.710013 0.703299 -0.034852 0.742248 0.571118
-0.033175 0.026906 0.332198 -0.707846 0.705863 -0.026124 0.727071 0.571447
-0.045535 -0.000037 0.364131 -0.996582 0.000000 -0.082492 0.831992 0.620374
-0.043243 -0.014003 0.364131 -0.936979 -0.341655 -0.072878 0.831334 0.613466
-0.036364 -0.025641 0.364131 -0.709983 -0.703207 -0.036958 0.830699 0.607153
-0.042888 0.000003 0.332198 -0.997986 0.000031 -0.063326 0.815993 0.620920
-0.040460 -0.014672 0.332198 -0.937498 -0.343394 -0.055849 0.815793 0.613551
-0.033175 -0.026901 0.332198 -0.707877 -0.705771 -0.027467 0.815525 0.606607
-0.015935 0.032486 0.390593 0.000885 0.989563 0.143895 0.752681 0.581770
-0.028594 0.030320 0.390293 -0.356212 0.930967 0.079806 0.753014 0.576524
-0.031086 0.026626 0.409751 -0.372600 0.898556 0.231788 0.760838 0.576235
-0.020226 0.028517 0.410951 -0.000580 0.949553 0.313578 0.760802 0.580417
-0.033190 0.020507 0.423202 -0.415143 0.764214 0.493515 0.766351 0.575778
-0.023596 0.021952 0.425387 -0.009491 0.793573 0.608356 0.766599 0.579371
-0.008805 0.026626 0.409751 0.350475 0.859493 0.372051 0.760488 0.584817
-0.003136 0.030320 0.390293 0.348827 0.912564 0.213294 0.752608 0.587111
0.000737 0.020917 0.408552 0.646870 0.635639 0.421247 0.760858 0.589209
0.007536 0.023811 0.389993 0.684652 0.672903 0.280007 0.753151 0.592372
-0.012982 0.020507 0.423202 0.364666 0.704581 0.608722 0.766138 0.583346
-0.004963 0.017553 0.418776 0.591266 0.578356 0.562029 0.765265 0.586999
0.002612 0.032550 0.364131 0.348033 0.928068 0.132481 0.741314 0.589694
-0.011145 0.034877 0.364131 0.001434 0.997223 0.074221 0.741285 0.583440
0.008106 0.034243 0.332198 0.347453 0.931822 0.104587 0.726578 0.592317
-0.006464 0.036689 0.332198 0.001831 0.998230 0.059297 0.726512 0.585305
0.014075 0.025567 0.364131 0.698630 0.689016 0.192755 0.741821 0.595769
0.020247 0.026906 0.332198 0.702170 0.695486 0.152226 0.727007 0.599051
-0.024901 0.032550 0.364131 -0.348613 0.937040 0.019532 0.741635 0.577195
-0.021034 0.034243 0.332198 -0.345775 0.938139 0.016724 0.726712 0.578266
0.015854 -0.000084 0.390593 0.945677 0.000000 0.325083 0.757676 0.603478
0.013814 0.012951 0.390293 0.890744 0.325968 0.316691 0.754872 0.597662
0.005962 0.011356 0.409751 0.826441 0.321482 0.462172 0.763267 0.593293
0.007496 -0.000129 0.410951 0.877804 0.000000 0.478988 0.766991 0.597479
-0.003196 0.010315 0.423202 0.675130 0.339457 0.654927 0.768594 0.588512
-0.002341 -0.000166 0.425387 0.713340 -0.000061 0.700766 0.773082 0.591007
0.015854 -0.000084 0.390593 0.945677 0.000000 0.325083 0.846567 0.575016
0.007496 -0.000129 0.410951 0.877804 0.000000 0.478988 0.855780 0.581159
0.005962 -0.011608 0.409751 0.826991 -0.321787 0.460982 0.852011 0.585294
0.013814 -0.013117 0.390293 0.891079 -0.326121 0.315531 0.843693 0.580794
0.000737 -0.021163 0.408552 0.647603 -0.636494 0.418836 0.849554 0.589341
0.007536 -0.023975 0.389993 0.685141 -0.673391 0.277627 0.841907 0.586061
-0.002341 -0.000166 0.425387 0.713340 -0.000061 0.700766 0.861760 0.587721
-0.003196 -0.010637 0.423202 0.675771 -0.339976 0.653981 0.857251 0.590153
-0.004963 -0.017851 0.418776 0.592120 -0.579394 0.560015 0.853914 0.591617
0.020954 -0.014003 0.364131 0.915403 -0.332347 0.226966 0.831941 0.576339
0.023246 -0.000037 0.364131 0.971618 0.000000 0.236488 0.833984 0.569808
0.027532 -0.014672 0.332198 0.924131 -0.337168 0.179601 0.816958 0.572247
0.029960 0.000003 0.332198 0.982330 0.000000 0.187078 0.818634 0.565204
0.014075 -0.025641 0.364131 0.698935 -0.689230 0.190802 0.830633 0.582492
0.020247 -0.026901 0.332198 0.702353 -0.695608 0.150975 0.815864 0.578989
0.023246 -0.000037 0.364131 0.971618 0.000000 0.236488 0.745014 0.608491
0.020954 0.013929 0.364131 0.915189 0.332316 0.227912 0.743051 0.601936
0.029960 0.000003 0.332198 0.982330 0.000000 0.187078 0.729598 0.612866
0.027532 0.014677 0.332198 0.924009 0.337168 0.180212 0.728013 0.605804
-0.015935 -0.032654 0.390593 0.000916 -0.990112 0.140080 0.841291 0.596653
-0.003136 -0.030486 0.390293 0.349162 -0.913236 0.209906 0.841294 0.591313
-0.008805 -0.026878 0.409751 0.351024 -0.860714 0.368603 0.849126 0.593724
-0.020226 -0.028775 0.410951 -0.000519 -0.950835 0.309580 0.849376 0.598122
-0.012982 -0.020828 0.423202 0.365368 -0.706198 0.606433 0.854732 0.595278
-0.023596 -0.022285 0.425387 -0.009491 -0.795495 0.605823 0.855134 0.599250
-0.031086 -0.026878 0.409751 -0.372936 -0.899441 0.227821 0.849350 0.602299
-0.028594 -0.030486 0.390293 -0.356334 -0.931242 0.076174 0.841545 0.601900
-0.033190 -0.020828 0.423202 -0.415815 -0.765709 0.490677 0.854836 0.602831
-0.024901 -0.032624 0.364131 -0.348643 -0.937071 0.016724 0.830181 0.601067
-0.011145 -0.034951 0.364131 0.001465 -0.997436 0.071261 0.829926 0.594817
-0.021034 -0.034238 0.332198 -0.345805 -0.938169 0.014954 0.815271 0.599780
-0.006464 -0.036684 0.332198 0.001831 -0.998321 0.057436 0.815176 0.592735
0.002612 -0.032624 0.364131 0.348186 -0.928373 0.129765 0.830043 0.588561
0.008106 -0.034238 0.332198 0.347545 -0.931974 0.102847 0.815343 0.585721
0.041985 0.000038 0.254177 0.992615 0.000000 0.121220 0.691674 0.621008
0.039237 0.016538 0.254177 0.932066 0.342509 0.117801 0.690231 0.612915
0.033699 0.015584 0.295427 0.928556 0.340403 0.147923 0.710306 0.609391
0.036285 0.000026 0.295427 0.988220 0.000000 0.152837 0.711738 0.616970
0.030993 0.030287 0.254177 0.704245 0.702384 0.103275 0.689250 0.605076
0.025942 0.028548 0.295427 0.703055 0.699545 0.127689 0.709370 0.602102
0.041985 0.000038 0.254177 0.992615 0.000000 0.121220 0.780825 0.556523
0.036285 0.000026 0.295427 0.988220 0.000000 0.152837 0.800833 0.560844
0.033699 -0.015531 0.295427 0.928587 -0.340403 0.147618 0.799300 0.568405
0.039237 -0.016461 0.254177 0.932096 -0.342479 0.117649 0.779272 0.564597
0.025942 -0.028495 0.295427 0.703116 -0.699576 0.127049 0.798265 0.575683
0.030993 -0.030211 0.254177 0.704276 -0.702384 0.103030 0.778185 0.572423
0.041985 0.000038 0.254177 0.992615 0.000000 0.121220 0.982059 0.627433
0.039237 -0.016461 0.254177 0.932096 -0.342479 0.117649 0.981391 0.635288
0.043927 -0.017343 0.208810 0.934843 -0.343822 0.088443 0.960071 0.633507
0.046824 0.000042 0.208810 0.995849 0.000000 0.090854 0.960684 0.625264
0.047550 -0.018058 0.159688 0.936827 -0.344676 0.059206 0.937155 0.632065
0.050567 0.000042 0.159688 0.998138 0.000000 0.060793 0.937604 0.623493
0.030993 -0.030211 0.254177 0.704276 -0.702384 0.103030 0.981016 0.642829
0.035234 -0.031831 0.208810 0.705527 -0.704306 0.078280 0.959736 0.641379
0.038500 -0.033142 0.159688 0.706626 -0.705618 0.052370 0.936907 0.640241
0.041985 0.000038 0.254177 0.992615 0.000000 0.121220 0.982065 0.755179
0.046824 0.000042 0.208810 0.995849 0.000000 0.090854 0.960690 0.757352
0.043927 0.017428 0.208810 0.934812 0.343852 0.088473 0.960074 0.749109
0.039237 0.016538 0.254177 0.932066 0.342509 0.117801 0.981394 0.747323
0.035234 0.031916 0.208810 0.705527 0.704306 0.078341 0.959736 0.741237
0.030993 0.030287 0.254177 0.704245 0.702384 0.103275 0.981016 0.739782
0.050567 0.000042 0.159688 0.998138 0.000000 0.060793 0.937610 0.759130
0.047550 0.018143 0.159688 0.936827 0.344676 0.059206 0.937158 0.750558
0.038500 0.033227 0.159688 0.706626 0.705618 0.052370 0.936909 0.742382
-0.026306 -0.000196 0.436996 -0.023164 -0.000244 0.999725 0.865482 0.600845
-0.025626 -0.012154 0.434083 -0.019745 -0.458846 0.888272 0.860059 0.600130
-0.014255 -0.011365 0.431341 0.398358 -0.398816 0.825983 0.859645 0.595452
-0.014166 -0.000189 0.434083 0.416761 -0.000153 0.908994 0.864903 0.594547
-0.026306 -0.000196 0.436996 -0.023164 -0.000244 0.999725 0.777011 0.577924
-0.014166 -0.000189 0.434083 0.416761 -0.000153 0.908994 0.776336 0.584222
-0.014255 0.011002 0.431341 0.397809 0.397931 0.826655 0.771075 0.583243
-0.025626 0.011777 0.434083 -0.019684 0.457625 0.888913 0.771561 0.578561
-0.035717 0.011002 0.431341 -0.486831 0.452284 0.747246 0.771008 0.574500
-0.037086 -0.000189 0.434083 -0.529099 -0.000214 0.848537 0.775678 0.572591
-0.037086 -0.000189 0.434083 -0.529099 -0.000214 0.848537 0.864075 0.606151
-0.035717 -0.011365 0.431341 -0.487472 -0.453261 0.746239 0.859451 0.604173
-0.039360 0.000042 0.050153 -0.999969 0.000000 -0.005188 0.886334 0.691167
-0.036236 -0.018702 0.050153 -0.938322 -0.345653 -0.004425 0.886267 0.682255
-0.036584 -0.018488 0.107171 -0.938292 -0.345744 -0.003784 0.912963 0.682091
-0.039672 0.000042 0.107171 -0.999969 0.000000 -0.005249 0.913104 0.690894
-0.036920 -0.018058 0.159688 -0.938292 -0.345805 -0.001770 0.937524 0.681804
-0.039937 0.000042 0.159688 -0.999969 0.000000 -0.004212 0.937751 0.690395
-0.026864 -0.034322 0.050153 -0.706809 -0.707358 -0.001648 0.886191 0.673729
-0.027319 -0.033929 0.107171 -0.706687 -0.707511 0.001190 0.912818 0.673679
-0.027870 -0.033142 0.159688 -0.706534 -0.707633 0.006409 0.937301 0.673597
-0.039360 0.000042 0.050153 -0.999969 0.000000 -0.005188 0.886325 0.691468
-0.039672 0.000042 0.107171 -0.999969 0.000000 -0.005249 0.913095 0.691735
-0.036584 0.018572 0.107171 -0.938292 0.345744 -0.003784 0.912955 0.700538
-0.036236 0.018787 0.050153 -0.938322 0.345653 -0.004425 0.886259 0.700380
-0.027319 0.034014 0.107171 -0.706687 0.707511 0.001190 0.912812 0.708950
-0.026864 0.034407 0.050153 -0.706809 0.707358 -0.001648 0.886185 0.708905
-0.039937 0.000042 0.159688 -0.999969 0.000000 -0.004212 0.937741 0.692229
-0.036920 0.018143 0.159688 -0.938292 0.345805 -0.001770 0.937516 0.700820
-0.027870 0.033227 0.159688 -0.706534 0.707633 0.006409 0.937295 0.709027
-0.035914 0.018858 -0.012472 -0.938353 0.345592 -0.003937 0.856905 0.700328
-0.039050 0.000042 -0.012472 -0.999969 0.000000 -0.004303 0.856924 0.691377
-0.035657 0.018858 -0.081809 -0.938383 0.345531 -0.002655 0.824377 0.700336
-0.038793 0.000042 -0.081809 -0.999969 0.000000 -0.002838 0.824378 0.691384
-0.026506 0.034538 -0.012472 -0.706931 0.707236 -0.002564 0.856876 0.708899
-0.026249 0.034538 -0.081809 -0.707022 0.707144 -0.002014 0.824369 0.708915
-0.039050 0.000042 -0.012472 -0.999969 0.000000 -0.004303 0.856932 0.691263
-0.035914 -0.018774 -0.012472 -0.938353 -0.345592 -0.003937 0.856912 0.682312
-0.026506 -0.034453 -0.012472 -0.706931 -0.707236 -0.002564 0.856881 0.673741
-0.038793 0.000042 -0.081809 -0.999969 0.000000 -0.002838 0.824385 0.691261
-0.035657 -0.018774 -0.081809 -0.938383 -0.345531 -0.002655 0.824383 0.682309
-0.026249 -0.034453 -0.081809 -0.707022 -0.707144 -0.002014 0.824374 0.673730
-0.040460 0.000038 0.254177 -0.999878 0.000000 -0.014039 0.777216 0.621008
-0.037711 -0.016461 0.254177 -0.938292 -0.345622 -0.009308 0.777194 0.612718
-0.038706 -0.015531 0.295427 -0.938231 -0.344981 -0.025849 0.797627 0.613189
-0.041292 0.000026 0.295427 -0.999481 0.000000 -0.031922 0.797680 0.621008
-0.029467 -0.030211 0.254177 -0.706595 -0.707541 0.007263 0.777139 0.604775
-0.030949 -0.028495 0.295427 -0.707083 -0.707114 -0.003967 0.797521 0.605731
-0.040460 0.000038 0.254177 -0.999878 0.000000 -0.014039 0.688999 0.556482
-0.041292 0.000026 0.295427 -0.999481 0.000000 -0.031922 0.709461 0.556788
-0.038706 0.015584 0.295427 -0.938231 0.345012 -0.025544 0.709284 0.564606
-0.037712 0.016538 0.254177 -0.938292 0.345653 -0.009156 0.688848 0.564772
-0.030949 0.028548 0.295427 -0.707053 0.707114 -0.003327 0.709063 0.572059
-0.029467 0.030287 0.254177 -0.706565 0.707572 0.007538 0.688672 0.572713
-0.040460 0.000038 0.254177 -0.999878 0.000000 -0.014039 0.982044 0.693670
-0.037712 0.016538 0.254177 -0.938292 0.345653 -0.009156 0.981763 0.701511
-0.037206 0.017428 0.208810 -0.938292 0.345805 -0.002045 0.960497 0.701191
-0.040104 0.000042 0.208810 -0.999969 0.000000 -0.005615 0.960775 0.692935
-0.029467 0.030287 0.254177 -0.706565 0.707572 0.007538 0.981480 0.709026
-0.028513 0.031916 0.208810 -0.706442 0.707663 0.010102 0.960220 0.709090
-0.040460 0.000038 0.254177 -0.999878 0.000000 -0.014039 0.982057 0.688943
-0.040104 0.000042 0.208810 -0.999969 0.000000 -0.005615 0.960786 0.689685
-0.037206 -0.017343 0.208810 -0.938292 -0.345805 -0.002075 0.960506 0.681428
-0.037711 -0.016461 0.254177 -0.938292 -0.345622 -0.009308 0.981774 0.681101
-0.028513 -0.031831 0.208810 -0.706473 -0.707633 0.010041 0.960228 0.673529
-0.029467 -0.030211 0.254177 -0.706595 -0.707541 0.007263 0.981489 0.673586
0.000763 0.041287 0.254177 0.001038 0.998566 0.053224 0.688539 0.588922
-0.015726 0.038537 0.254177 -0.344584 0.938231 0.030610 0.688539 0.580649
-0.018019 0.036327 0.295427 -0.344920 0.938200 0.028199 0.708865 0.579463
-0.002503 0.038920 0.295427 0.001312 0.998230 0.059267 0.708793 0.587142
0.013012 0.036327 0.295427 0.346171 0.933592 0.092502 0.708931 0.594789
0.017252 0.038537 0.254177 0.345744 0.935118 0.077517 0.688748 0.597181
0.000763 0.041287 0.254177 0.001038 0.998566 0.053224 0.981033 0.724390
0.017252 0.038537 0.254177 0.345744 0.935118 0.077517 0.980940 0.732245
0.020746 0.040609 0.208810 0.345775 0.936369 0.059969 0.959678 0.733379
0.003360 0.043506 0.208810 0.000824 0.999084 0.042665 0.959777 0.725181
0.023416 0.042277 0.159688 0.345958 0.937376 0.040040 0.936865 0.734227
0.005315 0.045294 0.159688 0.000702 0.999573 0.028413 0.936943 0.725724
-0.014025 0.040609 0.208810 -0.344584 0.938353 0.026582 0.959971 0.716972
-0.015726 0.038537 0.254177 -0.344584 0.938231 0.030610 0.981226 0.716542
-0.012786 0.042277 0.159688 -0.344768 0.938505 0.017548 0.937097 0.717209
0.000763 -0.041210 0.254177 0.001038 -0.998596 0.052858 0.777247 0.588566
0.017252 -0.038460 0.254177 0.345744 -0.935118 0.077151 0.777573 0.580310
0.013012 -0.036274 0.295427 0.346202 -0.933653 0.091647 0.797725 0.582992
-0.002503 -0.038867 0.295427 0.001343 -0.998291 0.058351 0.797477 0.590640
-0.018019 -0.036274 0.295427 -0.344920 -0.938200 0.027314 0.797436 0.598322
-0.015726 -0.038460 0.254177 -0.344584 -0.938261 0.030244 0.777125 0.596838
0.000763 -0.041210 0.254177 0.001038 -0.998596 0.052858 0.981038 0.658222
-0.015726 -0.038460 0.254177 -0.344584 -0.938261 0.030244 0.981234 0.666069
-0.014025 -0.040524 0.208810 -0.344584 -0.938353 0.026490 0.959978 0.665646
0.003360 -0.043422 0.208810 0.000824 -0.999084 0.042573 0.959782 0.657437
-0.012786 -0.042193 0.159688 -0.344768 -0.938505 0.017548 0.937101 0.665415
0.005315 -0.045210 0.159688 0.000702 -0.999573 0.028413 0.936945 0.656899
0.020746 -0.040524 0.208810 0.345775 -0.936369 0.059877 0.959680 0.649238
0.017252 -0.038460 0.254177 0.345744 -0.935118 0.077151 0.980942 0.650367
0.023416 -0.042193 0.159688 0.345958 -0.937376 0.040040 0.936866 0.648396
0.008478 -0.046997 -0.237329 0.000031 -0.999969 0.000000 0.751389 0.656181
0.027294 -0.043861 -0.237329 0.345531 -0.938383 0.000214 0.751382 0.647231
0.027217 -0.043861 -0.158964 0.345561 -0.938383 0.000488 0.788146 0.647236
0.008401 -0.046997 -0.158964 0.000031 -1.000000 0.000000 0.788155 0.656185
0.027063 -0.043861 -0.081809 0.345592 -0.938353 0.000977 0.824327 0.647265
0.008247 -0.046997 -0.081809 0.000061 -0.999969 0.000000 0.824341 0.656208
0.042974 -0.034453 -0.237329 0.707114 -0.707053 0.000458 0.751377 0.638652
0.042897 -0.034453 -0.158964 0.707144 -0.707053 0.001038 0.788139 0.638659
0.042743 -0.034453 -0.081809 0.707144 -0.707022 0.002014 0.824320 0.638692
-0.010415 -0.043861 -0.158964 -0.345439 -0.938414 -0.000488 0.788165 0.665135
-0.010338 -0.043861 -0.237329 -0.345470 -0.938414 -0.000214 0.751395 0.665131
-0.026095 -0.034453 -0.158964 -0.707053 -0.707144 -0.001038 0.788173 0.673715
-0.026017 -0.034453 -0.237329 -0.707053 -0.707114 -0.000458 0.751401 0.673712
-0.010569 -0.043861 -0.081809 -0.345408 -0.938444 -0.000977 0.824358 0.665153
-0.010312 -0.043861 -0.310292 -0.345470 -0.938414 -0.000031 0.717159 0.665140
0.008504 -0.046997 -0.310292 0.000000 -0.999969 0.000000 0.717154 0.656189
-0.010312 -0.043861 -0.371245 -0.345500 -0.938414 0.000000 0.688559 0.665153
0.008504 -0.046997 -0.371245 0.000000 -1.000000 0.000000 0.688555 0.656203
-0.025992 -0.034453 -0.310292 -0.707083 -0.707114 -0.000122 0.717163 0.673720
-0.025992 -0.034453 -0.371245 -0.707083 -0.707083 0.000000 0.688563 0.673733
0.027320 -0.043861 -0.310292 0.345500 -0.938383 0.000031 0.717150 0.647239
0.043000 -0.034453 -0.310292 0.707114 -0.707083 0.000122 0.717145 0.638660
0.027320 -0.043861 -0.371245 0.345500 -0.938414 0.000000 0.688551 0.647252
0.043000 -0.034453 -0.371245 0.707083 -0.707083 0.000000 0.688547 0.638672
0.007501 0.046903 0.050153 0.000366 0.999969 0.006134 0.886047 0.726279
-0.011243 0.043779 0.050153 -0.345134 0.938536 0.002289 0.886110 0.717415
-0.011878 0.043279 0.107171 -0.344981 0.938566 0.008148 0.912679 0.717339
0.006652 0.046367 0.107171 0.000519 0.999878 0.014924 0.912574 0.726072
0.025182 0.043279 0.107171 0.345988 0.937956 0.022065 0.912519 0.734796
0.026245 0.043779 0.050153 0.345866 0.938200 0.010132 0.886011 0.735136
0.040624 0.034014 0.107171 0.707175 0.706381 0.029664 0.912543 0.743161
0.041866 0.034407 0.050153 0.707297 0.706748 0.014344 0.886018 0.743628
0.026806 0.043946 -0.012472 0.345714 0.938322 0.003418 0.856787 0.735309
0.007990 0.047082 -0.012472 0.000214 0.999969 0.001404 0.856808 0.726387
0.027063 0.043946 -0.081809 0.345592 0.938353 0.000977 0.824326 0.735380
0.008247 0.047082 -0.081809 0.000061 1.000000 0.000000 0.824338 0.726437
0.042485 0.034538 -0.012472 0.707236 0.706931 0.005524 0.856784 0.743861
0.042743 0.034538 -0.081809 0.707144 0.707022 0.002014 0.824320 0.743953
-0.010826 0.043946 -0.012472 -0.345286 0.938475 -0.000519 0.856841 0.717461
-0.010569 0.043946 -0.081809 -0.345408 0.938444 -0.000977 0.824354 0.717492
0.054362 0.000042 0.050153 0.999847 0.000000 0.017457 0.886232 0.761025
0.051238 0.018787 0.050153 0.938322 0.345347 0.016846 0.886092 0.752132
0.049889 0.018572 0.107171 0.937925 0.345134 0.033967 0.912694 0.751545
0.052977 0.000042 0.107171 0.999359 0.000000 0.035005 0.912970 0.760327
0.054362 0.000042 0.050153 0.999847 0.000000 0.017457 0.886227 0.621609
0.052977 0.000042 0.107171 0.999359 0.000000 0.035005 0.912965 0.622302
0.049889 -0.018488 0.107171 0.937925 -0.345134 0.033967 0.912691 0.631084
0.051238 -0.018702 0.050153 0.938322 -0.345347 0.016846 0.886089 0.630503
0.040624 -0.033929 0.107171 0.707175 -0.706381 0.029664 0.912541 0.639467
0.041866 -0.034322 0.050153 0.707297 -0.706748 0.014344 0.886017 0.639006
0.051893 -0.018774 -0.012472 0.938414 -0.345408 0.006836 0.856808 0.630221
0.055029 0.000042 -0.012472 0.999969 0.000000 0.007172 0.856861 0.621283
0.052151 -0.018774 -0.081809 0.938414 -0.345470 0.002655 0.824324 0.630118
0.055287 0.000042 -0.081809 0.999969 0.000000 0.002838 0.824340 0.621172
0.042485 -0.034453 -0.012472 0.707236 -0.706931 0.005524 0.856783 0.638778
0.055029 0.000042 -0.012472 0.999969 0.000000 0.007172 0.856865 0.761357
0.051893 0.018858 -0.012472 0.938414 0.345408 0.006836 0.856810 0.752419
0.055287 0.000042 -0.081809 0.999969 0.000000 0.002838 0.824343 0.761473
0.052151 0.018858 -0.081809 0.938414 0.345470 0.002655 0.824326 0.752527
0.007501 -0.046819 0.050153 0.000366 -0.999969 0.006134 0.886049 0.656356
0.026245 -0.043695 0.050153 0.345866 -0.938200 0.010132 0.886012 0.647499
0.025182 -0.043194 0.107171 0.345988 -0.937956 0.022065 0.912519 0.647833
0.006652 -0.046282 0.107171 0.000519 -0.999878 0.014924 0.912576 0.656556
-0.011877 -0.043194 0.107171 -0.344981 -0.938566 0.008148 0.912683 0.665290
-0.011243 -0.043695 0.050153 -0.345134 -0.938536 0.002289 0.886114 0.665220
-0.010826 -0.043861 -0.012472 -0.345286 -0.938475 -0.000519 0.856844 0.665178
0.007990 -0.046997 -0.012472 0.000214 -0.999969 0.001404 0.856810 0.656252
0.026806 -0.043861 -0.012472 0.345714 -0.938322 0.003418 0.856787 0.647331
0.054063 0.000042 -0.440870 0.986267 0.000000 -0.165136 0.789963 0.513431
0.051014 0.018248 -0.440695 0.922910 0.345531 -0.169683 0.797632 0.518549
0.052408 0.018858 -0.413578 0.937864 0.345866 -0.027863 0.792615 0.530372
0.055544 0.000042 -0.413578 0.999603 0.000000 -0.027223 0.783298 0.526784
0.052408 0.018858 -0.371245 0.938414 0.345500 0.000000 0.787117 0.551494
0.055544 0.000042 -0.371245 0.999969 0.000000 0.000000 0.777125 0.548845
0.041889 0.033427 -0.440520 0.696219 0.696219 -0.174780 0.804395 0.521984
0.043000 0.034538 -0.413578 0.706809 0.706809 -0.028718 0.800972 0.533024
0.043000 0.034538 -0.371245 0.707083 0.707083 0.000000 0.796663 0.553578
0.054063 0.000042 -0.440870 0.986267 0.000000 -0.165136 0.883405 0.550956
0.055544 0.000042 -0.413578 0.999603 0.000000 -0.027223 0.897410 0.545800
0.052408 -0.018774 -0.413578 0.937864 -0.345866 -0.027863 0.899953 0.555456
0.051014 -0.018164 -0.440695 0.922910 -0.345531 -0.169683 0.887649 0.559141
0.043000 -0.034453 -0.413578 0.706809 -0.706809 -0.028718 0.901669 0.564053
0.041889 -0.033343 -0.440520 0.696219 -0.696219 -0.174780 0.890320 0.566241
0.055544 0.000042 -0.371245 0.999969 0.000000 0.000000 0.920017 0.542090
0.052408 -0.018774 -0.371245 0.938414 -0.345500 0.000000 0.921552 0.552312
0.043000 -0.034453 -0.371245 0.707083 -0.707083 0.000000 0.922574 0.562030
0.046833 -0.016334 -0.456002 0.802454 -0.314097 -0.507309 0.881232 0.562228
0.049620 0.000042 -0.456702 0.857356 0.000000 -0.514695 0.876108 0.556088
0.038557 -0.015115 -0.463853 0.501511 -0.252846 -0.827357 0.877678 0.565809
0.040778 0.000042 -0.465128 0.527512 0.000000 -0.849513 0.871726 0.561038
0.038557 -0.030011 -0.455302 0.612842 -0.612842 -0.498825 0.884480 0.567963
0.034056 -0.025510 -0.461269 0.446486 -0.446486 -0.775414 0.881216 0.569189
0.049620 0.000042 -0.456702 0.857356 0.000000 -0.514695 0.795865 0.506742
0.046833 0.016419 -0.456002 0.802454 0.314097 -0.507309 0.801405 0.512510
0.038557 0.030095 -0.455302 0.612842 0.612842 -0.498825 0.806749 0.516369
0.040778 0.000042 -0.465128 0.527512 0.000000 -0.849513 0.801267 0.502930
0.038557 0.015200 -0.463853 0.501511 0.252846 -0.827357 0.805355 0.509371
0.034056 0.025595 -0.461269 0.446486 0.446486 -0.775414 0.808326 0.513259
-0.038561 0.000042 -0.237329 -0.999969 0.000000 -0.000641 0.751406 0.691243
-0.035425 -0.018774 -0.237329 -0.938383 -0.345500 -0.000610 0.751404 0.682292
-0.035502 -0.018774 -0.158964 -0.938383 -0.345531 -0.001373 0.788177 0.682295
-0.038638 0.000042 -0.158964 -0.999969 0.000000 -0.001465 0.788177 0.691246
-0.038561 0.000042 -0.237329 -0.999969 0.000000 -0.000641 0.751399 0.691412
-0.038638 0.000042 -0.158964 -0.999969 0.000000 -0.001465 0.788170 0.691404
-0.035503 0.018858 -0.158964 -0.938383 0.345531 -0.001373 0.788171 0.700355
-0.035425 0.018858 -0.237329 -0.938383 0.345500 -0.000610 0.751398 0.700363
-0.026095 0.034538 -0.158964 -0.707053 0.707144 -0.001038 0.788168 0.708936
-0.026017 0.034538 -0.237329 -0.707053 0.707114 -0.000458 0.751395 0.708943
-0.035400 0.018858 -0.310292 -0.938383 0.345500 -0.000153 0.717160 0.700359
-0.038536 0.000042 -0.310292 -1.000000 0.000000 -0.000153 0.717163 0.691408
-0.035400 0.018858 -0.371245 -0.938414 0.345500 0.000000 0.688560 0.700349
-0.038536 0.000042 -0.371245 -0.999969 0.000000 0.000000 0.688563 0.691399
-0.025992 0.034538 -0.310292 -0.707083 0.707114 -0.000122 0.717158 0.708939
-0.025992 0.034538 -0.371245 -0.707083 0.707083 0.000000 0.688557 0.708929
-0.038536 0.000042 -0.310292 -1.000000 0.000000 -0.000153 0.717170 0.691251
-0.035400 -0.018774 -0.310292 -0.938383 -0.345500 -0.000153 0.717167 0.682300
-0.038536 0.000042 -0.371245 -0.999969 0.000000 0.000000 0.688571 0.691263
-0.035400 -0.018774 -0.371245 -0.938414 -0.345500 0.000000 0.688567 0.682313
0.008478 0.047082 -0.237329 0.000031 0.999969 0.000000 0.751386 0.726474
-0.010338 0.043946 -0.237329 -0.345470 0.938414 -0.000214 0.751391 0.717524
-0.010415 0.043946 -0.158964 -0.345439 0.938414 -0.000488 0.788161 0.717516
0.008401 0.047082 -0.158964 0.000031 1.000000 0.000000 0.788152 0.726465
0.027217 0.043946 -0.158964 0.345561 0.938383 0.000488 0.788144 0.735414
0.027294 0.043946 -0.237329 0.345531 0.938383 0.000214 0.751381 0.735424
0.042897 0.034538 -0.158964 0.707144 0.707053 0.001038 0.788139 0.743992
0.042974 0.034538 -0.237329 0.707114 0.707053 0.000458 0.751376 0.744003
0.027320 0.043946 -0.310292 0.345500 0.938383 0.000031 0.717147 0.735420
0.008504 0.047082 -0.310292 0.000000 1.000000 0.000000 0.717151 0.726470
0.027320 0.043946 -0.371245 0.345500 0.938414 0.000000 0.688548 0.735410
0.008504 0.047082 -0.371245 0.000000 1.000000 0.000000 0.688551 0.726460
0.043000 0.034538 -0.310292 0.707114 0.707083 0.000122 0.717144 0.744000
0.043000 0.034538 -0.371245 0.707083 0.707083 0.000000 0.688545 0.743990
-0.010312 0.043946 -0.310292 -0.345470 0.938414 -0.000031 0.717154 0.717519
-0.010312 0.043946 -0.371245 -0.345500 0.938414 0.000000 0.688554 0.717509
0.055518 0.000042 -0.237329 0.999969 0.000000 0.000641 0.751375 0.761533
0.052382 0.018858 -0.237329 0.938414 0.345470 0.000610 0.751374 0.752583
0.052305 0.018858 -0.158964 0.938414 0.345470 0.001373 0.788139 0.752570
0.055441 0.000042 -0.158964 0.999969 0.000000 0.001465 0.788144 0.761519
0.055518 0.000042 -0.237329 0.999969 0.000000 0.000641 0.751373 0.621123
0.055441 0.000042 -0.158964 0.999969 0.000000 0.001465 0.788141 0.621132
0.052305 -0.018774 -0.158964 0.938414 -0.345470 0.001373 0.788138 0.630081
0.052382 -0.018774 -0.237329 0.938414 -0.345470 0.000610 0.751374 0.630073
0.052408 -0.018774 -0.310292 0.938414 -0.345500 0.000153 0.717142 0.630080
0.055544 0.000042 -0.310292 0.999969 0.000000 0.000153 0.717139 0.621130
0.052408 -0.018774 -0.371245 0.938414 -0.345500 0.000000 0.688543 0.630092
0.055544 0.000042 -0.371245 0.999969 0.000000 0.000000 0.688539 0.621142
0.055544 0.000042 -0.310292 0.999969 0.000000 0.000153 0.717139 0.761530
0.052408 0.018858 -0.310292 0.938414 0.345500 0.000153 0.717141 0.752579
0.055544 0.000042 -0.371245 0.999969 0.000000 0.000000 0.688539 0.761521
0.052408 0.018858 -0.371245 0.938414 0.345500 0.000000 0.688542 0.752570
0.008504 0.000042 -0.471905 0.000000 0.000000 -1.000000 0.865596 0.578667
0.008504 -0.017554 -0.470204 0.000000 -0.221442 -0.975158 0.874760 0.579172
-0.007873 -0.016334 -0.468604 -0.226142 -0.226142 -0.947478 0.874711 0.586481
-0.009092 0.000042 -0.470204 -0.221442 0.000000 -0.975158 0.866646 0.588736
-0.021549 -0.015115 -0.463853 -0.501511 -0.252846 -0.827357 0.876190 0.592776
-0.023770 0.000042 -0.465128 -0.527512 0.000000 -0.849513 0.869749 0.596863
0.008504 -0.032232 -0.465128 0.000000 -0.527512 -0.849513 0.881050 0.579520
-0.006653 -0.030011 -0.463853 -0.252846 -0.501511 -0.827357 0.880581 0.585260
-0.017048 -0.025510 -0.461269 -0.446486 -0.446486 -0.775414 0.880079 0.589805
0.008504 0.000042 -0.471905 0.000000 0.000000 -1.000000 0.819464 0.498774
-0.009092 0.000042 -0.470204 -0.221442 0.000000 -0.975158 0.829359 0.500926
-0.007873 0.016419 -0.468604 -0.226142 0.226142 -0.947478 0.826229 0.508695
0.008504 0.017639 -0.470204 0.000000 0.221442 -0.975158 0.818959 0.507939
-0.006653 0.030095 -0.463853 -0.252846 0.501511 -0.827357 0.824370 0.514396
0.008504 0.032317 -0.465128 0.000000 0.527512 -0.849513 0.818613 0.514230
-0.023770 0.000042 -0.465128 -0.527512 0.000000 -0.849513 0.837096 0.504905
-0.021549 0.015200 -0.463853 -0.501511 0.252846 -0.827357 0.832324 0.510858
-0.017048 0.025595 -0.461269 -0.446486 0.446486 -0.775414 0.828943 0.514396
0.024881 0.016419 -0.468604 0.226142 0.226142 -0.947478 0.811651 0.507891
0.026100 0.000042 -0.470204 0.221442 0.000000 -0.975158 0.809394 0.499826
0.023661 0.030095 -0.463853 0.252846 0.501511 -0.827357 0.812871 0.513762
0.026100 0.000042 -0.470204 0.221442 0.000000 -0.975158 0.867748 0.568774
0.024881 -0.016334 -0.468604 0.226142 -0.226142 -0.947478 0.875516 0.571904
0.023661 -0.030011 -0.463853 0.252846 -0.501511 -0.827357 0.881216 0.573762
0.008504 -0.045516 -0.440870 0.000000 -0.986267 -0.165136 0.891359 0.580088
0.026710 -0.042468 -0.440695 0.345531 -0.922910 -0.169683 0.891346 0.573106
0.027320 -0.043861 -0.413578 0.345866 -0.937864 -0.027863 0.902510 0.572274
0.008504 -0.046997 -0.413578 0.000000 -0.999603 -0.027223 0.902497 0.580703
0.027320 -0.043861 -0.371245 0.345500 -0.938414 0.000000 0.923229 0.571662
0.008504 -0.046997 -0.371245 0.000000 -1.000000 0.000000 0.923229 0.581846
-0.010312 -0.043861 -0.413578 -0.345866 -0.937864 -0.027863 0.901583 0.589081
-0.009702 -0.042468 -0.440695 -0.345531 -0.922910 -0.169683 0.890579 0.587027
-0.025992 -0.034453 -0.413578 -0.706809 -0.706809 -0.028718 0.899843 0.597160
-0.024881 -0.033343 -0.440520 -0.696219 -0.696219 -0.174780 0.888803 0.593737
-0.010312 -0.043861 -0.371245 -0.345500 -0.938414 0.000000 0.922108 0.591969
-0.025992 -0.034453 -0.371245 -0.707083 -0.707083 0.000000 0.920398 0.601470
-0.007873 -0.038286 -0.456002 -0.314097 -0.802454 -0.507309 0.884810 0.585623
0.008504 -0.041074 -0.456702 0.000000 -0.857356 -0.514695 0.885431 0.579761
-0.021549 -0.030011 -0.455302 -0.612842 -0.612842 -0.498825 0.883188 0.591383
0.024881 -0.038286 -0.456002 0.314097 -0.802454 -0.507309 0.885459 0.573867
-0.037055 0.000042 -0.440870 -0.986267 0.000000 -0.165136 0.880249 0.608169
-0.034006 -0.018164 -0.440695 -0.922910 -0.345531 -0.169683 0.885368 0.600500
-0.035400 -0.018774 -0.413578 -0.937864 -0.345866 -0.027863 0.897191 0.605517
-0.038536 0.000042 -0.413578 -0.999603 0.000000 -0.027223 0.893602 0.614834
-0.035400 -0.018774 -0.371245 -0.938414 -0.345500 0.000000 0.918313 0.611017
-0.038536 0.000042 -0.371245 -0.999969 0.000000 0.000000 0.915664 0.621008
-0.037055 0.000042 -0.440870 -0.986267 0.000000 -0.165136 0.847177 0.516587
-0.038536 0.000042 -0.413578 -0.999603 0.000000 -0.027223 0.852332 0.530592
-0.035400 0.018858 -0.413578 -0.937864 0.345866 -0.027863 0.842677 0.533134
-0.034006 0.018248 -0.440695 -0.922910 0.345531 -0.169683 0.838992 0.520830
-0.025992 0.034538 -0.413578 -0.706809 0.706809 -0.028718 0.834079 0.534850
-0.024881 0.033427 -0.440520 -0.696219 0.696219 -0.174780 0.831892 0.523500
-0.038536 0.000042 -0.371245 -0.999969 0.000000 0.000000 0.856040 0.553198
-0.035400 0.018858 -0.371245 -0.938414 0.345500 0.000000 0.845818 0.554732
-0.025992 0.034538 -0.371245 -0.707083 0.707083 0.000000 0.836101 0.555753
-0.029825 0.016419 -0.456002 -0.802454 0.314097 -0.507309 0.835905 0.514412
-0.032612 0.000042 -0.456702 -0.857356 0.000000 -0.514695 0.842046 0.509289
-0.021549 0.030095 -0.455302 -0.612842 0.612842 -0.498825 0.830169 0.517660
-0.032612 0.000042 -0.456702 -0.857356 0.000000 -0.514695 0.873561 0.602265
-0.029825 -0.016334 -0.456002 -0.802454 -0.314097 -0.507309 0.879328 0.596726
0.008504 0.045601 -0.440870 0.000000 0.986267 -0.165136 0.818044 0.524539
-0.009702 0.042552 -0.440695 -0.345531 0.922910 -0.169683 0.825026 0.524527
-0.010312 0.043946 -0.413578 -0.345866 0.937864 -0.027863 0.825858 0.535691
0.008504 0.047082 -0.413578 0.000000 0.999603 -0.027223 0.817429 0.535678
-0.010312 0.043946 -0.371245 -0.345500 0.938414 0.000000 0.826470 0.556409
0.008504 0.047082 -0.371245 0.000000 1.000000 0.000000 0.816286 0.556409
0.027320 0.043946 -0.413578 0.345866 0.937864 -0.027863 0.809051 0.534764
0.026710 0.042552 -0.440695 0.345531 0.922910 -0.169683 0.811105 0.523759
0.027320 0.043946 -0.371245 0.345500 0.938414 0.000000 0.806164 0.555288
0.024881 0.038371 -0.456002 0.314097 0.802454 -0.507309 0.812509 0.517990
0.008504 0.041158 -0.456702 0.000000 0.857356 -0.514695 0.818371 0.518611
-0.007873 0.038371 -0.456002 -0.314097 0.802454 -0.507309 0.824266 0.518639
4 0 1 2 3
4 3 2 4 5
4 1 6 7 2
4 2 7 8 4
4 9 10 11 12
4 12 11 13 14
4 10 15 16 11
4 11 16 17 13
4 9 12 18 19
4 19 18 20 21
4 12 14 22 18
4 18 22 23 20
4 0 24 25 1
4 1 25 26 6
4 24 27 28 25
4 25 28 29 26
4 30 31 32 33
4 33 32 34 35
4 31 14 13 32
4 32 13 17 34
4 30 33 36 37
4 37 36 38 39
4 33 35 40 36
4 36 40 41 38
4 30 37 42 43
4 43 42 44 45
4 37 39 46 42
4 42 46 47 44
4 30 43 48 31
4 31 48 22 14
4 43 45 49 48
4 48 49 23 22
4 50 51 52 53
4 53 52 54 55
4 51 39 38 52
4 52 38 41 54
4 56 57 58 59
4 59 58 60 61
4 57 62 63 58
4 58 63 64 60
4 56 59 65 66
4 66 65 67 68
4 59 61 69 65
4 65 69 70 67
4 50 71 72 51
4 51 72 46 39
4 71 73 74 72
4 72 74 47 46
4 75 76 77 78
4 78 77 79 80
4 76 61 60 77
4 77 60 64 79
4 75 78 81 82
4 82 81 7 6
4 78 80 83 81
4 81 83 8 7
4 75 82 84 85
4 85 84 86 87
4 82 6 26 84
4 84 26 29 86
4 75 85 88 76
4 76 88 69 61
4 85 87 89 88
4 88 89 70 69
4 90 91 92 93
4 93 92 74 73
4 91 94 95 92
4 92 95 47 74
4 96 97 98 99
4 99 98 100 101
4 97 68 67 98
4 98 67 70 100
4 102 103 104 105
4 105 104 106 107
4 103 108 109 104
4 104 109 110 106
4 111 112 113 114
4 114 113 115 116
4 112 117 118 113
4 113 118 119 115
4 120 121 122 123
4 123 122 63 62
4 121 80 79 122
4 122 79 64 63
4 124 125 126 127
4 127 126 40 35
4 125 55 54 126
4 126 54 41 40
4 124 127 128 129
4 129 128 16 15
4 127 35 34 128
4 128 34 17 16
4 120 130 131 121
4 121 131 83 80
4 130 5 4 131
4 131 4 8 83
4 132 133 134 135
4 135 134 136 137
4 133 138 139 134
4 134 139 140 136
4 141 142 143 144
4 144 143 145 146
4 142 147 148 143
4 143 148 149 145
4 141 144 150 151
4 151 150 152 153
4 144 146 154 150
4 150 154 155 152
4 132 156 157 133
4 133 157 158 138
4 156 159 160 157
4 157 160 161 158
4 162 163 164 165
4 165 164 28 27
4 163 166 167 164
4 164 167 29 28
4 168 169 170 171
4 171 170 172 173
4 169 21 20 170
4 170 20 23 172
4 174 175 176 177
4 177 176 148 147
4 175 178 179 176
4 176 179 149 148
4 180 181 182 183
4 183 182 184 185
4 181 137 136 182
4 182 136 140 184
4 186 187 188 189
4 189 188 49 45
4 187 173 172 188
4 188 172 23 49
4 186 189 190 191
4 191 190 95 94
4 189 45 44 190
4 190 44 47 95
4 192 193 194 195
4 195 194 196 197
4 193 116 115 194
4 194 115 119 196
4 192 195 198 199
4 199 198 179 178
4 195 197 200 198
4 198 200 149 179
4 201 202 203 204
4 204 203 89 87
4 202 101 100 203
4 203 100 70 89
4 201 204 205 206
4 206 205 167 166
4 204 87 86 205
4 205 86 29 167
4 207 208 209 210
4 210 209 211 212
4 208 185 184 209
4 209 184 140 211
4 207 210 213 214
4 214 213 109 108
4 210 212 215 213
4 213 215 110 109
4 216 217 218 219
4 219 218 220 221
4 217 222 223 218
4 218 223 224 220
4 216 219 225 226
4 226 225 227 228
4 219 221 229 225
4 225 229 161 227
4 216 226 230 231
4 231 230 232 233
4 226 228 234 230
4 230 234 235 232
4 216 231 236 217
4 217 236 237 222
4 231 233 238 236
4 236 238 239 237
4 240 241 242 243
4 243 242 200 197
4 241 146 145 242
4 242 145 149 200
4 240 243 244 245
4 245 244 246 247
4 243 197 196 244
4 244 196 119 246
4 240 245 248 249
4 249 248 250 251
4 245 247 252 248
4 248 252 253 250
4 240 249 254 241
4 241 254 154 146
4 249 251 255 254
4 254 255 155 154
4 256 257 258 259
4 259 258 118 117
4 257 247 246 258
4 258 246 119 118
4 260 261 262 263
4 263 262 264 265
4 261 107 106 262
4 262 106 110 264
4 260 263 266 267
4 267 266 268 269
4 263 265 270 266
4 266 270 224 268
4 256 271 272 257
4 257 272 252 247
4 271 273 274 272
4 272 274 253 252
4 275 276 277 278
4 278 277 215 212
4 276 265 264 277
4 277 264 110 215
4 275 278 279 280
4 280 279 139 138
4 278 212 211 279
4 279 211 140 139
4 275 280 281 282
4 282 281 229 221
4 280 138 158 281
4 281 158 161 229
4 275 282 283 276
4 276 283 270 265
4 282 221 220 283
4 283 220 224 270
4 284 285 286 287
4 287 286 288 289
4 285 290 291 286
4 286 291 292 288
4 293 294 295 296
4 296 295 297 298
4 294 299 300 295
4 295 300 301 297
4 293 296 302 303
4 303 302 304 305
4 296 298 306 302
4 302 306 307 304
4 284 308 309 285
4 285 309 310 290
4 308 311 312 309
4 309 312 313 310
4 314 315 316 317
4 317 316 160 159
4 315 228 227 316
4 316 227 161 160
4 318 319 320 321
4 321 320 322 323
4 319 153 152 320
4 320 152 155 322
4 318 321 324 325
4 325 324 326 327
4 321 323 328 324
4 324 328 329 326
4 314 330 331 315
4 315 331 234 228
4 330 332 333 331
4 331 333 235 234
4 334 335 336 337
4 337 336 255 251
4 335 323 322 336
4 336 322 155 255
4 334 337 338 339
4 339 338 340 341
4 337 251 250 338
4 338 250 253 340
4 334 339 342 343
4 343 342 344 345
4 339 341 346 342
4 342 346 347 344
4 334 343 348 335
4 335 348 328 323
4 343 345 349 348
4 348 349 329 328
4 350 351 352 353
4 353 352 274 273
4 351 341 340 352
4 352 340 253 274
4 354 355 356 357
4 357 356 223 222
4 355 269 268 356
4 356 268 224 223
4 354 357 358 359
4 359 358 360 361
4 357 222 237 358
4 358 237 239 360
4 350 362 363 351
4 351 363 346 341
4 362 364 365 363
4 363 365 347 346
4 366 367 368 369
4 369 368 370 371
4 367 372 373 368
4 368 373 374 370
4 375 376 377 378
4 378 377 379 380
4 376 381 382 377
4 377 382 383 379
4 375 378 384 385
4 385 384 312 311
4 378 380 386 384
4 384 386 313 312
4 366 387 388 367
4 367 388 389 372
4 387 305 304 388
4 388 304 307 389
4 390 391 392 393
4 393 392 394 395
4 391 298 297 392
4 392 297 301 394
4 390 393 396 397
4 397 396 398 399
4 393 395 400 396
4 396 400 401 398
4 390 397 402 403
4 403 402 373 372
4 397 399 404 402
4 402 404 374 373
4 390 403 405 391
4 391 405 306 298
4 403 372 389 405
4 405 389 307 306
4 406 407 408 409
4 409 408 410 411
4 407 399 398 408
4 408 398 401 410
4 412 413 414 415
4 415 414 416 417
4 413 418 419 414
4 414 419 420 416
4 412 415 421 422
4 422 421 382 381
4 415 417 423 421
4 421 423 383 382
4 406 424 425 407
4 407 425 404 399
4 424 371 370 425
4 425 370 374 404
4 426 427 428 429
4 429 428 430 431
4 427 417 416 428
4 428 416 420 430
4 426 429 432 433
4 433 432 291 290
4 429 431 434 432
4 432 434 292 291
4 426 433 435 436
4 436 435 386 380
4 433 290 310 435
4 435 310 313 386
4 426 436 437 427
4 427 437 423 417
4 436 380 379 437
4 437 379 383 423
