ply
format ascii 1.0
comment Created by Blender 2.70 (sub 0) - www.blender.org, source file: 'weird.blend'
element vertex 352
property float x
property float y
property float z
property float nx
property float ny
property float nz
property float s
property float t
element face 88
property list uchar uint vertex_indices
end_header
-0.114562 0.237440 -0.043992 -0.707440 0.213589 0.673727 0.848952 0.659883
-0.157557 0.176614 -0.057267 -0.707440 0.213589 0.673727 0.845594 0.638189
-0.101113 0.144026 -0.000255 -0.707440 0.213589 0.673727 0.874609 0.643954
-0.072619 0.213224 0.020314 -0.707440 0.213589 0.673727 0.877565 0.660720
-0.114562 0.237440 -0.043992 -0.507973 0.648230 0.567240 0.848952 0.659883
-0.072619 0.213224 0.020314 -0.507973 0.648230 0.567240 0.877565 0.660720
-0.040797 0.242434 0.016357 -0.507973 0.648230 0.567240 0.878224 0.669176
-0.058231 0.269154 -0.030717 -0.507973 0.648230 0.567240 0.858387 0.676221
-0.114562 0.237440 -0.043992 -0.355516 0.915205 -0.189757 0.834921 0.676233
-0.058231 0.269154 -0.030717 -0.355516 0.915205 -0.189757 0.824643 0.691887
-0.057109 0.251852 -0.082120 -0.355516 0.915205 -0.189757 0.814113 0.672175
-0.109321 0.234414 -0.102552 -0.355516 0.915205 -0.189757 0.817716 0.660363
-0.114562 0.237440 -0.043992 -0.756846 0.653022 0.027315 0.834921 0.676233
-0.109321 0.234414 -0.102552 -0.756846 0.653022 0.027315 0.817716 0.660363
-0.165340 0.181108 -0.104224 -0.756846 0.653022 0.027315 0.823373 0.647167
-0.157557 0.176614 -0.057267 -0.756846 0.653022 0.027315 0.841796 0.655386
-0.068945 0.039806 0.030015 -0.174104 0.021407 0.984495 0.896948 0.632633
-0.108718 -0.022880 0.025487 -0.174104 0.021407 0.984495 0.900014 0.617807
-0.037087 -0.064237 0.037912 -0.174104 0.021407 0.984495 0.914372 0.622060
-0.000000 -0.000000 0.044216 -0.174104 0.021407 0.984495 0.911586 0.636126
-0.068945 0.039806 0.030015 -0.170893 0.027107 0.984917 0.896948 0.632633
-0.000000 -0.000000 0.044216 -0.170893 0.027107 0.984917 0.911586 0.636126
0.037087 0.064237 0.047741 -0.170893 0.027107 0.984917 0.908803 0.650179
-0.034544 0.105593 0.035316 -0.170893 0.027107 0.984917 0.894035 0.647475
-0.068945 0.039806 0.030015 -0.415129 0.133261 0.899950 0.896948 0.632633
-0.034544 0.105593 0.035316 -0.415129 0.133261 0.899950 0.894035 0.647475
-0.101113 0.144026 -0.000255 -0.415129 0.133261 0.899950 0.874609 0.643954
-0.135335 0.078136 -0.007112 -0.415129 0.133261 0.899950 0.877067 0.626981
-0.068945 0.039806 0.030015 -0.375462 0.193567 0.906399 0.896948 0.632633
-0.135335 0.078136 -0.007112 -0.375462 0.193567 0.906399 0.877067 0.626981
-0.175287 0.015553 -0.008856 -0.375462 0.193567 0.906399 0.881940 0.610781
-0.108718 -0.022880 0.025487 -0.375462 0.193567 0.906399 0.900014 0.617807
-0.183222 -0.065514 -0.116217 -0.256693 -0.152057 -0.954457 0.806305 0.599681
-0.197073 -0.121754 -0.107956 -0.256693 -0.152057 -0.954457 0.804191 0.587595
-0.246665 -0.076468 -0.097410 -0.256693 -0.152057 -0.954457 0.817874 0.590141
-0.257669 -0.022532 -0.107467 -0.256693 -0.152057 -0.954457 0.821593 0.601242
-0.183222 -0.065514 -0.116217 -0.043197 0.070217 -0.996596 0.806305 0.599681
-0.257669 -0.022532 -0.107467 -0.043197 0.070217 -0.996596 0.821593 0.601242
-0.239514 0.052635 -0.105453 -0.043197 0.070217 -0.996596 0.826077 0.616183
-0.160100 0.006785 -0.109630 -0.043197 0.070217 -0.996596 0.808698 0.615422
-0.183222 -0.065514 -0.116217 0.096241 0.077248 -0.992356 0.806305 0.599681
-0.160100 0.006785 -0.109630 0.096241 0.077248 -0.992356 0.808698 0.615422
-0.037087 -0.064237 -0.101945 0.096241 0.077248 -0.992356 0.782292 0.614765
-0.074174 -0.128473 -0.111826 0.096241 0.077248 -0.992356 0.782423 0.598407
-0.183222 -0.065514 -0.116217 -0.037336 -0.110923 -0.993127 0.806305 0.599681
-0.074174 -0.128473 -0.111826 -0.037336 -0.110923 -0.993127 0.782423 0.598407
-0.101989 -0.176650 -0.106858 -0.037336 -0.110923 -0.993127 0.782529 0.585220
-0.197073 -0.121754 -0.107956 -0.037336 -0.110923 -0.993127 0.804191 0.587595
-0.201690 -0.140500 -0.065607 -0.471337 -0.810374 0.348046 0.899671 0.565748
-0.111261 -0.192710 -0.065607 -0.471337 -0.810374 0.348046 0.925280 0.566994
-0.101989 -0.176650 -0.014759 -0.471337 -0.810374 0.348046 0.920721 0.590009
-0.189733 -0.125992 -0.016534 -0.471337 -0.810374 0.348046 0.901691 0.586933
-0.201690 -0.140500 -0.065607 -0.650132 -0.625911 0.430771 0.899671 0.565748
-0.189733 -0.125992 -0.016534 -0.650132 -0.625911 0.430771 0.901691 0.586933
-0.230353 -0.085886 -0.029511 -0.650132 -0.625911 0.430771 0.889784 0.584533
-0.262210 -0.084147 -0.065118 -0.650132 -0.625911 0.430771 0.880105 0.570451
-0.201690 -0.140500 -0.065607 -0.641965 -0.651602 -0.404098 0.808761 0.568104
-0.262210 -0.084147 -0.065118 -0.641965 -0.651602 -0.404098 0.827972 0.578274
-0.246665 -0.076468 -0.097410 -0.641965 -0.651602 -0.404098 0.817874 0.590141
-0.197073 -0.121754 -0.107956 -0.641965 -0.651602 -0.404098 0.804191 0.587595
-0.201690 -0.140500 -0.065607 -0.455219 -0.792619 -0.405623 0.808761 0.568104
-0.197073 -0.121754 -0.107956 -0.455219 -0.792619 -0.405623 0.804191 0.587595
-0.101989 -0.176650 -0.106858 -0.455219 -0.792619 -0.405623 0.782529 0.585220
-0.111261 -0.192710 -0.065607 -0.455219 -0.792619 -0.405623 0.782684 0.565748
-0.153861 -0.082466 0.011901 -0.277222 -0.399956 0.873604 0.901697 0.602361
-0.189733 -0.125992 -0.016534 -0.277222 -0.399956 0.873604 0.901691 0.586933
-0.101989 -0.176650 -0.014759 -0.277222 -0.399956 0.873604 0.920721 0.590009
-0.074174 -0.128473 0.019001 -0.277222 -0.399956 0.873604 0.917415 0.606701
-0.153861 -0.082466 0.011901 -0.197216 -0.124252 0.972454 0.901697 0.602361
-0.074174 -0.128473 0.019001 -0.197216 -0.124252 0.972454 0.917415 0.606701
-0.037087 -0.064237 0.037912 -0.197216 -0.124252 0.972454 0.914372 0.622060
-0.108718 -0.022880 0.025487 -0.197216 -0.124252 0.972454 0.900014 0.617807
-0.153861 -0.082466 0.011901 -0.349867 0.120257 0.929049 0.901697 0.602361
-0.108718 -0.022880 0.025487 -0.349867 0.120257 0.929049 0.900014 0.617807
-0.175287 0.015553 -0.008856 -0.349867 0.120257 0.929049 0.881940 0.610781
-0.220967 -0.043722 -0.014087 -0.349867 0.120257 0.929049 0.886454 0.595067
-0.153861 -0.082466 0.011901 -0.459516 -0.200193 0.865313 0.901697 0.602361
-0.220967 -0.043722 -0.014087 -0.459516 -0.200193 0.865313 0.886454 0.595067
-0.230353 -0.085886 -0.029511 -0.459516 -0.200193 0.865313 0.889784 0.584533
-0.189733 -0.125992 -0.016534 -0.459516 -0.200193 0.865313 0.901691 0.586933
-0.005513 0.174481 0.051216 -0.185223 -0.102386 0.977348 0.892985 0.661779
-0.034544 0.105593 0.035316 -0.185223 -0.102386 0.977348 0.894035 0.647475
0.037087 0.064237 0.047741 -0.185223 -0.102386 0.977348 0.908803 0.650179
0.074174 0.128473 0.058316 -0.185223 -0.102386 0.977348 0.906100 0.663820
-0.005513 0.174481 0.051216 0.059869 0.193603 0.979252 0.892985 0.661779
0.074174 0.128473 0.058316 0.059869 0.193603 0.979252 0.906100 0.663820
0.101989 0.176650 0.044215 0.059869 0.193603 0.979252 0.904127 0.673782
0.014245 0.227309 0.042440 0.059869 0.193603 0.979252 0.889827 0.670551
-0.005513 0.174481 0.051216 -0.282108 0.317865 0.905195 0.892985 0.661779
0.014245 0.227309 0.042440 -0.282108 0.317865 0.905195 0.889827 0.670551
-0.040797 0.242434 0.016357 -0.282108 0.317865 0.905195 0.878224 0.669176
-0.072619 0.213224 0.020314 -0.282108 0.317865 0.905195 0.877565 0.660720
-0.005513 0.174481 0.051216 -0.463605 -0.040638 0.885109 0.892985 0.661779
-0.072619 0.213224 0.020314 -0.463605 -0.040638 0.885109 0.877565 0.660720
-0.101113 0.144026 -0.000255 -0.463605 -0.040638 0.885109 0.874609 0.643954
-0.034544 0.105593 0.035316 -0.463605 -0.040638 0.885109 0.894035 0.647475
0.020832 0.244919 -0.026291 0.194469 0.922030 0.334727 0.873903 0.691536
-0.058231 0.269154 -0.030717 0.194469 0.922030 0.334727 0.858387 0.676221
-0.040797 0.242434 0.016357 0.194469 0.922030 0.334727 0.878224 0.669176
0.014245 0.227309 0.042440 0.194469 0.922030 0.334727 0.889827 0.670551
0.020832 0.244919 -0.026291 0.481224 0.837946 0.257430 0.873903 0.691536
0.014245 0.227309 0.042440 0.481224 0.837946 0.257430 0.889827 0.670551
0.101989 0.176650 0.044215 0.481224 0.837946 0.257430 0.904127 0.673782
0.111261 0.192710 -0.026291 0.481224 0.837946 0.257430 0.898282 0.703290
0.020832 0.244919 -0.026291 0.485008 0.837477 -0.251793 0.806287 0.700970
0.111261 0.192710 -0.026291 0.485008 0.837477 -0.251793 0.781591 0.702440
0.101989 0.176650 -0.097029 0.485008 0.837477 -0.251793 0.781829 0.672762
0.006905 0.231547 -0.098127 0.485008 0.837477 -0.251793 0.800933 0.671409
0.020832 0.244919 -0.026291 0.267940 0.928021 -0.258816 0.806287 0.700970
0.006905 0.231547 -0.098127 0.267940 0.928021 -0.258816 0.800933 0.671409
-0.057109 0.251852 -0.082120 0.267940 0.928021 -0.258816 0.814113 0.672175
-0.058231 0.269154 -0.030717 0.267940 0.928021 -0.258816 0.824643 0.691887
-0.196613 0.113515 -0.061692 -0.542156 0.304402 0.783202 0.849124 0.617832
-0.231731 0.048141 -0.062182 -0.542156 0.304402 0.783202 0.856844 0.599111
-0.175287 0.015553 -0.008856 -0.542156 0.304402 0.783202 0.881940 0.610781
-0.135335 0.078136 -0.007112 -0.542156 0.304402 0.783202 0.877067 0.626981
-0.196613 0.113515 -0.061692 -0.579946 0.262000 0.771374 0.849124 0.617832
-0.135335 0.078136 -0.007112 -0.579946 0.262000 0.771374 0.877067 0.626981
-0.101113 0.144026 -0.000255 -0.579946 0.262000 0.771374 0.874609 0.643954
-0.157557 0.176614 -0.057267 -0.579946 0.262000 0.771374 0.845594 0.638189
-0.196613 0.113515 -0.061692 -0.810857 0.530572 0.246992 0.845541 0.634779
-0.157557 0.176614 -0.057267 -0.810857 0.530572 0.246992 0.841796 0.655386
-0.165340 0.181108 -0.104224 -0.810857 0.530572 0.246992 0.823373 0.647167
-0.208738 0.120515 -0.104782 -0.810857 0.530572 0.246992 0.826455 0.632136
-0.196613 0.113515 -0.061692 -0.867241 0.426615 0.256696 0.845541 0.634779
-0.208738 0.120515 -0.104782 -0.867241 0.426615 0.256696 0.826455 0.632136
-0.239514 0.052635 -0.105453 -0.867241 0.426615 0.256696 0.826077 0.616183
-0.231731 0.048141 -0.062182 -0.867241 0.426615 0.256696 0.845540 0.613740
-0.034874 0.191432 -0.116217 -0.095236 0.048503 -0.994272 0.803408 0.659717
-0.085926 0.135258 -0.109630 -0.095236 0.048503 -0.994272 0.807121 0.645697
-0.165340 0.181108 -0.104224 -0.095236 0.048503 -0.994272 0.823373 0.647167
-0.109321 0.234414 -0.102552 -0.095236 0.048503 -0.994272 0.817716 0.660363
-0.034874 0.191432 -0.116217 0.045268 0.503553 -0.862778 0.803408 0.659717
-0.109321 0.234414 -0.102552 0.045268 0.503553 -0.862778 0.817716 0.660363
-0.057109 0.251852 -0.082120 0.045268 0.503553 -0.862778 0.814113 0.672175
0.006905 0.231547 -0.098127 0.045268 0.503553 -0.862778 0.800933 0.671409
-0.034874 0.191432 -0.116217 0.159557 0.231666 -0.959621 0.803408 0.659717
0.006905 0.231547 -0.098127 0.159557 0.231666 -0.959621 0.800933 0.671409
0.101989 0.176650 -0.097029 0.159557 0.231666 -0.959621 0.781829 0.672762
0.074174 0.128473 -0.111826 0.159557 0.231666 -0.959621 0.781931 0.660017
-0.034874 0.191432 -0.116217 -0.018779 -0.121971 -0.992356 0.803408 0.659717
0.074174 0.128473 -0.111826 -0.018779 -0.121971 -0.992356 0.781931 0.660017
0.037087 0.064237 -0.101945 -0.018779 -0.121971 -0.992356 0.782053 0.644762
-0.085926 0.135258 -0.109630 -0.018779 -0.121971 -0.992356 0.807121 0.645697
-0.262910 -0.019506 -0.063650 -0.761203 -0.040462 0.647251 0.867349 0.581607
-0.262210 -0.084147 -0.065118 -0.761203 -0.040462 0.647251 0.880105 0.570451
-0.230353 -0.085886 -0.029511 -0.761203 -0.040462 0.647251 0.889784 0.584533
-0.220967 -0.043722 -0.014087 -0.761203 -0.040462 0.647251 0.886454 0.595067
-0.262910 -0.019506 -0.063650 -0.590952 0.318742 0.741067 0.867349 0.581607
-0.220967 -0.043722 -0.014087 -0.590952 0.318742 0.741067 0.886454 0.595067
-0.175287 0.015553 -0.008856 -0.590952 0.318742 0.741067 0.881940 0.610781
-0.231731 0.048141 -0.062182 -0.590952 0.318742 0.741067 0.856844 0.599111
-0.262910 -0.019506 -0.063650 -0.944927 0.325607 0.033067 0.839517 0.593083
-0.231731 0.048141 -0.062182 -0.944927 0.325607 0.033067 0.845540 0.613740
-0.239514 0.052635 -0.105453 -0.944927 0.325607 0.033067 0.826077 0.616183
-0.257669 -0.022532 -0.107467 -0.944927 0.325607 0.033067 0.821593 0.601242
-0.262910 -0.019506 -0.063650 -0.956607 -0.113846 -0.268220 0.839517 0.593083
-0.257669 -0.022532 -0.107467 -0.956607 -0.113846 -0.268220 0.821593 0.601242
-0.246665 -0.076468 -0.097410 -0.956607 -0.113846 -0.268220 0.817874 0.590141
-0.262210 -0.084147 -0.065118 -0.956607 -0.113846 -0.268220 0.827972 0.578274
-0.127668 0.073709 -0.107435 -0.023810 0.032414 -0.999191 0.809036 0.630830
-0.160100 0.006785 -0.109630 -0.023810 0.032414 -0.999191 0.808698 0.615422
-0.239514 0.052635 -0.105453 -0.023810 0.032414 -0.999191 0.826077 0.616183
-0.208738 0.120515 -0.104782 -0.023810 0.032414 -0.999191 0.826455 0.632136
-0.127668 0.073709 -0.107435 -0.041287 0.015379 -0.999029 0.809036 0.630830
-0.208738 0.120515 -0.104782 -0.041287 0.015379 -0.999029 0.826455 0.632136
-0.165340 0.181108 -0.104224 -0.041287 0.015379 -0.999029 0.823373 0.647167
-0.085926 0.135258 -0.109630 -0.041287 0.015379 -0.999029 0.807121 0.645697
-0.127668 0.073709 -0.107435 0.029666 -0.062128 -0.997627 0.809036 0.630830
-0.085926 0.135258 -0.109630 0.029666 -0.062128 -0.997627 0.807121 0.645697
0.037087 0.064237 -0.101945 0.029666 -0.062128 -0.997627 0.782053 0.644762
-0.000000 -0.000000 -0.098652 0.029666 -0.062128 -0.997627 0.782171 0.629920
-0.127668 0.073709 -0.107435 0.068637 0.005372 -0.997627 0.809036 0.630830
-0.000000 -0.000000 -0.098652 0.068637 0.005372 -0.997627 0.782171 0.629920
-0.037087 -0.064237 -0.101945 0.068637 0.005372 -0.997627 0.782292 0.614765
-0.160100 0.006785 -0.109630 0.068637 0.005372 -0.997627 0.808698 0.615422
0.262910 0.019506 -0.043992 0.538693 -0.505867 0.673727 0.960435 0.681966
0.220967 0.043722 0.020314 0.538693 -0.505867 0.673727 0.933663 0.671832
0.175287 -0.015553 -0.000255 0.538693 -0.505867 0.673727 0.942787 0.657459
0.231731 -0.048141 -0.057267 0.538693 -0.505867 0.673727 0.971810 0.663190
0.262910 0.019506 -0.043992 0.943957 -0.328937 0.027315 0.728688 0.675384
0.231731 -0.048141 -0.057267 0.943957 -0.328937 0.027315 0.722147 0.654429
0.239514 -0.052635 -0.104224 0.943957 -0.328937 0.027315 0.740699 0.646506
0.257668 0.022532 -0.102552 0.943957 -0.328937 0.027315 0.746145 0.659791
0.262910 0.019506 -0.043992 0.970349 0.149716 -0.189757 0.728688 0.675384
0.257668 0.022532 -0.102552 0.970349 0.149716 -0.189757 0.746145 0.659791
0.246665 0.076468 -0.082120 0.970349 0.149716 -0.189757 0.749558 0.671659
0.262210 0.084147 -0.030717 0.970349 0.149716 -0.189757 0.738714 0.691200
0.262910 0.019506 -0.043992 0.815370 -0.115803 0.567240 0.960435 0.681966
0.262210 0.084147 -0.030717 0.815370 -0.115803 0.567240 0.945483 0.693474
0.230353 0.085886 0.016357 0.815370 -0.115803 0.567240 0.929830 0.679399
0.220967 0.043722 0.020314 0.815370 -0.115803 0.567240 0.933663 0.671832
0.068945 -0.039806 0.030015 0.105591 -0.140075 0.984495 0.926451 0.638477
-0.000000 -0.000000 0.044216 0.105591 -0.140075 0.984495 0.911586 0.636126
-0.037087 -0.064237 0.037912 0.105591 -0.140075 0.984495 0.914372 0.622060
0.034544 -0.105593 0.025487 0.105591 -0.140075 0.984495 0.929268 0.623602
0.068945 -0.039806 0.030015 0.355365 -0.228377 0.906399 0.926451 0.638477
0.034544 -0.105593 0.025487 0.355365 -0.228377 0.906399 0.929268 0.623602
0.101113 -0.144026 -0.008856 0.355365 -0.228377 0.906399 0.948656 0.623996
0.135335 -0.078136 -0.007112 0.355365 -0.228377 0.906399 0.946985 0.640831
0.068945 -0.039806 0.030015 0.322972 -0.292882 0.899950 0.926451 0.638477
0.135335 -0.078136 -0.007112 0.322972 -0.292882 0.899950 0.946985 0.640831
0.175287 -0.015553 -0.000255 0.322972 -0.292882 0.899950 0.942787 0.657459
0.108718 0.022880 0.035316 0.322972 -0.292882 0.899950 0.923486 0.653309
0.068945 -0.039806 0.030015 0.108922 -0.134444 0.984917 0.926451 0.638477
0.108718 0.022880 0.035316 0.108922 -0.134444 0.984917 0.923486 0.653309
0.037087 0.064237 0.047741 0.108922 -0.134444 0.984917 0.908803 0.650179
-0.000000 -0.000000 0.044216 0.108922 -0.134444 0.984917 0.911586 0.636126
0.034874 -0.191432 -0.116217 -0.003339 -0.298331 -0.954457 0.758524 0.599299
0.109321 -0.234414 -0.107467 -0.003339 -0.298331 -0.954457 0.743213 0.600615
0.057109 -0.251852 -0.097410 -0.003339 -0.298331 -0.954457 0.747109 0.589575
-0.006905 -0.231547 -0.107956 -0.003339 -0.298331 -0.954457 0.760831 0.587248
0.034874 -0.191432 -0.116217 -0.077394 -0.087795 -0.993128 0.758524 0.599299
-0.006905 -0.231547 -0.107956 -0.077394 -0.087795 -0.993128 0.760831 0.587248
-0.101989 -0.176650 -0.106858 -0.077394 -0.087795 -0.993128 0.782529 0.585220
-0.074174 -0.128473 -0.111826 -0.077394 -0.087795 -0.993128 0.782423 0.598407
0.034874 -0.191432 -0.116217 0.018779 0.121971 -0.992356 0.758524 0.599299
-0.074174 -0.128473 -0.111826 0.018779 0.121971 -0.992356 0.782423 0.598407
-0.037087 -0.064237 -0.101945 0.018779 0.121971 -0.992356 0.782292 0.614765
0.085926 -0.135258 -0.109630 0.018779 0.121971 -0.992356 0.755880 0.615000
0.034874 -0.191432 -0.116217 0.082408 -0.002301 -0.996596 0.758524 0.599299
0.085926 -0.135258 -0.109630 0.082408 -0.002301 -0.996596 0.755880 0.615000
0.165340 -0.181108 -0.105453 0.082408 -0.002301 -0.996596 0.738491 0.615483
0.109321 -0.234414 -0.107467 0.082408 -0.002301 -0.996596 0.743213 0.600615
-0.020832 -0.244919 -0.065607 -0.466136 -0.813377 0.348046 0.949430 0.575604
-0.014245 -0.227309 -0.016534 -0.466136 -0.813377 0.348046 0.939487 0.594420
-0.101989 -0.176650 -0.014759 -0.466136 -0.813377 0.348046 0.920721 0.590009
-0.111261 -0.192710 -0.065607 -0.466136 -0.813377 0.348046 0.925280 0.566994
-0.020832 -0.244919 -0.065607 -0.458820 -0.790541 -0.405623 0.756574 0.567687
-0.111261 -0.192710 -0.065607 -0.458820 -0.790541 -0.405623 0.782684 0.565748
-0.101989 -0.176650 -0.106858 -0.458820 -0.790541 -0.405623 0.782529 0.585220
-0.006905 -0.231547 -0.107956 -0.458820 -0.790541 -0.405623 0.760831 0.587248
-0.020832 -0.244919 -0.065607 -0.243322 -0.881759 -0.404097 0.756574 0.567687
-0.006905 -0.231547 -0.107956 -0.243322 -0.881759 -0.404097 0.760831 0.587248
0.057109 -0.251852 -0.097410 -0.243322 -0.881759 -0.404097 0.747109 0.589575
0.058231 -0.269154 -0.065118 -0.243322 -0.881759 -0.404097 0.737203 0.577548
-0.020832 -0.244919 -0.065607 -0.216989 -0.875986 0.430771 0.949430 0.575604
0.058231 -0.269154 -0.065118 -0.216989 -0.875986 0.430771 0.965727 0.587411
0.040797 -0.242435 -0.029511 -0.216989 -0.875986 0.430771 0.951410 0.596741
-0.014245 -0.227309 -0.016534 -0.216989 -0.875986 0.430771 0.939487 0.594420
0.005513 -0.174481 0.011901 -0.207761 -0.440059 0.873604 0.933600 0.608681
-0.074174 -0.128473 0.019001 -0.207761 -0.440059 0.873604 0.917415 0.606701
-0.101989 -0.176650 -0.014759 -0.207761 -0.440059 0.873604 0.920721 0.590009
-0.014245 -0.227309 -0.016534 -0.207761 -0.440059 0.873604 0.939487 0.594420
0.005513 -0.174481 0.011901 0.056386 -0.498049 0.865313 0.933600 0.608681
-0.014245 -0.227309 -0.016534 0.056386 -0.498049 0.865313 0.939487 0.594420
0.040797 -0.242435 -0.029511 0.056386 -0.498049 0.865313 0.951410 0.596741
0.072619 -0.213224 -0.014087 0.056386 -0.498049 0.865313 0.950473 0.607748
0.005513 -0.174481 0.011901 0.279079 -0.242866 0.929049 0.933600 0.608681
0.072619 -0.213224 -0.014087 0.279079 -0.242866 0.929049 0.950473 0.607748
0.101113 -0.144026 -0.008856 0.279079 -0.242866 0.929049 0.948656 0.623996
0.034544 -0.105593 0.025487 0.279079 -0.242866 0.929049 0.929268 0.623602
0.005513 -0.174481 0.011901 -0.008997 -0.232920 0.972454 0.933600 0.608681
0.034544 -0.105593 0.025487 -0.008997 -0.232920 0.972454 0.929268 0.623602
-0.037087 -0.064237 0.037912 -0.008997 -0.232920 0.972454 0.914372 0.622060
-0.074174 -0.128473 0.019001 -0.008997 -0.232920 0.972454 0.917415 0.606701
0.153861 0.082465 0.051216 0.003943 -0.211601 0.977348 0.919004 0.666933
0.074174 0.128473 0.058316 0.003943 -0.211601 0.977348 0.906100 0.663820
0.037087 0.064237 0.047741 0.003943 -0.211601 0.977348 0.908803 0.650179
0.108718 0.022880 0.035316 0.003943 -0.211601 0.977348 0.923486 0.653309
0.153861 0.082465 0.051216 0.196608 -0.421813 0.885109 0.919004 0.666933
0.108718 0.022880 0.035316 0.196608 -0.421813 0.885109 0.923486 0.653309
0.175287 -0.015553 -0.000255 0.196608 -0.421813 0.885109 0.942787 0.657459
0.220967 0.043722 0.020314 0.196608 -0.421813 0.885109 0.933663 0.671832
0.153861 0.082465 0.051216 0.416333 -0.085380 0.905195 0.919004 0.666933
0.220967 0.043722 0.020314 0.416333 -0.085380 0.905195 0.933663 0.671832
0.230353 0.085886 0.016357 0.416333 -0.085380 0.905195 0.929830 0.679399
0.189733 0.125991 0.042440 0.416333 -0.085380 0.905195 0.918579 0.676246
0.153861 0.082465 0.051216 0.137730 0.148650 0.979252 0.919004 0.666933
0.189733 0.125991 0.042440 0.137730 0.148650 0.979252 0.918579 0.676246
0.101989 0.176650 0.044215 0.137730 0.148650 0.979252 0.904127 0.673782
0.074174 0.128473 0.058316 0.137730 0.148650 0.979252 0.906100 0.663820
0.201690 0.140500 -0.026291 0.701267 0.629430 0.334727 0.925301 0.701717
0.189733 0.125991 0.042440 0.701267 0.629430 0.334727 0.918579 0.676246
0.230353 0.085886 0.016357 0.701267 0.629430 0.334727 0.929830 0.679399
0.262210 0.084147 -0.030717 0.701267 0.629430 0.334727 0.945483 0.693474
0.201690 0.140500 -0.026291 0.669719 0.696053 -0.258817 0.756923 0.700575
0.262210 0.084147 -0.030717 0.669719 0.696053 -0.258817 0.738714 0.691200
0.246665 0.076468 -0.082120 0.669719 0.696053 -0.258817 0.749558 0.671659
0.197073 0.121754 -0.098127 0.669719 0.696053 -0.258817 0.762749 0.671104
0.201690 0.140500 -0.026291 0.482773 0.838767 -0.251793 0.756923 0.700575
0.197073 0.121754 -0.098127 0.482773 0.838767 -0.251793 0.762749 0.671104
0.101989 0.176650 -0.097029 0.482773 0.838767 -0.251793 0.781829 0.672762
0.111261 0.192710 -0.026291 0.482773 0.838767 -0.251793 0.781591 0.702440
0.201690 0.140500 -0.026291 0.485071 0.835725 0.257430 0.925301 0.701717
0.111261 0.192710 -0.026291 0.485071 0.835725 0.257430 0.898282 0.703290
0.101989 0.176650 0.044215 0.485071 0.835725 0.257430 0.904127 0.673782
0.189733 0.125991 0.042440 0.485071 0.835725 0.257430 0.918579 0.676246
0.196613 -0.113515 -0.061692 0.534698 -0.317320 0.783203 0.976305 0.643025
0.135335 -0.078136 -0.007112 0.534698 -0.317320 0.783203 0.946985 0.640831
0.101113 -0.144026 -0.008856 0.534698 -0.317320 0.783203 0.948656 0.623996
0.157557 -0.176614 -0.062182 0.534698 -0.317320 0.783203 0.976305 0.622774
0.196613 -0.113515 -0.061692 0.803080 -0.537746 0.256696 0.718732 0.633766
0.157557 -0.176614 -0.062182 0.803080 -0.537746 0.256696 0.719069 0.612729
0.165340 -0.181108 -0.105453 0.803080 -0.537746 0.256696 0.738491 0.615483
0.208738 -0.120515 -0.104782 0.803080 -0.537746 0.256696 0.737857 0.631428
0.196613 -0.113515 -0.061692 0.864917 -0.436937 0.246992 0.718732 0.633766
0.208738 -0.120515 -0.104782 0.864917 -0.436937 0.246992 0.737857 0.631428
0.239514 -0.052635 -0.104224 0.864917 -0.436937 0.246992 0.740699 0.646506
0.231731 -0.048141 -0.057267 0.864917 -0.436937 0.246992 0.722147 0.654429
0.196613 -0.113515 -0.061692 0.516872 -0.371248 0.771374 0.976305 0.643025
0.231731 -0.048141 -0.057267 0.516872 -0.371248 0.771374 0.971810 0.663190
0.175287 -0.015553 -0.000255 0.516872 -0.371248 0.771374 0.942787 0.657459
0.135335 -0.078136 -0.007112 0.516872 -0.371248 0.771374 0.946985 0.640831
0.183222 0.065514 -0.116217 0.089623 -0.058225 -0.994272 0.760461 0.659373
0.257668 0.022532 -0.102552 0.089623 -0.058225 -0.994272 0.746145 0.659791
0.239514 -0.052635 -0.104224 0.089623 -0.058225 -0.994272 0.740699 0.646506
0.160100 -0.006785 -0.109630 0.089623 -0.058225 -0.994272 0.756973 0.645296
0.183222 0.065514 -0.116217 -0.096241 -0.077248 -0.992356 0.760461 0.659373
0.160100 -0.006785 -0.109630 -0.096241 -0.077248 -0.992356 0.756973 0.645296
0.037087 0.064237 -0.101945 -0.096241 -0.077248 -0.992356 0.782053 0.644762
0.074174 0.128473 -0.111826 -0.096241 -0.077248 -0.992356 0.781931 0.660017
0.183222 0.065514 -0.116217 0.120850 0.254014 -0.959621 0.760461 0.659373
0.074174 0.128473 -0.111826 0.120850 0.254014 -0.959621 0.781931 0.660017
0.101989 0.176650 -0.097029 0.120850 0.254014 -0.959621 0.781829 0.672762
0.197073 0.121754 -0.098127 0.120850 0.254014 -0.959621 0.762749 0.671104
0.183222 0.065514 -0.116217 0.413455 0.290979 -0.862778 0.760461 0.659373
0.197073 0.121754 -0.098127 0.413455 0.290979 -0.862778 0.762749 0.671104
0.246665 0.076468 -0.082120 0.413455 0.290979 -0.862778 0.749558 0.671659
0.257668 0.022532 -0.102552 0.413455 0.290979 -0.862778 0.746145 0.659791
0.114562 -0.237440 -0.063650 0.345560 -0.679452 0.647251 0.973267 0.602587
0.072619 -0.213224 -0.014087 0.345560 -0.679452 0.647251 0.950473 0.607748
0.040797 -0.242435 -0.029511 0.345560 -0.679452 0.647251 0.951410 0.596741
0.058231 -0.269154 -0.065118 0.345560 -0.679452 0.647251 0.965727 0.587411
0.114562 -0.237440 -0.063650 0.379709 -0.885369 -0.268220 0.725422 0.592171
0.058231 -0.269154 -0.065118 0.379709 -0.885369 -0.268220 0.737203 0.577548
0.057109 -0.251852 -0.097410 0.379709 -0.885369 -0.268220 0.747109 0.589575
0.109321 -0.234414 -0.107467 0.379709 -0.885369 -0.268220 0.743213 0.600615
0.114562 -0.237440 -0.063650 0.754447 -0.655527 0.033067 0.725422 0.592171
0.109321 -0.234414 -0.107467 0.754447 -0.655527 0.033067 0.743213 0.600615
0.165340 -0.181108 -0.105453 0.754447 -0.655527 0.033067 0.738491 0.615483
0.157557 -0.176614 -0.062182 0.754447 -0.655527 0.033067 0.719069 0.612729
0.114562 -0.237440 -0.063650 0.571514 -0.352409 0.741066 0.973267 0.602587
0.157557 -0.176614 -0.062182 0.571514 -0.352409 0.741066 0.976305 0.622774
0.101113 -0.144026 -0.008856 0.571514 -0.352409 0.741066 0.948656 0.623996
0.072619 -0.213224 -0.014087 0.571514 -0.352409 0.741066 0.950473 0.607748
0.127668 -0.073709 -0.107435 0.039977 -0.004413 -0.999191 0.755295 0.630400
0.208738 -0.120515 -0.104782 0.039977 -0.004413 -0.999191 0.737857 0.631428
0.165340 -0.181108 -0.105453 0.039977 -0.004413 -0.999191 0.738491 0.615483
0.085926 -0.135258 -0.109630 0.039977 -0.004413 -0.999191 0.755880 0.615000
0.127668 -0.073709 -0.107435 -0.029666 0.062128 -0.997627 0.755295 0.630400
0.085926 -0.135258 -0.109630 -0.029666 0.062128 -0.997627 0.755880 0.615000
-0.037087 -0.064237 -0.101945 -0.029666 0.062128 -0.997627 0.782292 0.614765
-0.000000 -0.000000 -0.098652 -0.029666 0.062128 -0.997627 0.782171 0.629920
0.127668 -0.073709 -0.107435 -0.068637 -0.005372 -0.997627 0.755295 0.630400
-0.000000 -0.000000 -0.098652 -0.068637 -0.005372 -0.997627 0.782171 0.629920
0.037087 0.064237 -0.101945 -0.068637 -0.005372 -0.997627 0.782053 0.644762
0.160100 -0.006785 -0.109630 -0.068637 -0.005372 -0.997627 0.756973 0.645296
0.127668 -0.073709 -0.107435 0.033962 -0.028066 -0.999029 0.755295 0.630400
0.160100 -0.006785 -0.109630 0.033962 -0.028066 -0.999029 0.756973 0.645296
0.239514 -0.052635 -0.104224 0.033962 -0.028066 -0.999029 0.740699 0.646506
0.208738 -0.120515 -0.104782 0.033962 -0.028066 -0.999029 0.737857 0.631428
4 0 1 2 3
4 4 5 6 7
4 8 9 10 11
4 12 13 14 15
4 16 17 18 19
4 20 21 22 23
4 24 25 26 27
4 28 29 30 31
4 32 33 34 35
4 36 37 38 39
4 40 41 42 43
4 44 45 46 47
4 48 49 50 51
4 52 53 54 55
4 56 57 58 59
4 60 61 62 63
4 64 65 66 67
4 68 69 70 71
4 72 73 74 75
4 76 77 78 79
4 80 81 82 83
4 84 85 86 87
4 88 89 90 91
4 92 93 94 95
4 96 97 98 99
4 100 101 102 103
4 104 105 106 107
4 108 109 110 111
4 112 113 114 115
4 116 117 118 119
4 120 121 122 123
4 124 125 126 127
4 128 129 130 131
4 132 133 134 135
4 136 137 138 139
4 140 141 142 143
4 144 145 146 147
4 148 149 150 151
4 152 153 154 155
4 156 157 158 159
4 160 161 162 163
4 164 165 166 167
4 168 169 170 171
4 172 173 174 175
4 176 177 178 179
4 180 181 182 183
4 184 185 186 187
4 188 189 190 191
4 192 193 194 195
4 196 197 198 199
4 200 201 202 203
4 204 205 206 207
4 208 209 210 211
4 212 213 214 215
4 216 217 218 219
4 220 221 222 223
4 224 225 226 227
4 228 229 230 231
4 232 233 234 235
4 236 237 238 239
4 240 241 242 243
4 244 245 246 247
4 248 249 250 251
4 252 253 254 255
4 256 257 258 259
4 260 261 262 263
4 264 265 266 267
4 268 269 270 271
4 272 273 274 275
4 276 277 278 279
4 280 281 282 283
4 284 285 286 287
4 288 289 290 291
4 292 293 294 295
4 296 297 298 299
4 300 301 302 303
4 304 305 306 307
4 308 309 310 311
4 312 313 314 315
4 316 317 318 319
4 320 321 322 323
4 324 325 326 327
4 328 329 330 331
4 332 333 334 335
4 336 337 338 339
4 340 341 342 343
4 344 345 346 347
4 348 349 350 351
