ply
format ascii 1.0
comment Created by Blender 2.70 (sub 0) - www.blender.org, source file: 'weird.blend'
element vertex 352
property float x
property float y
property float z
property float nx
property float ny
property float nz
property float s
property float t
element face 88
property list uchar uint vertex_indices
end_header
0.418223 0.057716 -0.017701 0.335163 0.718886 0.608991 0.567723 0.270786
0.277297 0.146958 -0.030976 0.335163 0.718886 0.608991 0.560015 0.292635
0.242136 0.086058 0.045755 0.335163 0.718886 0.608991 0.529323 0.267737
0.391435 0.011318 0.066324 0.335163 0.718886 0.608991 0.534852 0.251449
0.418223 0.057716 -0.017701 0.583642 0.614606 0.530680 0.567723 0.270786
0.391435 0.011318 0.066324 0.583642 0.614606 0.530680 0.534852 0.251449
0.463145 -0.049662 0.057255 0.583642 0.614606 0.530680 0.540060 0.243715
0.507440 -0.037755 -0.004425 0.583642 0.614606 0.530680 0.567781 0.250134
0.418223 0.057716 -0.017701 0.767632 0.595388 -0.237180 0.436469 0.156257
0.507440 -0.037755 -0.004425 0.767632 0.595388 -0.237180 0.418118 0.143823
0.472562 -0.033350 -0.070435 0.767632 0.595388 -0.237180 0.445412 0.127660
0.412624 0.048019 -0.095979 0.767632 0.595388 -0.237180 0.459248 0.130921
0.418223 0.057716 -0.017701 0.573525 0.817631 -0.050482 0.436469 0.156257
0.412624 0.048019 -0.095979 0.573525 0.817631 -0.050482 0.459248 0.130921
0.279218 0.150285 -0.097652 0.573525 0.817631 -0.050482 0.472228 0.136478
0.277297 0.146958 -0.030976 0.573525 0.817631 -0.050482 0.460203 0.164517
0.050096 0.086769 0.082598 0.088617 0.098591 0.991175 0.500731 0.263756
-0.092691 0.172788 0.087898 0.088617 0.098591 0.991175 0.489246 0.274195
-0.144337 0.083334 0.100323 0.088617 0.098591 0.991175 0.476480 0.260394
0.000000 0.000000 0.096798 0.088617 0.098591 0.991175 0.486958 0.249945
0.050096 0.086769 0.082598 0.041074 0.126040 0.991175 0.500731 0.263756
0.000000 0.000000 0.096798 0.041074 0.126040 0.991175 0.486958 0.249945
0.144337 -0.083334 0.100323 0.041074 0.126040 0.991175 0.497437 0.239496
0.195984 0.006121 0.087898 0.041074 0.126040 0.991175 0.511202 0.252300
0.050096 0.086769 0.082598 0.175212 0.385759 0.905809 0.500731 0.263756
0.195984 0.006121 0.087898 0.175212 0.385759 0.905809 0.511202 0.252300
0.242136 0.086058 0.045755 0.175212 0.385759 0.905809 0.529323 0.267737
0.096145 0.166527 0.038898 0.175212 0.385759 0.905809 0.518824 0.281900
0.050096 0.086769 0.082598 0.246472 0.344617 0.905809 0.500731 0.263756
0.096145 0.166527 0.038898 0.246472 0.344617 0.905809 0.518824 0.281900
-0.046539 0.252725 0.045755 0.246472 0.344617 0.905809 0.504632 0.292359
-0.092691 0.172788 0.087898 0.246472 0.344617 0.905809 0.489246 0.274195
-0.215425 0.293539 -0.116217 -0.111519 0.370297 -0.922195 0.516278 0.118663
-0.331740 0.342075 -0.091554 -0.111519 0.370297 -0.922195 0.529442 0.118451
-0.265163 0.392576 -0.070435 -0.111519 0.370297 -0.922195 0.528949 0.134826
-0.164725 0.381353 -0.095979 -0.111519 0.370297 -0.922195 0.514760 0.135682
-0.215425 0.293539 -0.116217 0.073891 0.133637 -0.988272 0.516278 0.118663
-0.164725 0.381353 -0.095979 0.073891 0.133637 -0.988272 0.514760 0.135682
-0.009457 0.316952 -0.097652 0.073891 0.133637 -0.988272 0.501023 0.138948
-0.063025 0.224170 -0.109630 0.073891 0.133637 -0.988272 0.502271 0.120443
-0.215425 0.293539 -0.116217 0.024836 -0.059355 -0.997928 0.516278 0.118663
-0.063025 0.224170 -0.109630 0.024836 -0.059355 -0.997928 0.502271 0.120443
-0.144337 0.083334 -0.101945 0.024836 -0.059355 -0.997928 0.504622 0.092952
-0.288675 0.166667 -0.111826 0.024836 -0.059355 -0.997928 0.519720 0.094247
-0.215425 0.293539 -0.116217 -0.165490 0.073031 -0.983504 0.516278 0.118663
-0.288675 0.166667 -0.111826 -0.165490 0.073031 -0.983504 0.519720 0.094247
-0.396928 0.229167 -0.090456 -0.165490 0.073031 -0.983504 0.533785 0.095454
-0.331740 0.342075 -0.091554 -0.165490 0.073031 -0.983504 0.529442 0.118451
-0.370512 0.358254 0.000000 -0.783317 0.455759 0.422727 0.459472 0.325432
-0.433012 0.250001 0.000000 -0.783317 0.455759 0.422727 0.429003 0.307737
-0.396928 0.229167 0.090225 -0.783317 0.455759 0.422727 0.457979 0.278842
-0.335978 0.334735 0.088450 -0.783317 0.455759 0.422727 0.471663 0.291428
-0.370512 0.358254 0.000000 -0.429455 0.765804 0.478657 0.459472 0.325432
-0.335978 0.334735 0.088450 -0.429455 0.765804 0.478657 0.471663 0.291428
-0.274580 0.376265 0.057255 -0.429455 0.765804 0.478657 0.480579 0.303029
-0.286416 0.420579 -0.004425 -0.429455 0.765804 0.478657 0.486920 0.330767
-0.370512 0.358254 0.000000 -0.517809 0.751887 -0.408093 0.569237 0.132342
-0.286416 0.420579 -0.004425 -0.517809 0.751887 -0.408093 0.553091 0.155400
-0.265163 0.392576 -0.070435 -0.517809 0.751887 -0.408093 0.528949 0.134826
-0.331740 0.342075 -0.091554 -0.517809 0.751887 -0.408093 0.529442 0.118451
-0.370512 0.358254 0.000000 -0.788294 0.453056 -0.416333 0.569237 0.132342
-0.331740 0.342075 -0.091554 -0.788294 0.453056 -0.416333 0.529442 0.118451
-0.396928 0.229167 -0.090456 -0.788294 0.453056 -0.416333 0.533785 0.095454
-0.433012 0.250001 0.000000 -0.788294 0.453056 -0.416333 0.575001 0.098989
-0.232377 0.264178 0.103799 -0.103524 0.103004 0.989279 0.477477 0.282825
-0.335978 0.334735 0.088450 -0.103524 0.103004 0.989279 0.471663 0.291428
-0.396928 0.229167 0.090225 -0.103524 0.103004 0.989279 0.457979 0.278842
-0.288675 0.166667 0.110899 -0.103524 0.103004 0.989279 0.466286 0.270559
-0.232377 0.264178 0.103799 0.115338 0.037072 0.992634 0.477477 0.282825
-0.288675 0.166667 0.110899 0.115338 0.037072 0.992634 0.466286 0.270559
-0.144337 0.083334 0.100323 0.115338 0.037072 0.992634 0.476480 0.260394
-0.092691 0.172788 0.087898 0.115338 0.037072 0.992634 0.489246 0.274195
-0.232377 0.264178 0.103799 0.301945 0.278246 0.911816 0.477477 0.282825
-0.092691 0.172788 0.087898 0.301945 0.278246 0.911816 0.489246 0.274195
-0.046539 0.252725 0.045755 0.301945 0.278246 0.911816 0.504632 0.292359
-0.185915 0.344652 0.066324 0.301945 0.278246 0.911816 0.488328 0.297842
-0.232377 0.264178 0.103799 0.105801 0.415065 0.903619 0.477477 0.282825
-0.185915 0.344652 0.066324 0.105801 0.415065 0.903619 0.488328 0.297842
-0.274580 0.376265 0.057255 0.105801 0.415065 0.903619 0.480579 0.303029
-0.335978 0.334735 0.088450 0.105801 0.415065 0.903619 0.471663 0.291428
0.344973 -0.069156 0.103799 -0.025563 0.118421 0.992634 0.519865 0.240555
0.195984 0.006121 0.087898 -0.025563 0.118421 0.992634 0.511202 0.252300
0.144337 -0.083334 0.100323 -0.025563 0.118421 0.992634 0.497437 0.239496
0.288675 -0.166667 0.110899 -0.025563 0.118421 0.992634 0.507631 0.229330
0.344973 -0.069156 0.103799 0.140966 -0.038153 0.989279 0.519865 0.240555
0.288675 -0.166667 0.110899 0.140966 -0.038153 0.989279 0.507631 0.229330
0.396928 -0.229167 0.090225 0.140966 -0.038153 0.989279 0.515938 0.221047
0.457878 -0.123600 0.088450 0.140966 -0.038153 0.989279 0.528485 0.234766
0.344973 -0.069156 0.103799 0.306557 0.299158 0.903619 0.519865 0.240555
0.457878 -0.123600 0.088450 0.306557 0.299158 0.903619 0.528485 0.234766
0.463145 -0.049662 0.057255 0.306557 0.299158 0.903619 0.540060 0.243715
0.391435 0.011318 0.066324 0.306557 0.299158 0.903619 0.534852 0.251449
0.344973 -0.069156 0.103799 0.089997 0.400614 0.911816 0.519865 0.240555
0.391435 0.011318 0.066324 0.089997 0.400614 0.911816 0.534852 0.251449
0.242136 0.086058 0.045755 0.089997 0.400614 0.911816 0.529323 0.267737
0.195984 0.006121 0.087898 0.089997 0.400614 0.911816 0.511202 0.252300
0.495513 -0.141747 0.000000 0.877933 0.010981 0.478657 0.562524 0.222671
0.507440 -0.037755 -0.004425 0.877933 0.010981 0.478657 0.567781 0.250134
0.463145 -0.049662 0.057255 0.877933 0.010981 0.478657 0.540060 0.243715
0.457878 -0.123600 0.088450 0.877933 0.010981 0.478657 0.528485 0.234766
0.495513 -0.141747 0.000000 0.786356 -0.450495 0.422727 0.562524 0.222671
0.457878 -0.123600 0.088450 0.786356 -0.450495 0.422727 0.528485 0.234766
0.396928 -0.229167 0.090225 0.786356 -0.450495 0.422727 0.515938 0.221047
0.433012 -0.250001 0.000000 0.786356 -0.450495 0.422727 0.544914 0.192152
0.495513 -0.141747 0.000000 0.786504 -0.456156 -0.416334 0.406136 0.118352
0.433012 -0.250001 0.000000 0.786504 -0.456156 -0.416334 0.406136 0.084504
0.396928 -0.229167 -0.090456 0.786504 -0.456156 -0.416334 0.447351 0.088040
0.462116 -0.116259 -0.091554 0.786504 -0.456156 -0.416334 0.447715 0.111441
0.495513 -0.141747 0.000000 0.910057 -0.072494 -0.408094 0.406136 0.118352
0.462116 -0.116259 -0.091554 0.910057 -0.072494 -0.408094 0.447715 0.111441
0.472562 -0.033350 -0.070435 0.910057 -0.072494 -0.408094 0.445412 0.127660
0.507440 -0.037755 -0.004425 0.910057 -0.072494 -0.408094 0.418118 0.143823
0.134096 0.232261 -0.035401 0.381414 0.609103 0.695354 0.546789 0.309944
-0.011378 0.313625 -0.030976 0.381414 0.609103 0.695354 0.529442 0.323121
-0.046539 0.252725 0.045755 0.381414 0.609103 0.695354 0.504632 0.292359
0.096145 0.166527 0.038898 0.381414 0.609103 0.695354 0.518824 0.281900
0.134096 0.232261 -0.035401 0.336794 0.634865 0.695354 0.546789 0.309944
0.096145 0.166527 0.038898 0.336794 0.634865 0.695354 0.518824 0.281900
0.242136 0.086058 0.045755 0.336794 0.634865 0.695354 0.529323 0.267737
0.277297 0.146958 -0.030976 0.336794 0.634865 0.695354 0.560015 0.292635
0.134096 0.232261 -0.035401 0.520882 0.848036 0.097555 0.483937 0.169057
0.277297 0.146958 -0.030976 0.520882 0.848036 0.097555 0.460203 0.164517
0.279218 0.150285 -0.097652 0.520882 0.848036 0.097555 0.472228 0.136478
0.138524 0.239929 -0.098209 0.520882 0.848036 0.097555 0.486510 0.139061
0.134096 0.232261 -0.035401 0.473982 0.875114 0.097555 0.483937 0.169057
0.138524 0.239929 -0.098209 0.473982 0.875114 0.097555 0.486510 0.139061
-0.009457 0.316952 -0.097652 0.473982 0.875114 0.097555 0.501023 0.138948
-0.011378 0.313625 -0.030976 0.473982 0.875114 0.097555 0.508096 0.168625
0.361925 -0.039795 -0.116217 0.078787 0.130810 -0.988272 0.460651 0.113892
0.225650 0.057503 -0.109630 0.078787 0.130810 -0.988272 0.474149 0.118031
0.279218 0.150285 -0.097652 0.078787 0.130810 -0.988272 0.472228 0.136478
0.412624 0.048019 -0.095979 0.078787 0.130810 -0.988272 0.459248 0.130921
0.361925 -0.039795 -0.116217 0.376447 0.088569 -0.922195 0.460651 0.113892
0.412624 0.048019 -0.095979 0.376447 0.088569 -0.922195 0.459248 0.130921
0.472562 -0.033350 -0.070435 0.376447 0.088569 -0.922195 0.445412 0.127660
0.462116 -0.116259 -0.091554 0.376447 0.088569 -0.922195 0.447715 0.111441
0.361925 -0.039795 -0.116217 0.145992 -0.106804 -0.983504 0.460651 0.113892
0.462116 -0.116259 -0.091554 0.145992 -0.106804 -0.983504 0.447715 0.111441
0.396928 -0.229167 -0.090456 0.145992 -0.106804 -0.983504 0.447351 0.088040
0.288675 -0.166667 -0.111826 0.145992 -0.106804 -0.983504 0.461416 0.089246
0.361925 -0.039795 -0.116217 -0.063821 -0.008169 -0.997928 0.460651 0.113892
0.288675 -0.166667 -0.111826 -0.063821 -0.008169 -0.997928 0.461416 0.089246
0.144337 -0.083334 -0.101945 -0.063821 -0.008169 -0.997928 0.476514 0.090541
0.225650 0.057503 -0.109630 -0.063821 -0.008169 -0.997928 0.474149 0.118031
-0.159127 0.391050 -0.017701 0.240446 0.812751 0.530680 0.507572 0.330767
-0.286416 0.420579 -0.004425 0.240446 0.812751 0.530680 0.486920 0.330767
-0.274580 0.376265 0.057255 0.240446 0.812751 0.530680 0.480579 0.303029
-0.185915 0.344652 0.066324 0.240446 0.812751 0.530680 0.488328 0.297842
-0.159127 0.391050 -0.017701 0.454993 0.649701 0.608991 0.507572 0.330767
-0.185915 0.344652 0.066324 0.454993 0.649701 0.608991 0.488328 0.297842
-0.046539 0.252725 0.045755 0.454993 0.649701 0.608991 0.504632 0.292359
-0.011378 0.313625 -0.030976 0.454993 0.649701 0.608991 0.529442 0.323121
-0.159127 0.391050 -0.017701 0.421329 0.905502 -0.050482 0.532891 0.164528
-0.011378 0.313625 -0.030976 0.421329 0.905502 -0.050482 0.508096 0.168625
-0.009457 0.316952 -0.097652 0.421329 0.905502 -0.050482 0.501023 0.138948
-0.164725 0.381353 -0.095979 0.421329 0.905502 -0.050482 0.514760 0.135682
-0.159127 0.391050 -0.017701 0.131807 0.962483 -0.237180 0.532891 0.164528
-0.164725 0.381353 -0.095979 0.131807 0.962483 -0.237180 0.514760 0.135682
-0.265163 0.392576 -0.070435 0.131807 0.962483 -0.237180 0.528949 0.134826
-0.286416 0.420579 -0.004425 0.131807 0.962483 -0.237180 0.553091 0.155400
0.084000 0.145491 -0.107435 0.049833 0.083946 -0.995223 0.488123 0.120248
-0.063025 0.224170 -0.109630 0.049833 0.083946 -0.995223 0.502271 0.120443
-0.009457 0.316952 -0.097652 0.049833 0.083946 -0.995223 0.501023 0.138948
0.138524 0.239929 -0.098209 0.049833 0.083946 -0.995223 0.486510 0.139061
0.084000 0.145491 -0.107435 0.047783 0.085130 -0.995223 0.488123 0.120248
0.138524 0.239929 -0.098209 0.047783 0.085130 -0.995223 0.486510 0.139061
0.279218 0.150285 -0.097652 0.047783 0.085130 -0.995223 0.472228 0.136478
0.225650 0.057503 -0.109630 0.047783 0.085130 -0.995223 0.474149 0.118031
0.084000 0.145491 -0.107435 -0.039806 -0.034452 -0.998613 0.488123 0.120248
0.225650 0.057503 -0.109630 -0.039806 -0.034452 -0.998613 0.474149 0.118031
0.144337 -0.083334 -0.101945 -0.039806 -0.034452 -0.998613 0.476514 0.090541
0.000000 0.000000 -0.098652 -0.039806 -0.034452 -0.998613 0.490568 0.091747
0.084000 0.145491 -0.107435 -0.009933 -0.051698 -0.998613 0.488123 0.120248
0.000000 0.000000 -0.098652 -0.009933 -0.051698 -0.998613 0.490568 0.091747
-0.144337 0.083334 -0.101945 -0.009933 -0.051698 -0.998613 0.504622 0.092952
-0.063025 0.224170 -0.109630 -0.009933 -0.051698 -0.998613 0.502271 0.120443
0.159127 -0.391050 -0.017701 -0.454993 -0.649701 0.608991 0.466345 0.169122
0.185915 -0.344652 0.066324 -0.454993 -0.649701 0.608991 0.485589 0.202047
0.046539 -0.252725 0.045755 -0.454993 -0.649701 0.608991 0.469285 0.207530
0.011378 -0.313625 -0.030976 -0.454993 -0.649701 0.608991 0.444474 0.176769
0.159127 -0.391050 -0.017701 -0.421329 -0.905502 -0.050482 0.448246 0.018965
0.011378 -0.313625 -0.030976 -0.421329 -0.905502 -0.050482 0.473040 0.014868
0.009457 -0.316952 -0.097652 -0.421329 -0.905502 -0.050482 0.480114 0.044546
0.164725 -0.381353 -0.095979 -0.421329 -0.905502 -0.050482 0.466377 0.047811
0.159127 -0.391050 -0.017701 -0.131807 -0.962483 -0.237180 0.448246 0.018965
0.164725 -0.381353 -0.095979 -0.131807 -0.962483 -0.237180 0.466377 0.047811
0.265163 -0.392576 -0.070435 -0.131807 -0.962483 -0.237180 0.452188 0.048668
0.286416 -0.420579 -0.004425 -0.131807 -0.962483 -0.237180 0.428045 0.028093
0.159127 -0.391050 -0.017701 -0.240446 -0.812751 0.530680 0.466345 0.169122
0.286416 -0.420579 -0.004425 -0.240446 -0.812751 0.530680 0.486996 0.169122
0.274580 -0.376265 0.057255 -0.240446 -0.812751 0.530680 0.493338 0.196861
0.185915 -0.344652 0.066324 -0.240446 -0.812751 0.530680 0.485589 0.202047
-0.050096 -0.086769 0.082598 -0.041074 -0.126040 0.991175 0.473186 0.236133
0.000000 0.000000 0.096798 -0.041074 -0.126040 0.991175 0.486958 0.249945
-0.144337 0.083334 0.100323 -0.041074 -0.126040 0.991175 0.476480 0.260394
-0.195984 -0.006121 0.087898 -0.041074 -0.126040 0.991175 0.462714 0.247589
-0.050096 -0.086769 0.082598 -0.175212 -0.385759 0.905809 0.473186 0.236133
-0.195984 -0.006121 0.087898 -0.175212 -0.385759 0.905809 0.462714 0.247589
-0.242136 -0.086058 0.045755 -0.175212 -0.385759 0.905809 0.444594 0.232152
-0.096145 -0.166527 0.038898 -0.175212 -0.385759 0.905809 0.455093 0.217989
-0.050096 -0.086769 0.082598 -0.246472 -0.344617 0.905809 0.473186 0.236133
-0.096145 -0.166527 0.038898 -0.246472 -0.344617 0.905809 0.455093 0.217989
0.046539 -0.252725 0.045755 -0.246472 -0.344617 0.905809 0.469285 0.207530
0.092691 -0.172788 0.087898 -0.246472 -0.344617 0.905809 0.484671 0.225694
-0.050096 -0.086769 0.082598 -0.088617 -0.098591 0.991175 0.473186 0.236133
0.092691 -0.172788 0.087898 -0.088617 -0.098591 0.991175 0.484671 0.225694
0.144337 -0.083334 0.100323 -0.088617 -0.098591 0.991175 0.497437 0.239496
0.000000 0.000000 0.096798 -0.088617 -0.098591 0.991175 0.486958 0.249945
-0.361925 0.039795 -0.116217 -0.376447 -0.088569 -0.922195 0.520486 0.069602
-0.412624 -0.048019 -0.095979 -0.376447 -0.088569 -0.922195 0.521889 0.052573
-0.472562 0.033350 -0.070435 -0.376447 -0.088569 -0.922195 0.535724 0.055833
-0.462116 0.116259 -0.091554 -0.376447 -0.088569 -0.922195 0.533422 0.072053
-0.361925 0.039795 -0.116217 -0.145992 0.106804 -0.983504 0.520486 0.069602
-0.462116 0.116259 -0.091554 -0.145992 0.106804 -0.983504 0.533422 0.072053
-0.396928 0.229167 -0.090456 -0.145992 0.106804 -0.983504 0.533785 0.095454
-0.288675 0.166667 -0.111826 -0.145992 0.106804 -0.983504 0.519720 0.094247
-0.361925 0.039795 -0.116217 0.063821 0.008169 -0.997928 0.520486 0.069602
-0.288675 0.166667 -0.111826 0.063821 0.008169 -0.997928 0.519720 0.094247
-0.144337 0.083334 -0.101945 0.063821 0.008169 -0.997928 0.504622 0.092952
-0.225650 -0.057503 -0.109630 0.063821 0.008169 -0.997928 0.506987 0.065463
-0.361925 0.039795 -0.116217 -0.078787 -0.130810 -0.988272 0.520486 0.069602
-0.225650 -0.057503 -0.109630 -0.078787 -0.130810 -0.988272 0.506987 0.065463
-0.279218 -0.150285 -0.097652 -0.078787 -0.130810 -0.988272 0.508908 0.047015
-0.412624 -0.048019 -0.095979 -0.078787 -0.130810 -0.988272 0.521889 0.052573
-0.495513 0.141747 0.000000 -0.786356 0.450495 0.422727 0.411393 0.277218
-0.457878 0.123600 0.088450 -0.786356 0.450495 0.422727 0.445432 0.265124
-0.396928 0.229167 0.090225 -0.786356 0.450495 0.422727 0.457979 0.278842
-0.433012 0.250001 0.000000 -0.786356 0.450495 0.422727 0.429003 0.307737
-0.495513 0.141747 0.000000 -0.786504 0.456156 -0.416334 0.575001 0.065142
-0.433012 0.250001 0.000000 -0.786504 0.456156 -0.416334 0.575001 0.098989
-0.396928 0.229167 -0.090456 -0.786504 0.456156 -0.416334 0.533785 0.095454
-0.462116 0.116259 -0.091554 -0.786504 0.456156 -0.416334 0.533422 0.072053
-0.495513 0.141747 0.000000 -0.910057 0.072494 -0.408094 0.575001 0.065142
-0.462116 0.116259 -0.091554 -0.910057 0.072494 -0.408094 0.533422 0.072053
-0.472562 0.033350 -0.070435 -0.910057 0.072494 -0.408094 0.535724 0.055833
-0.507440 0.037755 -0.004425 -0.910057 0.072494 -0.408094 0.563018 0.039671
-0.495513 0.141747 0.000000 -0.877933 -0.010981 0.478657 0.411393 0.277218
-0.507440 0.037755 -0.004425 -0.877933 -0.010981 0.478657 0.406136 0.249755
-0.463145 0.049662 0.057255 -0.877933 -0.010981 0.478657 0.433857 0.256175
-0.457878 0.123600 0.088450 -0.877933 -0.010981 0.478657 0.445432 0.265124
-0.344973 0.069156 0.103799 -0.140966 0.038153 0.989279 0.454052 0.259334
-0.288675 0.166667 0.110899 -0.140966 0.038153 0.989279 0.466286 0.270559
-0.396928 0.229167 0.090225 -0.140966 0.038153 0.989279 0.457979 0.278842
-0.457878 0.123600 0.088450 -0.140966 0.038153 0.989279 0.445432 0.265124
-0.344973 0.069156 0.103799 -0.306557 -0.299158 0.903619 0.454052 0.259334
-0.457878 0.123600 0.088450 -0.306557 -0.299158 0.903619 0.445432 0.265124
-0.463145 0.049662 0.057255 -0.306557 -0.299158 0.903619 0.433857 0.256175
-0.391435 -0.011318 0.066324 -0.306557 -0.299158 0.903619 0.439065 0.248440
-0.344973 0.069156 0.103799 -0.089997 -0.400614 0.911816 0.454052 0.259334
-0.391435 -0.011318 0.066324 -0.089997 -0.400614 0.911816 0.439065 0.248440
-0.242136 -0.086058 0.045755 -0.089997 -0.400614 0.911816 0.444594 0.232152
-0.195984 -0.006121 0.087898 -0.089997 -0.400614 0.911816 0.462714 0.247589
-0.344973 0.069156 0.103799 0.025563 -0.118421 0.992634 0.454052 0.259334
-0.195984 -0.006121 0.087898 0.025563 -0.118421 0.992634 0.462714 0.247589
-0.144337 0.083334 0.100323 0.025563 -0.118421 0.992634 0.476480 0.260394
-0.288675 0.166667 0.110899 0.025563 -0.118421 0.992634 0.466286 0.270559
0.232377 -0.264178 0.103799 -0.115338 -0.037072 0.992634 0.496440 0.217065
0.288675 -0.166667 0.110899 -0.115338 -0.037072 0.992634 0.507631 0.229330
0.144337 -0.083334 0.100323 -0.115338 -0.037072 0.992634 0.497437 0.239496
0.092691 -0.172788 0.087898 -0.115338 -0.037072 0.992634 0.484671 0.225694
0.232377 -0.264178 0.103799 -0.301945 -0.278246 0.911816 0.496440 0.217065
0.092691 -0.172788 0.087898 -0.301945 -0.278246 0.911816 0.484671 0.225694
0.046539 -0.252725 0.045755 -0.301945 -0.278246 0.911816 0.469285 0.207530
0.185915 -0.344652 0.066324 -0.301945 -0.278246 0.911816 0.485589 0.202047
0.232377 -0.264178 0.103799 -0.105801 -0.415065 0.903619 0.496440 0.217065
0.185915 -0.344652 0.066324 -0.105801 -0.415065 0.903619 0.485589 0.202047
0.274580 -0.376265 0.057255 -0.105801 -0.415065 0.903619 0.493338 0.196861
0.335978 -0.334735 0.088450 -0.105801 -0.415065 0.903619 0.502254 0.208461
0.232377 -0.264178 0.103799 0.103524 -0.103004 0.989279 0.496440 0.217065
0.335978 -0.334735 0.088450 0.103524 -0.103004 0.989279 0.502254 0.208461
0.396928 -0.229167 0.090225 0.103524 -0.103004 0.989279 0.515938 0.221047
0.288675 -0.166667 0.110899 0.103524 -0.103004 0.989279 0.507631 0.229330
0.370512 -0.358254 0.000000 0.429455 -0.765804 0.478657 0.514445 0.174457
0.335978 -0.334735 0.088450 0.429455 -0.765804 0.478657 0.502254 0.208461
0.274580 -0.376265 0.057255 0.429455 -0.765804 0.478657 0.493338 0.196861
0.286416 -0.420579 -0.004425 0.429455 -0.765804 0.478657 0.486996 0.169122
0.370512 -0.358254 0.000000 0.517809 -0.751887 -0.408093 0.411900 0.051152
0.286416 -0.420579 -0.004425 0.517809 -0.751887 -0.408093 0.428045 0.028093
0.265163 -0.392576 -0.070435 0.517809 -0.751887 -0.408093 0.452188 0.048668
0.331740 -0.342075 -0.091554 0.517809 -0.751887 -0.408093 0.451695 0.065042
0.370512 -0.358254 0.000000 0.788294 -0.453056 -0.416333 0.411900 0.051152
0.331740 -0.342075 -0.091554 0.788294 -0.453056 -0.416333 0.451695 0.065042
0.396928 -0.229167 -0.090456 0.788294 -0.453056 -0.416333 0.447351 0.088040
0.433012 -0.250001 0.000000 0.788294 -0.453056 -0.416333 0.406136 0.084504
0.370512 -0.358254 0.000000 0.783317 -0.455759 0.422727 0.514445 0.174457
0.433012 -0.250001 0.000000 0.783317 -0.455759 0.422727 0.544914 0.192152
0.396928 -0.229167 0.090225 0.783317 -0.455759 0.422727 0.515938 0.221047
0.335978 -0.334735 0.088450 0.783317 -0.455759 0.422727 0.502254 0.208461
-0.134096 -0.232261 -0.035401 -0.336794 -0.634865 0.695354 0.427127 0.189945
-0.096145 -0.166527 0.038898 -0.336794 -0.634865 0.695354 0.455093 0.217989
-0.242136 -0.086058 0.045755 -0.336794 -0.634865 0.695354 0.444594 0.232152
-0.277297 -0.146958 -0.030976 -0.336794 -0.634865 0.695354 0.413902 0.207255
-0.134096 -0.232261 -0.035401 -0.520882 -0.848036 0.097555 0.497200 0.014436
-0.277297 -0.146958 -0.030976 -0.520882 -0.848036 0.097555 0.520933 0.018976
-0.279218 -0.150285 -0.097652 -0.520882 -0.848036 0.097555 0.508908 0.047015
-0.138524 -0.239929 -0.098209 -0.520882 -0.848036 0.097555 0.494627 0.044433
-0.134096 -0.232261 -0.035401 -0.473982 -0.875114 0.097555 0.497200 0.014436
-0.138524 -0.239929 -0.098209 -0.473982 -0.875114 0.097555 0.494627 0.044433
0.009457 -0.316952 -0.097652 -0.473982 -0.875114 0.097555 0.480114 0.044546
0.011378 -0.313625 -0.030976 -0.473982 -0.875114 0.097555 0.473040 0.014868
-0.134096 -0.232261 -0.035401 -0.381414 -0.609103 0.695354 0.427127 0.189945
0.011378 -0.313625 -0.030976 -0.381414 -0.609103 0.695354 0.444474 0.176769
0.046539 -0.252725 0.045755 -0.381414 -0.609103 0.695354 0.469285 0.207530
-0.096145 -0.166527 0.038898 -0.381414 -0.609103 0.695354 0.455093 0.217989
0.215425 -0.293539 -0.116217 -0.073891 -0.133637 -0.988272 0.464859 0.064831
0.164725 -0.381353 -0.095979 -0.073891 -0.133637 -0.988272 0.466377 0.047811
0.009457 -0.316952 -0.097652 -0.073891 -0.133637 -0.988272 0.480114 0.044546
0.063025 -0.224170 -0.109630 -0.073891 -0.133637 -0.988272 0.478865 0.063051
0.215425 -0.293539 -0.116217 -0.024836 0.059355 -0.997928 0.464859 0.064831
0.063025 -0.224170 -0.109630 -0.024836 0.059355 -0.997928 0.478865 0.063051
0.144337 -0.083334 -0.101945 -0.024836 0.059355 -0.997928 0.476514 0.090541
0.288675 -0.166667 -0.111826 -0.024836 0.059355 -0.997928 0.461416 0.089246
0.215425 -0.293539 -0.116217 0.165490 -0.073031 -0.983504 0.464859 0.064831
0.288675 -0.166667 -0.111826 0.165490 -0.073031 -0.983504 0.461416 0.089246
0.396928 -0.229167 -0.090456 0.165490 -0.073031 -0.983504 0.447351 0.088040
0.331740 -0.342075 -0.091554 0.165490 -0.073031 -0.983504 0.451695 0.065042
0.215425 -0.293539 -0.116217 0.111519 -0.370297 -0.922195 0.464859 0.064831
0.331740 -0.342075 -0.091554 0.111519 -0.370297 -0.922195 0.451695 0.065042
0.265163 -0.392576 -0.070435 0.111519 -0.370297 -0.922195 0.452188 0.048668
0.164725 -0.381353 -0.095979 0.111519 -0.370297 -0.922195 0.466377 0.047811
-0.418223 -0.057716 -0.017701 -0.583642 -0.614606 0.530680 0.406194 0.229104
-0.391435 -0.011318 0.066324 -0.583642 -0.614606 0.530680 0.439065 0.248440
-0.463145 0.049662 0.057255 -0.583642 -0.614606 0.530680 0.433857 0.256175
-0.507440 0.037755 -0.004425 -0.583642 -0.614606 0.530680 0.406136 0.249755
-0.418223 -0.057716 -0.017701 -0.767632 -0.595388 -0.237180 0.544667 0.027236
-0.507440 0.037755 -0.004425 -0.767632 -0.595388 -0.237180 0.563018 0.039671
-0.472562 0.033350 -0.070435 -0.767632 -0.595388 -0.237180 0.535724 0.055833
-0.412624 -0.048019 -0.095979 -0.767632 -0.595388 -0.237180 0.521889 0.052573
-0.418223 -0.057716 -0.017701 -0.573525 -0.817631 -0.050482 0.544667 0.027236
-0.412624 -0.048019 -0.095979 -0.573525 -0.817631 -0.050482 0.521889 0.052573
-0.279218 -0.150285 -0.097652 -0.573525 -0.817631 -0.050482 0.508908 0.047015
-0.277297 -0.146958 -0.030976 -0.573525 -0.817631 -0.050482 0.520933 0.018976
-0.418223 -0.057716 -0.017701 -0.335163 -0.718886 0.608991 0.406194 0.229104
-0.277297 -0.146958 -0.030976 -0.335163 -0.718886 0.608991 0.413902 0.207255
-0.242136 -0.086058 0.045755 -0.335163 -0.718886 0.608991 0.444594 0.232152
-0.391435 -0.011318 0.066324 -0.335163 -0.718886 0.608991 0.439065 0.248440
-0.084000 -0.145491 -0.107435 -0.047783 -0.085130 -0.995223 0.493013 0.063246
-0.138524 -0.239929 -0.098209 -0.047783 -0.085130 -0.995223 0.494627 0.044433
-0.279218 -0.150285 -0.097652 -0.047783 -0.085130 -0.995223 0.508908 0.047015
-0.225650 -0.057503 -0.109630 -0.047783 -0.085130 -0.995223 0.506987 0.065463
-0.084000 -0.145491 -0.107435 0.039806 0.034452 -0.998613 0.493013 0.063246
-0.225650 -0.057503 -0.109630 0.039806 0.034452 -0.998613 0.506987 0.065463
-0.144337 0.083334 -0.101945 0.039806 0.034452 -0.998613 0.504622 0.092952
0.000000 0.000000 -0.098652 0.039806 0.034452 -0.998613 0.490568 0.091747
-0.084000 -0.145491 -0.107435 0.009933 0.051698 -0.998613 0.493013 0.063246
0.000000 0.000000 -0.098652 0.009933 0.051698 -0.998613 0.490568 0.091747
0.144337 -0.083334 -0.101945 0.009933 0.051698 -0.998613 0.476514 0.090541
0.063025 -0.224170 -0.109630 0.009933 0.051698 -0.998613 0.478865 0.063051
-0.084000 -0.145491 -0.107435 -0.049833 -0.083946 -0.995223 0.493013 0.063246
0.063025 -0.224170 -0.109630 -0.049833 -0.083946 -0.995223 0.478865 0.063051
0.009457 -0.316952 -0.097652 -0.049833 -0.083946 -0.995223 0.480114 0.044546
-0.138524 -0.239929 -0.098209 -0.049833 -0.083946 -0.995223 0.494627 0.044433
4 0 1 2 3
4 4 5 6 7
4 8 9 10 11
4 12 13 14 15
4 16 17 18 19
4 20 21 22 23
4 24 25 26 27
4 28 29 30 31
4 32 33 34 35
4 36 37 38 39
4 40 41 42 43
4 44 45 46 47
4 48 49 50 51
4 52 53 54 55
4 56 57 58 59
4 60 61 62 63
4 64 65 66 67
4 68 69 70 71
4 72 73 74 75
4 76 77 78 79
4 80 81 82 83
4 84 85 86 87
4 88 89 90 91
4 92 93 94 95
4 96 97 98 99
4 100 101 102 103
4 104 105 106 107
4 108 109 110 111
4 112 113 114 115
4 116 117 118 119
4 120 121 122 123
4 124 125 126 127
4 128 129 130 131
4 132 133 134 135
4 136 137 138 139
4 140 141 142 143
4 144 145 146 147
4 148 149 150 151
4 152 153 154 155
4 156 157 158 159
4 160 161 162 163
4 164 165 166 167
4 168 169 170 171
4 172 173 174 175
4 176 177 178 179
4 180 181 182 183
4 184 185 186 187
4 188 189 190 191
4 192 193 194 195
4 196 197 198 199
4 200 201 202 203
4 204 205 206 207
4 208 209 210 211
4 212 213 214 215
4 216 217 218 219
4 220 221 222 223
4 224 225 226 227
4 228 229 230 231
4 232 233 234 235
4 236 237 238 239
4 240 241 242 243
4 244 245 246 247
4 248 249 250 251
4 252 253 254 255
4 256 257 258 259
4 260 261 262 263
4 264 265 266 267
4 268 269 270 271
4 272 273 274 275
4 276 277 278 279
4 280 281 282 283
4 284 285 286 287
4 288 289 290 291
4 292 293 294 295
4 296 297 298 299
4 300 301 302 303
4 304 305 306 307
4 308 309 310 311
4 312 313 314 315
4 316 317 318 319
4 320 321 322 323
4 324 325 326 327
4 328 329 330 331
4 332 333 334 335
4 336 337 338 339
4 340 341 342 343
4 344 345 346 347
4 348 349 350 351
