ply
format ascii 1.0
comment Created by Blender 2.70 (sub 0) - www.blender.org, source file: 'weird.blend'
element vertex 192
property float x
property float y
property float z
property float nx
property float ny
property float nz
property float s
property float t
element face 92
property list uchar uint vertex_indices
end_header
0.000000 0.475000 -0.125000 0.098017 0.995185 0.000000 0.694345 0.647257
0.000000 0.475000 0.125000 0.098017 0.995185 0.000000 0.588460 0.647255
0.092668 0.465873 0.125000 0.098017 0.995185 0.000000 0.588460 0.617534
0.092668 0.465873 -0.125000 0.098017 0.995185 0.000000 0.694345 0.617536
0.092668 0.465873 -0.125000 0.290285 0.956940 0.000000 0.694345 0.617536
0.092668 0.465873 0.125000 0.290285 0.956940 0.000000 0.588460 0.617534
0.181775 0.438843 0.125000 0.290285 0.956940 0.000000 0.588460 0.587814
0.181775 0.438843 -0.125000 0.290285 0.956940 0.000000 0.694345 0.587816
0.181775 0.438843 -0.125000 0.471397 0.881921 0.000000 0.694345 0.587816
0.181775 0.438843 0.125000 0.471397 0.881921 0.000000 0.588460 0.587814
0.263896 0.394948 0.125000 0.471397 0.881921 0.000000 0.588460 0.558093
0.263896 0.394948 -0.125000 0.471397 0.881921 0.000000 0.694345 0.558096
0.263896 0.394948 -0.125000 0.634393 0.773010 0.000000 0.694345 0.558096
0.263896 0.394948 0.125000 0.634393 0.773010 0.000000 0.588460 0.558093
0.335876 0.335876 0.125000 0.634393 0.773010 0.000000 0.588460 0.528372
0.335876 0.335876 -0.125000 0.634393 0.773010 0.000000 0.694345 0.528376
0.335876 0.335876 -0.125000 0.773010 0.634393 0.000000 0.694345 0.528376
0.335876 0.335876 0.125000 0.773010 0.634393 0.000000 0.588460 0.528372
0.394948 0.263896 0.125000 0.773010 0.634393 0.000000 0.588460 0.498652
0.394948 0.263896 -0.125000 0.773010 0.634393 0.000000 0.694345 0.498657
0.394948 0.263896 -0.125000 0.881921 0.471397 0.000000 0.694345 0.498657
0.394948 0.263896 0.125000 0.881921 0.471397 0.000000 0.588460 0.498652
0.438843 0.181775 0.125000 0.881921 0.471397 0.000000 0.588461 0.468931
0.438843 0.181775 -0.125000 0.881921 0.471397 0.000000 0.694345 0.468937
0.438843 0.181775 -0.125000 0.956940 0.290285 0.000000 0.694345 0.468937
0.438843 0.181775 0.125000 0.956940 0.290285 0.000000 0.588461 0.468931
0.465873 0.092668 0.125000 0.956940 0.290285 0.000000 0.588461 0.439211
0.465873 0.092668 -0.125000 0.956940 0.290285 0.000000 0.694345 0.439217
0.465873 0.092668 -0.125000 0.995185 0.098017 0.000000 0.694345 0.439217
0.465873 0.092668 0.125000 0.995185 0.098017 0.000000 0.588461 0.439211
0.475000 0.000000 0.125000 0.995185 0.098017 0.000000 0.588461 0.409490
0.475000 0.000000 -0.125000 0.995185 0.098017 0.000000 0.694346 0.409497
0.475000 0.000000 -0.125000 0.995185 -0.098017 0.000000 0.694346 0.409497
0.475000 0.000000 0.125000 0.995185 -0.098017 0.000000 0.588461 0.409490
0.465873 -0.092668 0.125000 0.995185 -0.098017 0.000000 0.588461 0.379770
0.465873 -0.092668 -0.125000 0.995185 -0.098017 0.000000 0.694346 0.379777
0.465873 -0.092668 -0.125000 0.956940 -0.290285 0.000000 0.694346 0.379777
0.465873 -0.092668 0.125000 0.956940 -0.290285 0.000000 0.588461 0.379770
0.438843 -0.181775 0.125000 0.956940 -0.290285 0.000000 0.588462 0.350049
0.438843 -0.181775 -0.125000 0.956940 -0.290285 0.000000 0.694346 0.350057
0.438843 -0.181775 -0.125000 0.881922 -0.471396 0.000000 0.694346 0.350057
0.438843 -0.181775 0.125000 0.881922 -0.471396 0.000000 0.588462 0.350049
0.394948 -0.263896 0.125000 0.881922 -0.471396 0.000000 0.588462 0.320329
0.394948 -0.263896 -0.125000 0.881922 -0.471396 0.000000 0.694346 0.320337
0.394948 -0.263896 -0.125000 0.773010 -0.634393 0.000000 0.694346 0.320337
0.394948 -0.263896 0.125000 0.773010 -0.634393 0.000000 0.588462 0.320329
0.335876 -0.335876 0.125000 0.773010 -0.634393 0.000000 0.588462 0.290608
0.335876 -0.335876 -0.125000 0.773010 -0.634393 0.000000 0.694347 0.290617
0.335876 -0.335876 -0.125000 0.634393 -0.773010 0.000000 0.694347 0.290617
0.335876 -0.335876 0.125000 0.634393 -0.773010 0.000000 0.588462 0.290608
0.263896 -0.394948 0.125000 0.634393 -0.773010 0.000000 0.588462 0.260888
0.263896 -0.394948 -0.125000 0.634393 -0.773010 0.000000 0.694347 0.260897
0.263896 -0.394948 -0.125000 0.471396 -0.881921 0.000000 0.694347 0.260897
0.263896 -0.394948 0.125000 0.471396 -0.881921 0.000000 0.588462 0.260888
0.181775 -0.438843 0.125000 0.471396 -0.881921 0.000000 0.588463 0.231168
0.181775 -0.438843 -0.125000 0.471396 -0.881921 0.000000 0.694347 0.231178
0.181775 -0.438843 -0.125000 0.290284 -0.956940 0.000000 0.694347 0.231178
0.181775 -0.438843 0.125000 0.290284 -0.956940 0.000000 0.588463 0.231168
0.092668 -0.465873 0.125000 0.290284 -0.956940 0.000000 0.588463 0.201448
0.092668 -0.465873 -0.125000 0.290284 -0.956940 0.000000 0.694348 0.201458
0.092668 -0.465873 -0.125000 0.098017 -0.995185 0.000000 0.694348 0.201458
0.092668 -0.465873 0.125000 0.098017 -0.995185 0.000000 0.588463 0.201448
-0.000000 -0.475000 0.125000 0.098017 -0.995185 0.000000 0.588464 0.171728
-0.000000 -0.475000 -0.125000 0.098017 -0.995185 0.000000 0.694348 0.171738
-0.000000 -0.475000 -0.125000 -0.098017 -0.995185 0.000000 0.694348 0.171738
-0.000000 -0.475000 0.125000 -0.098017 -0.995185 0.000000 0.588464 0.171728
-0.092668 -0.465873 0.125000 -0.098017 -0.995185 0.000000 0.588464 0.142007
-0.092668 -0.465873 -0.125000 -0.098017 -0.995185 0.000000 0.694348 0.142018
-0.092668 -0.465873 -0.125000 -0.290285 -0.956940 0.000000 0.694348 0.142018
-0.092668 -0.465873 0.125000 -0.290285 -0.956940 0.000000 0.588464 0.142007
-0.181775 -0.438843 0.125000 -0.290285 -0.956940 0.000000 0.588464 0.112287
-0.181775 -0.438843 -0.125000 -0.290285 -0.956940 0.000000 0.694349 0.112298
-0.181775 -0.438843 -0.125000 -0.471397 -0.881921 0.000000 0.694349 0.112298
-0.181775 -0.438843 0.125000 -0.471397 -0.881921 0.000000 0.588464 0.112287
-0.263896 -0.394948 0.125000 -0.471397 -0.881921 0.000000 0.588465 0.082567
-0.263896 -0.394948 -0.125000 -0.471397 -0.881921 0.000000 0.694349 0.082577
-0.263896 -0.394948 -0.125000 -0.634394 -0.773010 0.000000 0.694349 0.082577
-0.263896 -0.394948 0.125000 -0.634394 -0.773010 0.000000 0.588465 0.082567
-0.335876 -0.335876 0.125000 -0.634394 -0.773010 0.000000 0.588465 0.052847
-0.335876 -0.335876 -0.125000 -0.634394 -0.773010 0.000000 0.694349 0.052857
-0.335876 -0.335876 -0.125000 -0.773011 -0.634393 0.000000 0.694349 0.052857
-0.335876 -0.335876 0.125000 -0.773011 -0.634393 0.000000 0.588465 0.052847
-0.394948 -0.263896 0.125000 -0.773011 -0.634393 0.000000 0.588465 0.023127
-0.394948 -0.263896 -0.125000 -0.773011 -0.634393 0.000000 0.694350 0.023137
-0.394948 -0.263896 -0.125000 -0.881922 -0.471396 0.000000 0.694347 0.974181
-0.394948 -0.263896 0.125000 -0.881922 -0.471396 0.000000 0.588460 0.974182
-0.438843 -0.181774 0.125000 -0.881922 -0.471396 0.000000 0.588460 0.944462
-0.438843 -0.181774 -0.125000 -0.881922 -0.471396 0.000000 0.694346 0.944460
-0.438843 -0.181774 -0.125000 -0.956941 -0.290284 0.000000 0.694346 0.944460
-0.438843 -0.181774 0.125000 -0.956941 -0.290284 0.000000 0.588460 0.944462
-0.465873 -0.092667 0.125000 -0.956941 -0.290284 0.000000 0.588460 0.914741
-0.465873 -0.092667 -0.125000 -0.956941 -0.290284 0.000000 0.694346 0.914739
-0.465873 -0.092667 -0.125000 -0.995185 -0.098016 0.000000 0.694346 0.914739
-0.465873 -0.092667 0.125000 -0.995185 -0.098016 0.000000 0.588460 0.914741
-0.475000 0.000000 0.125000 -0.995185 -0.098016 0.000000 0.588460 0.885021
-0.475000 0.000000 -0.125000 -0.995185 -0.098016 0.000000 0.694346 0.885019
-0.475000 0.000000 -0.125000 -0.995185 0.098018 0.000000 0.694346 0.885019
-0.475000 0.000000 0.125000 -0.995185 0.098018 0.000000 0.588460 0.885021
-0.465873 0.092668 0.125000 -0.995185 0.098018 0.000000 0.588460 0.855300
-0.465873 0.092668 -0.125000 -0.995185 0.098018 0.000000 0.694346 0.855298
-0.465873 0.092668 -0.125000 -0.956940 0.290286 0.000000 0.694346 0.855298
-0.465873 0.092668 0.125000 -0.956940 0.290286 0.000000 0.588460 0.855300
-0.438843 0.181775 0.125000 -0.956940 0.290286 0.000000 0.588460 0.825579
-0.438843 0.181775 -0.125000 -0.956940 0.290286 0.000000 0.694346 0.825578
-0.438843 0.181775 -0.125000 -0.881921 0.471398 0.000000 0.694346 0.825578
-0.438843 0.181775 0.125000 -0.881921 0.471398 0.000000 0.588460 0.825579
-0.394948 0.263896 0.125000 -0.881921 0.471398 0.000000 0.588460 0.795859
-0.394948 0.263896 -0.125000 -0.881921 0.471398 0.000000 0.694346 0.795857
-0.394948 0.263896 -0.125000 -0.773010 0.634394 0.000000 0.694346 0.795857
-0.394948 0.263896 0.125000 -0.773010 0.634394 0.000000 0.588460 0.795859
-0.335875 0.335876 0.125000 -0.773010 0.634394 0.000000 0.588460 0.766138
-0.335875 0.335876 -0.125000 -0.773010 0.634394 0.000000 0.694346 0.766137
-0.335875 0.335876 -0.125000 -0.634392 0.773011 0.000000 0.694346 0.766137
-0.335875 0.335876 0.125000 -0.634392 0.773011 0.000000 0.588460 0.766138
-0.263895 0.394948 0.125000 -0.634392 0.773011 0.000000 0.588460 0.736417
-0.263895 0.394948 -0.125000 -0.634392 0.773011 0.000000 0.694345 0.736417
-0.263895 0.394948 -0.125000 -0.471395 0.881922 0.000000 0.694345 0.736417
-0.263895 0.394948 0.125000 -0.471395 0.881922 0.000000 0.588460 0.736417
-0.181774 0.438843 0.125000 -0.471395 0.881922 0.000000 0.588460 0.706696
-0.181774 0.438843 -0.125000 -0.471395 0.881922 0.000000 0.694345 0.706697
0.092668 0.465873 0.125000 -0.000000 -0.000000 1.000000 0.819541 0.980094
0.000000 0.475000 0.125000 -0.000000 -0.000000 1.000000 0.807343 0.985147
0.181775 0.438843 0.125000 -0.000000 -0.000000 1.000000 0.830518 0.972759
-0.092667 0.465873 0.125000 0.000000 0.000000 1.000000 0.794395 0.987722
-0.181774 0.438843 0.125000 0.000000 0.000000 1.000000 0.781192 0.987722
-0.263895 0.394948 0.125000 0.000000 0.000000 1.000000 0.768244 0.985146
-0.335875 0.335876 0.125000 0.000000 0.000000 1.000000 0.756046 0.980094
-0.394948 0.263896 0.125000 0.000000 0.000000 1.000000 0.745069 0.972759
-0.438843 0.181775 0.125000 0.000000 0.000000 1.000000 0.735733 0.963423
-0.465873 0.092668 0.125000 0.000000 0.000000 1.000000 0.728398 0.952446
-0.475000 0.000000 0.125000 0.000000 0.000000 1.000000 0.723346 0.940249
-0.465873 -0.092667 0.125000 0.000000 0.000000 1.000000 0.720770 0.927300
-0.438843 -0.181774 0.125000 0.000000 0.000000 1.000000 0.720770 0.914098
-0.394948 -0.263896 0.125000 0.000000 0.000000 1.000000 0.723346 0.901149
-0.335876 -0.335876 0.125000 0.000000 0.000000 1.000000 0.728398 0.888952
-0.263896 -0.394948 0.125000 0.000000 0.000000 1.000000 0.735733 0.877974
-0.181775 -0.438843 0.125000 0.000000 0.000000 1.000000 0.745069 0.868639
-0.092668 -0.465873 0.125000 0.000000 0.000000 1.000000 0.756046 0.861304
-0.000000 -0.475000 0.125000 0.000000 0.000000 1.000000 0.768244 0.856251
0.092668 -0.465873 0.125000 0.000000 0.000000 1.000000 0.781192 0.853676
0.181775 -0.438843 0.125000 0.000000 0.000000 1.000000 0.794395 0.853676
0.263896 -0.394948 0.125000 0.000000 0.000000 1.000000 0.807344 0.856252
0.335876 -0.335876 0.125000 0.000000 0.000000 1.000000 0.819541 0.861304
0.394948 -0.263896 0.125000 0.000000 0.000000 1.000000 0.830518 0.868639
0.438843 -0.181775 0.125000 0.000000 0.000000 1.000000 0.839854 0.877974
0.465873 -0.092668 0.125000 0.000000 0.000000 1.000000 0.847189 0.888952
0.475000 0.000000 0.125000 0.000000 0.000000 1.000000 0.852241 0.901149
0.465873 0.092668 0.125000 0.000000 0.000000 1.000000 0.854816 0.914098
0.438843 0.181775 0.125000 0.000000 0.000000 1.000000 0.854816 0.927300
0.394948 0.263896 0.125000 0.000000 0.000000 1.000000 0.852241 0.940249
0.335876 0.335876 0.125000 0.000000 0.000000 1.000000 0.847188 0.952447
0.263896 0.394948 0.125000 0.000000 0.000000 1.000000 0.839853 0.963424
0.000000 0.475000 0.125000 -0.098017 0.995185 0.000000 0.588460 0.647255
0.000000 0.475000 -0.125000 -0.098017 0.995185 0.000000 0.694345 0.647257
-0.092667 0.465873 -0.125000 -0.098017 0.995185 0.000000 0.694345 0.676976
-0.092667 0.465873 0.125000 -0.098017 0.995185 0.000000 0.588460 0.676976
-0.181774 0.438843 -0.125000 -0.290283 0.956941 0.000000 0.694345 0.706697
-0.181774 0.438843 0.125000 -0.290283 0.956941 0.000000 0.588460 0.706696
-0.092667 0.465873 0.125000 -0.290283 0.956941 0.000000 0.588460 0.676976
-0.092667 0.465873 -0.125000 -0.290283 0.956941 0.000000 0.694345 0.676976
0.000000 0.475000 -0.125000 0.000000 0.000000 -1.000000 0.879216 0.868639
0.092668 0.465873 -0.125000 0.000000 0.000000 -1.000000 0.890193 0.861304
-0.092667 0.465873 -0.125000 0.000000 0.000000 -1.000000 0.869881 0.877974
0.181775 0.438843 -0.125000 0.000000 0.000000 -1.000000 0.902391 0.856252
0.263896 0.394948 -0.125000 0.000000 0.000000 -1.000000 0.915340 0.853676
0.335876 0.335876 -0.125000 0.000000 0.000000 -1.000000 0.928542 0.853676
0.394948 0.263896 -0.125000 0.000000 0.000000 -1.000000 0.941491 0.856251
0.438843 0.181775 -0.125000 0.000000 0.000000 -1.000000 0.953688 0.861304
0.465873 0.092668 -0.125000 0.000000 0.000000 -1.000000 0.964666 0.868639
0.475000 0.000000 -0.125000 0.000000 0.000000 -1.000000 0.974001 0.877974
0.465873 -0.092668 -0.125000 0.000000 0.000000 -1.000000 0.981336 0.888951
0.438843 -0.181775 -0.125000 0.000000 0.000000 -1.000000 0.986389 0.901149
0.394948 -0.263896 -0.125000 0.000000 0.000000 -1.000000 0.988964 0.914098
0.335876 -0.335876 -0.125000 0.000000 0.000000 -1.000000 0.988964 0.927300
0.263896 -0.394948 -0.125000 0.000000 0.000000 -1.000000 0.986389 0.940249
0.181775 -0.438843 -0.125000 0.000000 0.000000 -1.000000 0.981336 0.952446
0.092668 -0.465873 -0.125000 0.000000 0.000000 -1.000000 0.974001 0.963423
-0.000000 -0.475000 -0.125000 0.000000 0.000000 -1.000000 0.964666 0.972759
-0.092668 -0.465873 -0.125000 0.000000 0.000000 -1.000000 0.953688 0.980094
-0.181775 -0.438843 -0.125000 0.000000 0.000000 -1.000000 0.941491 0.985146
-0.263896 -0.394948 -0.125000 0.000000 0.000000 -1.000000 0.928542 0.987722
-0.335876 -0.335876 -0.125000 0.000000 0.000000 -1.000000 0.915339 0.987722
-0.394948 -0.263896 -0.125000 0.000000 0.000000 -1.000000 0.902391 0.985146
-0.438843 -0.181774 -0.125000 0.000000 0.000000 -1.000000 0.890193 0.980094
-0.465873 -0.092667 -0.125000 0.000000 0.000000 -1.000000 0.879216 0.972759
-0.475000 0.000000 -0.125000 0.000000 -0.000000 -1.000000 0.869880 0.963423
-0.465873 0.092668 -0.125000 0.000000 -0.000000 -1.000000 0.862546 0.952446
-0.438843 0.181775 -0.125000 0.000000 0.000000 -1.000000 0.857493 0.940249
-0.394948 0.263896 -0.125000 0.000000 0.000000 -1.000000 0.854918 0.927300
-0.335875 0.335876 -0.125000 0.000000 0.000000 -1.000000 0.854918 0.914098
-0.263895 0.394948 -0.125000 0.000000 0.000000 -1.000000 0.857493 0.901149
-0.181774 0.438843 -0.125000 0.000000 0.000000 -1.000000 0.862546 0.888952
4 0 1 2 3
4 4 5 6 7
4 8 9 10 11
4 12 13 14 15
4 16 17 18 19
4 20 21 22 23
4 24 25 26 27
4 28 29 30 31
4 32 33 34 35
4 36 37 38 39
4 40 41 42 43
4 44 45 46 47
4 48 49 50 51
4 52 53 54 55
4 56 57 58 59
4 60 61 62 63
4 64 65 66 67
4 68 69 70 71
4 72 73 74 75
4 76 77 78 79
4 80 81 82 83
4 84 85 86 87
4 88 89 90 91
4 92 93 94 95
4 96 97 98 99
4 100 101 102 103
4 104 105 106 107
4 108 109 110 111
4 112 113 114 115
4 116 117 118 119
3 120 121 122
3 121 123 124
3 124 125 126
3 126 127 128
3 128 129 130
3 130 131 132
3 132 133 134
3 134 135 136
3 136 137 138
3 138 139 140
3 140 141 142
3 142 143 144
3 144 145 146
3 146 147 148
3 148 149 150
3 150 151 122
3 121 124 122
3 124 126 128
3 128 130 132
3 132 134 136
3 136 138 140
3 140 142 144
3 144 146 148
3 148 150 122
3 124 128 122
3 128 132 136
3 136 140 144
3 144 148 122
3 128 136 122
3 136 144 122
4 152 153 154 155
4 156 157 158 159
3 160 161 162
3 161 163 164
3 164 165 166
3 166 167 168
3 168 169 170
3 170 171 172
3 172 173 174
3 174 175 176
3 176 177 178
3 178 179 180
3 180 181 182
3 182 183 184
3 184 185 186
3 186 187 188
3 188 189 190
3 190 191 162
3 161 164 162
3 164 166 168
3 168 170 172
3 172 174 176
3 176 178 180
3 180 182 184
3 184 186 188
3 188 190 162
3 164 168 162
3 168 172 176
3 176 180 184
3 184 188 162
3 168 176 162
3 176 184 162
